<svg xmlns="http://www.w3.org/2000/svg" width="391.367" height="321.111" viewBox="0 0 391.367 321.111">
  <g id="Group_255" data-name="Group 255" transform="translate(-8.483 0.5)" opacity="0.24">
    <g id="Group_235" data-name="Group 235" transform="translate(0 0)">
      <g id="Group_236" data-name="Group 236" transform="translate(238.017 138.675) rotate(-28)">
        <g id="Group_12" data-name="Group 12" transform="translate(29.987 0)">
          <path id="Path_320" data-name="Path 320" d="M1.416,17.784.19,17.257A20.634,20.634,0,0,0,0,.555L1.213,0A21.972,21.972,0,0,1,1.416,17.784Z" fill="#ffc68d" stroke="#ffc68d" stroke-width="1"/>
        </g>
        <g id="Group_13" data-name="Group 13" transform="translate(0 16.236)">
          <path id="Path_321" data-name="Path 321" d="M23.383,48.084h0A12.573,12.573,0,0,1,14.2,43.809,14.194,14.194,0,0,1,3.97,39.91c-4.909-4.747-5.292-11.387-1-17.329,2.578-3.564,4.283-4.854,7.68-7.423.663-.5,1.392-1.053,2.21-1.683a30.554,30.554,0,0,0,6.8-7.689,19.629,19.629,0,0,1,3.687-4.464C25.072-.05,27.486-.36,30.391.42a6.524,6.524,0,0,1,1.041.315,6.64,6.64,0,0,1,1,.508c2.635,1.433,4.142,3.288,4.45,5.5a19.629,19.629,0,0,1-.41,5.774A30.572,30.572,0,0,0,36.1,22.772c.158,1.024.307,1.93.442,2.753.687,4.2,1.033,6.308.438,10.661-.938,6.883-5.537,11.2-12.62,11.854C24.035,48.07,23.707,48.084,23.383,48.084Zm-8.6-5.72.247.339a11.2,11.2,0,0,0,8.356,4.048h0c.284,0,.569-.013.851-.039,6.505-.6,10.561-4.4,11.42-10.706.567-4.155.254-6.07-.433-10.266-.136-.825-.285-1.735-.443-2.764A32.12,32.12,0,0,1,35.159,12.3a18.757,18.757,0,0,0,.4-5.374c-.246-1.766-1.523-3.288-3.8-4.526a5.5,5.5,0,0,0-.8-.412l-.058-.023a5.342,5.342,0,0,0-.828-.245c-2.564-.687-4.518-.453-5.9.65a18.73,18.73,0,0,0-3.414,4.171,32.123,32.123,0,0,1-7.089,7.994c-.821.633-1.554,1.188-2.219,1.69-3.395,2.567-4.944,3.739-7.4,7.141C.176,28.726.5,34.7,4.9,38.952a13.128,13.128,0,0,0,8.513,3.563,5.381,5.381,0,0,0,.957-.076Z" transform="translate(0 0)" fill="#ffc68d" stroke="#ffc68d" stroke-width="1"/>
        </g>
        <g id="Group_16" data-name="Group 16" transform="translate(18.455 2.368)">
          <g id="Group_14" data-name="Group 14" transform="translate(0 0)">
            <path id="Path_322" data-name="Path 322" d="M7.379,11.84a5.685,5.685,0,0,1-3.429-1.1A9.38,9.38,0,0,1,.367.453.676.676,0,0,1,1.025,0a.667.667,0,0,1,.621.5c.408,1.611,1.251,1.71,3.116,1.78a7.875,7.875,0,0,1,4.4,1.126c2.4,1.627,3.1,4.25,2.036,7.585a.667.667,0,0,1-.621.464,8.3,8.3,0,0,0-1.134.152A11.67,11.67,0,0,1,7.379,11.84ZM1.324,2.647a7.744,7.744,0,0,0,3.4,7.014,4.336,4.336,0,0,0,2.651.845,10.478,10.478,0,0,0,1.836-.21c.291-.052.571-.1.841-.134.7-2.538.144-4.438-1.64-5.65a6.607,6.607,0,0,0-3.7-.9A4.9,4.9,0,0,1,1.324,2.647Z" fill="#ffc68d" stroke="#ffc68d" stroke-width="1"/>
          </g>
          <g id="Group_15" data-name="Group 15" transform="translate(0.374 0.127)">
            <path id="Path_323" data-name="Path 323" d="M10,10.887a.668.668,0,0,1-.565-.311A7.9,7.9,0,0,0,4.888,7.067C1.729,6,.038,3.792,0,.675A.667.667,0,1,1,1.334.659c.032,2.57,1.334,4.252,3.98,5.145a9.255,9.255,0,0,1,5.253,4.062A.667.667,0,0,1,10,10.887Z" transform="translate(0)" fill="#ffc68d" stroke="#ffc68d" stroke-width="1"/>
          </g>
        </g>
        <g id="Group_19" data-name="Group 19" transform="translate(31.021 7.763)">
          <g id="Group_17" data-name="Group 17" transform="translate(0)">
            <path id="Path_324" data-name="Path 324" d="M13.617,11.588h0a14.632,14.632,0,0,1-5.475-1.341A24.625,24.625,0,0,0,4.023,8.93a2.862,2.862,0,0,0-.57-.054,4.337,4.337,0,0,0-2.225.646A.667.667,0,0,1,0,9.149,9.454,9.454,0,0,1,8.2.224,17.44,17.44,0,0,1,10.947,0a19.531,19.531,0,0,1,5.3.828,13.331,13.331,0,0,0,3.452.6,7.149,7.149,0,0,0,1.928-.267.668.668,0,0,1,.831.775c-.066.321-1.632,7.875-5.7,9.144A10.427,10.427,0,0,1,13.617,11.588ZM3.453,7.541a4.231,4.231,0,0,1,.836.081A25.719,25.719,0,0,1,8.625,9a13.423,13.423,0,0,0,4.991,1.251h0a9.116,9.116,0,0,0,2.742-.445c2.371-.74,3.912-4.767,4.55-7.133a8.311,8.311,0,0,1-1.212.088A14.552,14.552,0,0,1,15.9,2.118a18.136,18.136,0,0,0-4.958-.784,16.125,16.125,0,0,0-2.539.207A7.858,7.858,0,0,0,1.5,7.9,5.924,5.924,0,0,1,3.453,7.541Z" transform="translate(0)" fill="#ffc68d" stroke="#ffc68d" stroke-width="1"/>
          </g>
          <g id="Group_18" data-name="Group 18" transform="translate(0 1.175)">
            <path id="Path_325" data-name="Path 325" d="M13.617,10.413A14.63,14.63,0,0,1,8.142,9.072,24.621,24.621,0,0,0,4.023,7.754a2.869,2.869,0,0,0-.57-.054,4.338,4.338,0,0,0-2.225.646A.668.668,0,0,1,0,7.977s0-.119.021-.326A.649.649,0,0,1,.045,7.52c1.064-3.548,3.8-5.14,7.577-4.335a35.672,35.672,0,0,0,7.157.936c3.729,0,4.568-1.24,5.456-2.552a8,8,0,0,1,1.1-1.386A.667.667,0,0,1,22.447.8c-.169.8-1.761,7.878-5.691,9.1A10.419,10.419,0,0,1,13.617,10.413ZM3.453,6.366a4.232,4.232,0,0,1,.836.081A25.734,25.734,0,0,1,8.625,7.829a13.422,13.422,0,0,0,4.991,1.251,9.116,9.116,0,0,0,2.743-.445c1.665-.519,2.943-2.681,3.784-4.813-.959.912-2.446,1.633-5.364,1.633A36.9,36.9,0,0,1,7.344,4.49c-2.6-.554-4.456.167-5.5,2.127A5.792,5.792,0,0,1,3.453,6.366Z" transform="translate(0 0)" fill="#ffc68d" stroke="#ffc68d" stroke-width="1"/>
          </g>
        </g>
        <g id="Group_20" data-name="Group 20" transform="translate(19.447 52.764)">
          <path id="Path_326" data-name="Path 326" d="M3.911,7.118A10.519,10.519,0,0,1,0,6.359L.5,5.121A9.131,9.131,0,0,0,7.53,5.035,9.131,9.131,0,0,0,12.444,0l1.238.5A10.458,10.458,0,0,1,8.055,6.261,10.5,10.5,0,0,1,3.911,7.118Z" fill="#ffc68d" stroke="#ffc68d" stroke-width="1"/>
        </g>
      </g>
      <g id="Group_243" data-name="Group 243" transform="translate(89.411 0)">
        <g id="Group_22" data-name="Group 22" transform="translate(1.732 57.589)">
          <path id="Path_327" data-name="Path 327" d="M1920.481,695.414l-1.135-1.377a114.892,114.892,0,0,1,24.5-15.108l.755,1.616A113.163,113.163,0,0,0,1920.481,695.414Z" transform="translate(-1919.346 -678.929)" fill="#ffc68d" stroke="#ffc68d" stroke-width="1"/>
        </g>
        <g id="Group_23" data-name="Group 23" transform="translate(49.847 38.6)">
          <path id="Path_328" data-name="Path 328" d="M2000.775,658.758l-.518-1.707A259.5,259.5,0,0,1,2055.083,647l.092,1.782A257.573,257.573,0,0,0,2000.775,658.758Z" transform="translate(-2000.257 -646.996)" fill="#ffc68d" stroke="#ffc68d" stroke-width="1"/>
        </g>
        <g id="Group_24" data-name="Group 24" transform="translate(52.394 47.964)">
          <path id="Path_329" data-name="Path 329" d="M2016.789,670.186a20,20,0,0,0-12.249-5.668l.163-1.776a21.764,21.764,0,0,1,13.331,6.166Z" transform="translate(-2004.54 -662.742)" fill="#ffc68d" stroke="#ffc68d" stroke-width="1"/>
        </g>
        <g id="Group_27" data-name="Group 27" transform="translate(52.506)">
          <g id="Group_25" data-name="Group 25">
            <path id="Path_330" data-name="Path 330" d="M2005.621,630.418a.893.893,0,0,1-.891-.937c.531-10.649,6.088-22.122,15.245-31.478s20.508-15.157,31.145-15.917a.893.893,0,0,1,.955.935c-.534,10.652-6.091,22.126-15.246,31.478s-20.506,15.157-31.145,15.917C2005.663,630.418,2005.642,630.418,2005.621,630.418Zm44.6-46.462c-9.912,1.017-20.415,6.549-28.975,15.3s-13.868,19.366-14.672,29.3c9.914-1.017,20.416-6.549,28.975-15.3S2049.42,593.889,2050.225,583.956Z" transform="translate(-2004.729 -582.085)" fill="#ffc68d" stroke="#ffc68d" stroke-width="1"/>
          </g>
          <g id="Group_26" data-name="Group 26" transform="translate(0.093 2.374)">
            <path id="Path_331" data-name="Path 331" d="M2005.778,631.942a.892.892,0,0,1-.638-1.516l43.143-44.081a.892.892,0,0,1,1.275,1.248l-43.144,44.082A.889.889,0,0,1,2005.778,631.942Z" transform="translate(-2004.886 -586.076)" fill="#ffc68d" stroke="#ffc68d" stroke-width="1"/>
          </g>
        </g>
        <g id="Group_30" data-name="Group 30" transform="translate(4.82 10.858)">
          <g id="Group_28" data-name="Group 28">
            <path id="Path_332" data-name="Path 332" d="M1966.74,634.743h0c-8.243,0-17.482-3.335-25.346-9.15-8.837-6.53-14.973-15.3-16.835-24.062a.892.892,0,0,1,.794-1.074c.846-.075,1.72-.113,2.6-.113,8.244,0,17.481,3.334,25.345,9.147,8.837,6.531,14.973,15.3,16.837,24.065a.891.891,0,0,1-.794,1.074C1968.491,634.705,1967.618,634.743,1966.74,634.743Zm-40.2-32.58c2.016,8.007,7.767,15.973,15.917,22,7.564,5.592,16.416,8.8,24.286,8.8h0c.474,0,.947-.012,1.413-.035-2.018-8.008-7.769-15.975-15.919-22C1944.214,605,1934.742,601.754,1926.536,602.163Z" transform="translate(-1924.538 -600.344)" fill="#ffc68d" stroke="#ffc68d" stroke-width="1"/>
          </g>
          <g id="Group_29" data-name="Group 29" transform="translate(0.09 0.175)">
            <path id="Path_333" data-name="Path 333" d="M1967.083,633.1a.891.891,0,0,1-.53-.174l-41.5-30.677a.892.892,0,1,1,1.06-1.434l41.5,30.676a.892.892,0,0,1-.53,1.609Z" transform="translate(-1924.689 -600.638)" fill="#ffc68d" stroke="#ffc68d" stroke-width="1"/>
          </g>
        </g>
        <g id="Group_33" data-name="Group 33" transform="translate(0 43.556)">
          <g id="Group_31" data-name="Group 31">
            <path id="Path_334" data-name="Path 334" d="M1928.115,668.8h0a22.658,22.658,0,0,1-11.233-2.713.894.894,0,0,1-.271-1.308c3.189-4.273,8.675-7.484,15.054-8.809a29.906,29.906,0,0,1,6.089-.638,22.648,22.648,0,0,1,11.233,2.713.891.891,0,0,1,.272,1.308c-3.188,4.271-8.675,7.483-15.054,8.81A29.963,29.963,0,0,1,1928.115,668.8Zm-9.421-3.773a21.877,21.877,0,0,0,9.42,1.989h0a28.147,28.147,0,0,0,5.725-.6c5.537-1.152,10.33-3.791,13.333-7.31-4.1-1.989-9.721-2.519-15.146-1.388C1926.492,658.865,1921.7,661.5,1918.695,665.025Z" transform="translate(-1916.433 -655.33)" fill="#ffc68d" stroke="#ffc68d" stroke-width="1"/>
          </g>
          <g id="Group_32" data-name="Group 32" transform="translate(0.064 2.925)">
            <path id="Path_335" data-name="Path 335" d="M1917.431,668.184a.892.892,0,0,1-.181-1.765l29.562-6.152a.892.892,0,0,1,.365,1.747l-29.562,6.152A.912.912,0,0,1,1917.431,668.184Z" transform="translate(-1916.54 -660.248)" fill="#ffc68d" stroke="#ffc68d" stroke-width="1"/>
          </g>
        </g>
        <g id="Group_34" data-name="Group 34" transform="translate(19.753 47.544)">
          <path id="Path_336" data-name="Path 336" d="M1963.41,704.089a13.558,13.558,0,0,1-8.647-2.9c-3.575-2.871-5.378-7.475-5.08-12.965a28.173,28.173,0,0,1,6.438-15.792c8.036-10,20.5-13.377,27.789-7.524a14.08,14.08,0,0,1,5.012,9.855.892.892,0,0,1-1.774.18,12.338,12.338,0,0,0-4.356-8.645c-6.519-5.237-17.86-1.984-25.28,7.251a26.366,26.366,0,0,0-6.047,14.771c-.267,4.9,1.3,8.975,4.415,11.477s7.431,3.155,12.158,1.838a26.367,26.367,0,0,0,13.121-9.088c.589-.734,1.148-1.5,1.66-2.272q.146-.221.285-.441a.892.892,0,1,1,1.505.958q-.148.234-.3.469c-.542.818-1.133,1.628-1.756,2.4a28.165,28.165,0,0,1-14.034,9.689A19.052,19.052,0,0,1,1963.41,704.089Z" transform="translate(-1949.651 -662.036)" fill="#ffc68d" stroke="#ffc68d" stroke-width="1"/>
        </g>
        <g id="Group_35" data-name="Group 35" transform="translate(29.148 63.919)">
          <path id="Path_337" data-name="Path 337" d="M1969.827,707.862a6.343,6.343,0,0,1-4.044-1.257.892.892,0,1,1,1.117-1.39c1.333,1.071,3.73,1.146,6.412.2a19.689,19.689,0,0,0,8.5-6.321,20.317,20.317,0,0,0,4.2-8.791.892.892,0,0,1,1.754.324,22.116,22.116,0,0,1-4.567,9.585,21.5,21.5,0,0,1-9.3,6.886A12.4,12.4,0,0,1,1969.827,707.862Z" transform="translate(-1965.45 -689.573)" fill="#ffc68d" stroke="#ffc68d" stroke-width="1"/>
        </g>
        <g id="Group_36" data-name="Group 36" transform="translate(53.025 52.661)">
          <path id="Path_338" data-name="Path 338" d="M2022.552,717.18c-9.347,0-16.951-10.439-16.951-23.27s7.6-23.269,16.951-23.269S2039.5,681.08,2039.5,693.91,2031.9,717.18,2022.552,717.18Zm0-44.755c-8.363,0-15.167,9.638-15.167,21.485s6.8,21.486,15.167,21.486,15.167-9.639,15.167-21.486S2030.916,672.425,2022.552,672.425Z" transform="translate(-2005.602 -670.641)" fill="#ffc68d" stroke="#ffc68d" stroke-width="1"/>
        </g>
        <g id="Group_37" data-name="Group 37" transform="translate(69.084 65.128)">
          <path id="Path_339" data-name="Path 339" d="M2033.5,718.3a.892.892,0,0,1,0-1.784c3.605,0,7.8-6.165,7.8-14.112a20.33,20.33,0,0,0-2.229-9.487.892.892,0,1,1,1.57-.846,22.144,22.144,0,0,1,2.442,10.333C2043.079,711.776,2038.031,718.3,2033.5,718.3Z" transform="translate(-2032.607 -691.606)" fill="#ffc68d" stroke="#ffc68d" stroke-width="1"/>
        </g>
      </g>
      <g id="Group_239" data-name="Group 239" transform="translate(74.866 99.616)">
        <g id="Group_39" data-name="Group 39" transform="translate(14.993 39.34)">
          <path id="Path_340" data-name="Path 340" d="M1949.7,835.35h-18.888l-.06-.828c-.124-1.72-.324-3.448-.6-5.137a55.006,55.006,0,0,0-3.833-13.281l1.635-.715a56.8,56.8,0,0,1,3.959,13.713c.237,1.47.422,2.968.549,4.465h15.515a51.825,51.825,0,0,1,3.146-15.863l1.666.638a50.493,50.493,0,0,0-3.064,16.147Z" transform="translate(-1926.326 -815.388)" fill="#ffc68d" stroke="#ffc68d" stroke-width="1"/>
        </g>
        <g id="Group_40" data-name="Group 40" transform="translate(22.656 36.831)">
          <path id="Path_341" data-name="Path 341" d="M1950.2,833.639h-9.385l-.027-.864c-.056-1.735-.146-3.478-.268-5.179-.279-3.9-.72-7.65-1.31-11.145l1.758-.3c.6,3.551,1.048,7.358,1.331,11.315.1,1.442.184,2.914.241,4.386h5.9a95.03,95.03,0,0,1,2.434-20.687l1.727.445a94.79,94.79,0,0,0-2.393,21.147Z" transform="translate(-1939.211 -811.168)" fill="#ffc68d" stroke="#ffc68d" stroke-width="1"/>
        </g>
        <g id="Group_41" data-name="Group 41" transform="translate(13.985)">
          <path id="Path_342" data-name="Path 342" d="M1926.375,758.076l-1.744-.371a6.784,6.784,0,0,1,9.421-4.772,10.8,10.8,0,0,1,10.709-1.766,6.794,6.794,0,0,1,11.522,5.555l-1.774-.182a5.012,5.012,0,0,0-8.834-3.737l-.434.515-.614-.276a9.016,9.016,0,0,0-9.834,1.612l-.477.441-.566-.318a5.006,5.006,0,0,0-7.376,3.3Z" transform="translate(-1924.631 -749.232)" fill="#ffc68d" stroke="#ffc68d" stroke-width="1"/>
        </g>
        <g id="Group_42" data-name="Group 42" transform="translate(0 7.62)">
          <path id="Path_343" data-name="Path 343" d="M1915.672,795.487a4.517,4.517,0,0,1-.724-.058,5.874,5.874,0,0,1-4.574-3.762,8.22,8.22,0,0,1-1.458-.107,9.274,9.274,0,0,1-2.826-17.376,9.272,9.272,0,0,1,16.385-8.226,5.876,5.876,0,0,1,9.355,1.073l-1.54.9a4.1,4.1,0,0,0-7.117.058l-.818,1.444-.754-1.479a7.49,7.49,0,0,0-13.567,6.336l.356.83-.835.345a7.476,7.476,0,0,0,3.41,14.391l.758-.054.173.74a4.1,4.1,0,0,0,3.339,3.124c2.132.349,4.46-1.911,4.965-4.007l1.734.419C1921.279,792.8,1918.555,795.487,1915.672,795.487Z" transform="translate(-1901.113 -762.046)" fill="#ffc68d" stroke="#ffc68d" stroke-width="1"/>
        </g>
        <g id="Group_43" data-name="Group 43" transform="translate(15.243 5.732)">
          <path id="Path_344" data-name="Path 344" d="M1958.871,798.136a24.082,24.082,0,0,0-14.291-7.814,6.782,6.782,0,0,1-13.552-.395c0-.171.008-.345.023-.526a11.061,11.061,0,0,1,6.76-19.821c.193,0,.389.006.595.019a11.065,11.065,0,0,1,10.47-7.515,11.007,11.007,0,0,0,11.423-3.213,11.062,11.062,0,0,1,6.217,20.213,10.954,10.954,0,0,1,3.42,7.986A11.078,11.078,0,0,1,1958.871,798.136Zm-15.125-10.347.515.327a9.258,9.258,0,0,0,4.972,1.454h.631l.265.592a9.275,9.275,0,1,0,14.323-10.493l-1.124-.851,1.25-.652a9.277,9.277,0,1,0-11.532-14.013l-.4.5-.6-.219a9.241,9.241,0,0,0-12.131,6.347l-.2.752-.772-.094a9.273,9.273,0,0,0-6.43,16.819l.459.32-.088.552a5,5,0,1,0,9.856,0l-.089-.549Z" transform="translate(-1926.745 -758.872)" fill="#ffc68d" stroke="#ffc68d" stroke-width="1"/>
        </g>
        <g id="Group_44" data-name="Group 44" transform="translate(40.748 34.029)">
          <path id="Path_345" data-name="Path 345" d="M1976.623,813.443a6.994,6.994,0,0,1-6.987-6.987h1.784a5.2,5.2,0,0,0,10.406,0h1.784A7,7,0,0,1,1976.623,813.443Z" transform="translate(-1969.636 -806.456)" fill="#ffc68d" stroke="#ffc68d" stroke-width="1"/>
        </g>
        <g id="Group_45" data-name="Group 45" transform="translate(42.905 13.063)">
          <path id="Path_346" data-name="Path 346" d="M1979.349,781.638a7.03,7.03,0,0,1-1.869-.255,6.937,6.937,0,0,1-4.218-3.288l1.552-.88a5.2,5.2,0,0,0,9.05-5.137l1.551-.881a6.993,6.993,0,0,1-6.066,10.439Z" transform="translate(-1973.263 -771.199)" fill="#ffc68d" stroke="#ffc68d" stroke-width="1"/>
        </g>
        <g id="Group_46" data-name="Group 46" transform="translate(28.26 22.73)">
          <path id="Path_347" data-name="Path 347" d="M1958,796.821a9.376,9.376,0,0,1-9.366-9.365h1.784a7.59,7.59,0,0,0,7.582,7.581Z" transform="translate(-1948.636 -787.456)" fill="#ffc68d" stroke="#ffc68d" stroke-width="1"/>
        </g>
      </g>
      <g id="Group_242" data-name="Group 242" transform="translate(218.915 129.267) rotate(-120)">
        <g id="Group_50" data-name="Group 50" transform="translate(0 13.736)">
          <g id="Group_48" data-name="Group 48">
            <path id="Path_348" data-name="Path 348" d="M6.722,40.229A6.88,6.88,0,0,1,1.507,34.5a8.89,8.89,0,0,0-.6-2.734L.6,31.807,0,30.768l.37-.476a.978.978,0,0,1,.758-.364,3.517,3.517,0,0,0,2.235-2.421c1-2.715,3.6-5.334,6.626-5.1a32.972,32.972,0,0,0,19.365-4.6A32.991,32.991,0,0,0,42.779,3.118,11,11,0,0,1,45.221,0l1.2,1.315A8.906,8.906,0,0,0,44.4,3.86,34.77,34.77,0,0,1,30.259,19.349,34.769,34.769,0,0,1,9.849,24.188c-2.124-.169-4.062,1.9-4.812,3.934a5.688,5.688,0,0,1-2.429,3.09A11.775,11.775,0,0,1,3.279,34.3c.324,2.834,2.875,3.9,3.956,4.22Z" fill="#ffc68d" stroke="#ffc68d" stroke-width="1"/>
          </g>
          <g id="Group_49" data-name="Group 49" transform="translate(8.63 39.685)">
            <path id="Path_349" data-name="Path 349" d="M0,0" fill="#ffc68d" stroke="#ffc68d" stroke-width="3"/>
          </g>
        </g>
        <g id="Group_51" data-name="Group 51" transform="translate(49.578 6.652)">
          <path id="Path_350" data-name="Path 350" d="M10,4.84A17.374,17.374,0,0,1,0,1.456L1.03,0A14.763,14.763,0,0,0,12.876,2.732l.4,1.739A14.6,14.6,0,0,1,10,4.84Z" fill="#ffc68d" stroke="#ffc68d" stroke-width="1"/>
        </g>
        <g id="Group_53" data-name="Group 53" transform="translate(2.285 8.964)">
          <g id="Group_52" data-name="Group 52" transform="translate(0 0)">
            <path id="Path_351" data-name="Path 351" d="M10.516,60.2c-3,0-6.688-1.338-8.017-5.093A9.168,9.168,0,0,0,.972,51.989H.007L0,51.1a.956.956,0,0,1,.769-.918,4.261,4.261,0,0,0,2.018-3.486c.42-3.308,2.651-6.927,6.1-7.442A38.848,38.848,0,0,0,29.9,28.845,38.854,38.854,0,0,0,41.428,8.423a10.538,10.538,0,1,1,20.645,4.234A59.833,59.833,0,0,1,44.4,44.146,59.837,59.837,0,0,1,12,60.093l-.205.029A10.047,10.047,0,0,1,10.516,60.2ZM2.544,51.09a13.081,13.081,0,0,1,1.637,3.425c1.019,2.878,3.94,3.9,6.335,3.9a8.087,8.087,0,0,0,1.023-.064l.194-.026A58.066,58.066,0,0,0,43.171,42.851,58.06,58.06,0,0,0,60.326,12.3a8.753,8.753,0,1,0-17.15-3.517A40.632,40.632,0,0,1,31.131,30.14,40.624,40.624,0,0,1,9.151,41.014c-2.545.381-4.267,3.325-4.594,5.9A6.5,6.5,0,0,1,2.544,51.09Z" fill="#ffc68d" stroke="#ffc68d" stroke-width="1"/>
          </g>
        </g>
        <g id="Group_54" data-name="Group 54" transform="translate(47.756 15.198)">
          <path id="Path_352" data-name="Path 352" d="M5.65,11.315A5.657,5.657,0,0,1,4.945.045,5.807,5.807,0,0,1,5.662,0a5.657,5.657,0,0,1,.706,11.269A5.819,5.819,0,0,1,5.65,11.315Zm.012-9.531a3.94,3.94,0,0,0-.492.031,3.872,3.872,0,1,0,.492-.031Z" transform="translate(0 0)" fill="#ffc68d" stroke="#ffc68d" stroke-width="1"/>
        </g>
        <g id="Group_55" data-name="Group 55" transform="translate(42.181 28.752)">
          <path id="Path_353" data-name="Path 353" d="M5.652,11.315a5.664,5.664,0,1,1,.716-.045A5.79,5.79,0,0,1,5.652,11.315Zm.01-9.531a3.945,3.945,0,0,0-.492.031,3.873,3.873,0,1,0,.492-.031Z" transform="translate(0 0)" fill="#ffc68d" stroke="#ffc68d" stroke-width="1"/>
        </g>
        <g id="Group_56" data-name="Group 56" transform="translate(32.886 40.346)">
          <path id="Path_354" data-name="Path 354" d="M5.652,11.315A5.658,5.658,0,0,1,4.946.045,5.816,5.816,0,0,1,5.663,0a5.657,5.657,0,0,1,.706,11.27A5.809,5.809,0,0,1,5.652,11.315Zm.011-9.531a3.948,3.948,0,0,0-.492.031,3.872,3.872,0,1,0,.492-.031Z" transform="translate(0 0)" fill="#ffc68d" stroke="#ffc68d" stroke-width="1"/>
        </g>
        <g id="Group_57" data-name="Group 57" transform="translate(21.363 48.056)">
          <path id="Path_355" data-name="Path 355" d="M5.651,11.315a5.663,5.663,0,1,1,.717-.045A5.787,5.787,0,0,1,5.651,11.315Zm.011-9.531a3.949,3.949,0,0,0-.493.031,3.873,3.873,0,1,0,.493-.031Z" transform="translate(0 0)" fill="#ffc68d" stroke="#ffc68d" stroke-width="1"/>
        </g>
        <g id="Group_58" data-name="Group 58" transform="translate(10.479 53.005)">
          <path id="Path_356" data-name="Path 356" d="M4.788,9.588A4.794,4.794,0,1,1,5.4,9.55,4.894,4.894,0,0,1,4.788,9.588Zm.01-7.8a3.01,3.01,0,1,0,2.98,2.632A3.014,3.014,0,0,0,4.8,1.784Z" transform="translate(0 0)" fill="#ffc68d" stroke="#ffc68d" stroke-width="1"/>
        </g>
        <g id="Group_59" data-name="Group 59" transform="translate(54.785 0)">
          <path id="Path_357" data-name="Path 357" d="M1.716,12.263,0,11.774A22.906,22.906,0,0,0,.284.4L2.023,0A24.71,24.71,0,0,1,1.716,12.263Z" transform="translate(0)" fill="#ffc68d" stroke="#ffc68d" stroke-width="1"/>
        </g>
      </g>
      <g id="Group_84" data-name="Group 84" transform="translate(146.918 99.616)">
        <g id="Group_71" data-name="Group 71" transform="translate(0 0)">
          <path id="Path_364" data-name="Path 364" d="M1781.559,735.988a51.62,51.62,0,1,1,26.183-96.116l-.906,1.536a49.81,49.81,0,1,0,17.57,17.491l1.533-.913a51.633,51.633,0,0,1-44.38,78Z" transform="translate(-1729.939 -632.748)" fill="#ffc68d" stroke="#ffc68d" stroke-width="1"/>
        </g>
        <g id="Group_72" data-name="Group 72" transform="translate(9.076 7.475)">
          <path id="Path_365" data-name="Path 365" d="M1746.92,678.125l-1.719-.476a44.2,44.2,0,0,1,54.883-30.583l-.5,1.713a42.419,42.419,0,0,0-52.666,29.346Z" transform="translate(-1745.201 -645.319)" fill="#ffc68d" stroke="#ffc68d" stroke-width="1"/>
        </g>
        <g id="Group_73" data-name="Group 73" transform="translate(7.477 45.656)">
          <path id="Path_366" data-name="Path 366" d="M1744.3,715.489h-1.784a44.676,44.676,0,0,1,.4-5.964l1.767.238A43.166,43.166,0,0,0,1744.3,715.489Z" transform="translate(-1742.512 -709.525)" fill="#ffc68d" stroke="#ffc68d" stroke-width="1"/>
        </g>
        <g id="Group_83" data-name="Group 83" transform="translate(19.156 2.899)">
          <g id="Group_74" data-name="Group 74" transform="translate(55.457)">
            <path id="Path_367" data-name="Path 367" d="M1864.671,663.061h0a34.749,34.749,0,0,1-7.723-.869l-.547-.124-.125-.546a34.791,34.791,0,0,1,2.56-22.765l.546-1.132,21.464,21.464-1.133.546A34.864,34.864,0,0,1,1864.671,663.061Zm-6.776-2.488a33.281,33.281,0,0,0,19.893-2.02l-17.872-17.872A33.02,33.02,0,0,0,1857.895,660.573Z" transform="translate(-1855.41 -637.623)" fill="#ffc68d" stroke="#ffc68d" stroke-width="1"/>
          </g>
          <g id="Group_75" data-name="Group 75" transform="translate(0 12.906)">
            <path id="Path_368" data-name="Path 368" d="M1776.364,727.312a54.593,54.593,0,0,1-12.163-1.378l-.546-.124-.125-.547a53.873,53.873,0,0,1,64.558-64.559l.546.125.125.546a54.071,54.071,0,0,1-4.436,36.4l-1.592-.806a52.273,52.273,0,0,0,4.41-34.648,52.087,52.087,0,0,0-62,62,52.144,52.144,0,0,0,55.845-24.192l1.531.915a53.97,53.97,0,0,1-46.159,26.272Z" transform="translate(-1762.152 -659.327)" fill="#ffc68d" stroke="#ffc68d" stroke-width="1"/>
          </g>
          <g id="Group_76" data-name="Group 76" transform="translate(0.009 46.666)">
            <path id="Path_369" data-name="Path 369" d="M1776.262,750.305h0a54.228,54.228,0,0,1-12.055-1.359l-.546-.124-.126-.547a53.856,53.856,0,0,1,2.241-31.456l.278-.721.753.171a39.065,39.065,0,0,1,29.406,29.4l.171.753-.72.278A53.778,53.778,0,0,1,1776.262,750.305Zm-11.11-2.976a52.327,52.327,0,0,0,29.14-2.015,37.283,37.283,0,0,0-27.126-27.126A52.058,52.058,0,0,0,1765.152,747.329Z" transform="translate(-1762.167 -716.098)" fill="#ffc68d" stroke="#ffc68d" stroke-width="1"/>
          </g>
          <g id="Group_77" data-name="Group 77" transform="translate(55.457)">
            <path id="Path_370" data-name="Path 370" d="M1864.671,663.061h0a34.749,34.749,0,0,1-7.723-.869l-.547-.124-.125-.546a34.791,34.791,0,0,1,2.56-22.765l.546-1.132,21.464,21.464-1.133.546A34.864,34.864,0,0,1,1864.671,663.061Zm-6.776-2.488a33.281,33.281,0,0,0,19.893-2.02l-17.872-17.872A33.02,33.02,0,0,0,1857.895,660.573Z" transform="translate(-1855.41 -637.623)" fill="#ffc68d" stroke="#ffc68d" stroke-width="1"/>
          </g>
          <g id="Group_78" data-name="Group 78" transform="translate(39.327 41.899)">
            <path id="Path_371" data-name="Path 371" d="M1837.382,723.286h0a34.769,34.769,0,0,1-7.509-.821l-1.588-.351,14.033-14.033,11.233,11.233-1.133.545A34.844,34.844,0,0,1,1837.382,723.286Zm-5.5-2.245a33.02,33.02,0,0,0,5.5.461h0a33.091,33.091,0,0,0,13.112-2.723l-8.176-8.176Z" transform="translate(-1828.285 -708.081)" fill="#ffc68d" stroke="#ffc68d" stroke-width="1"/>
          </g>
          <g id="Group_79" data-name="Group 79" transform="translate(18.223 38.614)">
            <path id="Path_372" data-name="Path 372" d="M1806.425,719.573a5.193,5.193,0,0,0-5.165-5.165l-.882,0,0-.883a5.194,5.194,0,0,0-5.168-5.167l-.882-.005-.005-.881a5.166,5.166,0,0,0-1.52-3.648l1.261-1.261a6.978,6.978,0,0,0,6.054,6.055,6.982,6.982,0,0,0,6.054,6.055,6.934,6.934,0,0,1,2.043,4.9Z" transform="translate(-1792.797 -702.558)" fill="#ffc68d" stroke="#ffc68d" stroke-width="1"/>
          </g>
          <g id="Group_80" data-name="Group 80" transform="translate(24.867 32.337)">
            <path id="Path_373" data-name="Path 373" d="M1815.19,705.008a5.191,5.191,0,0,0-5.167-5.17l-.88-.006-.007-.88a5.19,5.19,0,0,0-5.167-5.167l.007-1.784a25.52,25.52,0,0,0,10.954,8.1,6.947,6.947,0,0,1,2.042,4.9Z" transform="translate(-1803.97 -692.002)" fill="#ffc68d" stroke="#ffc68d" stroke-width="1"/>
          </g>
          <g id="Group_81" data-name="Group 81" transform="translate(35.156 28.101)">
            <path id="Path_374" data-name="Path 374" d="M1826.44,691.829a5.195,5.195,0,0,0-5.169-5.167l.012-1.784a6.98,6.98,0,0,1,6.941,6.94Z" transform="translate(-1821.271 -684.878)" fill="#ffc68d" stroke="#ffc68d" stroke-width="1"/>
          </g>
          <g id="Group_82" data-name="Group 82" transform="translate(9.876 63.035)">
            <path id="Path_375" data-name="Path 375" d="M1780.97,748.021a2.208,2.208,0,0,1-1.561-3.771,2.26,2.26,0,0,1,3.123,0,2.208,2.208,0,0,1-1.562,3.769Zm0-2.634a.426.426,0,1,0,.3.126A.422.422,0,0,0,1780.97,745.388Z" transform="translate(-1778.76 -743.625)" fill="#ffc68d" stroke="#ffc68d" stroke-width="1"/>
          </g>
        </g>
      </g>
      <g id="Group_241" data-name="Group 241" transform="translate(278.816 129.267) rotate(-90)">
        <g id="Group_85" data-name="Group 85" transform="translate(0)">
          <path id="Path_376" data-name="Path 376" d="M60.268,120.535A60.267,60.267,0,1,1,94.254,10.492l-1.007,1.472a58.365,58.365,0,1,0,21.4,26.745l1.658-.658a60.306,60.306,0,0,1-56.039,82.483Z" fill="#ffc68d" stroke="#ffc68d" stroke-width="1"/>
        </g>
        <g id="Group_86" data-name="Group 86" transform="translate(10.617 8.75)">
          <path id="Path_377" data-name="Path 377" d="M1.719,38.206,0,37.729A51.587,51.587,0,0,1,64.049,2.038l-.5,1.713A49.8,49.8,0,0,0,1.719,38.206Z" transform="translate(0)" fill="#ffc68d" stroke="#ffc68d" stroke-width="1"/>
        </g>
        <g id="Group_87" data-name="Group 87" transform="translate(8.75 53.306)">
          <path id="Path_378" data-name="Path 378" d="M1.784,6.96H0A52.344,52.344,0,0,1,.466,0L2.233.238A50.608,50.608,0,0,0,1.784,6.96Z" transform="translate(0)" fill="#ffc68d" stroke="#ffc68d" stroke-width="1"/>
        </g>
        <g id="Group_100" data-name="Group 100" transform="translate(33.037 9.193)">
          <g id="Group_88" data-name="Group 88" transform="translate(60.542 0)">
            <path id="Path_379" data-name="Path 379" d="M9.186,34.875a9.183,9.183,0,0,1-7.719-4.184,9.065,9.065,0,0,1-1.26-6.883l1.744.374A7.3,7.3,0,0,0,2.964,29.72,7.408,7.408,0,0,0,13.2,31.9a7.273,7.273,0,0,0,1.321-1.122l.527-.551.627.434A4.027,4.027,0,0,0,21.5,25.407l-.323-.591.48-.473a7.36,7.36,0,0,0,1.684-7.961l-.238-.6.5-.413a4.023,4.023,0,0,0-3.85-6.927l-.618.209-.386-.525a6.027,6.027,0,0,0-1.414-1.4l-.4-.277.017-.489A4.041,4.041,0,0,0,10.7,2.431a3.977,3.977,0,0,0-1.762,2.65L7.182,4.761A5.747,5.747,0,0,1,9.73.934,5.849,5.849,0,0,1,17.8,2.655a5.788,5.788,0,0,1,.925,2.876A7.742,7.742,0,0,1,19.8,6.576a5.8,5.8,0,0,1,5.409,9.735,9.138,9.138,0,0,1-1.858,8.838A5.809,5.809,0,0,1,15.3,32.516a8.4,8.4,0,0,1-1.131.883A9.126,9.126,0,0,1,9.186,34.875Z" transform="translate(0)" fill="#ffc68d" stroke="#ffc68d" stroke-width="1"/>
          </g>
          <g id="Group_89" data-name="Group 89" transform="translate(50.456 22.724)">
            <rect id="Rectangle_10" data-name="Rectangle 10" width="10.464" height="1.784" transform="translate(0 7.401) rotate(-45.012)" fill="#ffc68d" stroke="#ffc68d" stroke-width="1"/>
          </g>
          <g id="Group_90" data-name="Group 90" transform="translate(55.488 27.755)">
            <rect id="Rectangle_11" data-name="Rectangle 11" width="10.464" height="1.784" transform="matrix(0.707, -0.707, 0.707, 0.707, 0, 7.4)" fill="#ffc68d" stroke="#ffc68d" stroke-width="1"/>
          </g>
          <g id="Group_91" data-name="Group 91" transform="translate(49.376 1.494)">
            <path id="Path_380" data-name="Path 380" d="M17.3,25.433h0a7.866,7.866,0,0,1-6.787-3.866A7.907,7.907,0,0,1,1.271,9.788,7.829,7.829,0,0,1,5.761,6.482,7.7,7.7,0,0,1,6.879,3.614a7.906,7.906,0,0,1,14.111,6.88c.213.112.421.234.623.364A7.924,7.924,0,0,1,17.3,25.433Zm-5.935-6.192.375.824a6.088,6.088,0,0,0,5.56,3.584h0a6.139,6.139,0,0,0,2.219-11.866l-.9-.347.419-.871A6.123,6.123,0,0,0,8.376,4.584,6.07,6.07,0,0,0,7.447,7.3l-.067.657-.647.127a6.086,6.086,0,0,0-3.965,2.674,6.155,6.155,0,0,0,1.812,8.5,6.227,6.227,0,0,0,5.966.376Z" transform="translate(0)" fill="#ffc68d" stroke="#ffc68d" stroke-width="1"/>
          </g>
          <g id="Group_92" data-name="Group 92" transform="translate(0 27.863)">
            <path id="Path_381" data-name="Path 381" d="M1.788,60.217a1.659,1.659,0,0,1-1.58-.871c-.393-.753-.552-2.272,2.575-6.74L35.507,5.833A12.993,12.993,0,0,1,46.154,0a13.3,13.3,0,0,1,9.384,4.078l.6.6a13.058,13.058,0,0,1,4.031,10.446,13.061,13.061,0,0,1-5.787,9.587L7.614,57.436C4.94,59.306,3.034,60.217,1.788,60.217Zm0-1.784h0c.3,0,1.543-.178,4.8-2.458L53.363,23.252A11.308,11.308,0,0,0,58.4,14.971a11.308,11.308,0,0,0-3.515-9.03l-.6-.6a11.534,11.534,0,0,0-8.123-3.554,11.237,11.237,0,0,0-9.185,5.072L4.244,53.628C1.983,56.861,1.785,58.1,1.786,58.433Z" fill="#ffc68d" stroke="#ffc68d" stroke-width="1"/>
          </g>
          <g id="Group_93" data-name="Group 93" transform="translate(34.05 35.635)">
            <rect id="Rectangle_12" data-name="Rectangle 12" width="1.784" height="6.586" transform="translate(0 1.261) rotate(-44.996)" fill="#ffc68d" stroke="#ffc68d" stroke-width="1"/>
          </g>
          <g id="Group_94" data-name="Group 94" transform="translate(50.73 44.095)">
            <rect id="Rectangle_13" data-name="Rectangle 13" width="1.784" height="6.683" transform="translate(0 1.261) rotate(-44.993)" fill="#ffc68d" stroke="#ffc68d" stroke-width="1"/>
          </g>
          <g id="Group_95" data-name="Group 95" transform="translate(37.063 46.869)">
            <rect id="Rectangle_14" data-name="Rectangle 14" width="1.784" height="6.589" transform="matrix(0.707, -0.707, 0.707, 0.707, 0, 1.262)" fill="#ffc68d" stroke="#ffc68d" stroke-width="1"/>
          </g>
          <g id="Group_96" data-name="Group 96" transform="translate(23.639 52.623)">
            <rect id="Rectangle_15" data-name="Rectangle 15" width="1.784" height="5.422" transform="translate(0 1.261) rotate(-44.991)" fill="#ffc68d" stroke="#ffc68d" stroke-width="1"/>
          </g>
          <g id="Group_97" data-name="Group 97" transform="translate(23.639 65.776)">
            <rect id="Rectangle_16" data-name="Rectangle 16" width="1.784" height="6.199" transform="translate(0 1.261) rotate(-44.989)" fill="#ffc68d" stroke="#ffc68d" stroke-width="1"/>
          </g>
          <g id="Group_98" data-name="Group 98" transform="translate(10.812 68.841)">
            <rect id="Rectangle_17" data-name="Rectangle 17" width="1.784" height="4.406" transform="matrix(0.707, -0.707, 0.707, 0.707, 0, 1.261)" fill="#ffc68d" stroke="#ffc68d" stroke-width="1"/>
          </g>
          <g id="Group_99" data-name="Group 99" transform="translate(34.358 56.219)">
            <rect id="Rectangle_18" data-name="Rectangle 18" width="1.784" height="5.328" transform="translate(0 1.261) rotate(-44.991)" fill="#ffc68d" stroke="#ffc68d" stroke-width="1"/>
          </g>
        </g>
        <g id="Group_101" data-name="Group 101" transform="translate(33.751 46.25)">
          <path id="Path_382" data-name="Path 382" d="M5.58,11.159a5.58,5.58,0,1,1,5.579-5.58A5.586,5.586,0,0,1,5.58,11.159Zm0-9.375a3.8,3.8,0,1,0,3.795,3.8A3.8,3.8,0,0,0,5.58,1.784Z" transform="translate(0)" fill="#ffc68d" stroke="#ffc68d" stroke-width="1"/>
        </g>
        <g id="Group_102" data-name="Group 102" transform="translate(26.563 61.562)">
          <path id="Path_383" data-name="Path 383" d="M5.58,11.159a5.58,5.58,0,1,1,5.579-5.58A5.586,5.586,0,0,1,5.58,11.159Zm0-9.375a3.8,3.8,0,1,0,3.8,3.8A3.8,3.8,0,0,0,5.58,1.784Z" transform="translate(0)" fill="#ffc68d" stroke="#ffc68d" stroke-width="1"/>
        </g>
        <g id="Group_103" data-name="Group 103" transform="translate(47.812 35.313)">
          <path id="Path_384" data-name="Path 384" d="M5.579,11.158a5.579,5.579,0,1,1,5.58-5.579A5.585,5.585,0,0,1,5.579,11.158Zm0-9.374a3.8,3.8,0,1,0,3.8,3.8A3.8,3.8,0,0,0,5.579,1.784Z" fill="#ffc68d" stroke="#ffc68d" stroke-width="1"/>
        </g>
        <g id="Group_104" data-name="Group 104" transform="translate(19.064 47.812)">
          <path id="Path_385" data-name="Path 385" d="M5.579,11.159A5.579,5.579,0,1,1,11.159,5.58,5.586,5.586,0,0,1,5.579,11.159Zm0-9.375a3.8,3.8,0,1,0,3.8,3.8A3.8,3.8,0,0,0,5.579,1.784Z" fill="#ffc68d" stroke="#ffc68d" stroke-width="1"/>
        </g>
        <g id="Group_105" data-name="Group 105" transform="translate(34.063 30.937)">
          <path id="Path_386" data-name="Path 386" d="M5.58,11.159a5.58,5.58,0,1,1,5.578-5.58A5.586,5.586,0,0,1,5.58,11.159Zm0-9.375a3.8,3.8,0,1,0,3.795,3.8A3.8,3.8,0,0,0,5.58,1.784Z" transform="translate(0)" fill="#ffc68d" stroke="#ffc68d" stroke-width="1"/>
        </g>
        <g id="Group_106" data-name="Group 106" transform="translate(45.001 19.687)">
          <path id="Path_387" data-name="Path 387" d="M5.58,11.159A5.579,5.579,0,1,1,11.159,5.58,5.585,5.585,0,0,1,5.58,11.159Zm0-9.375a3.8,3.8,0,1,0,3.795,3.8A3.8,3.8,0,0,0,5.58,1.784Z" transform="translate(0)" fill="#ffc68d" stroke="#ffc68d" stroke-width="1"/>
        </g>
      </g>
      <g id="Group_247" data-name="Group 247" transform="matrix(0.966, -0.259, 0.259, 0.966, 147.159, 227.611)">
        <g id="Group_85-2" data-name="Group 85" transform="translate(0 0)">
          <path id="Path_376-2" data-name="Path 376" d="M47.824,95.646A47.823,47.823,0,1,1,74.792,8.325l-.8,1.168A46.314,46.314,0,1,0,90.976,30.716l1.316-.522A47.854,47.854,0,0,1,47.824,95.646Z" fill="#ffc68d" stroke="#ffc68d" stroke-width="1"/>
        </g>
        <g id="Group_86-2" data-name="Group 86" transform="translate(8.425 6.943)">
          <path id="Path_377-2" data-name="Path 377" d="M1.364,30.317,0,29.939A40.936,40.936,0,0,1,50.824,1.618L50.43,2.977A39.52,39.52,0,0,0,1.364,30.317Z" fill="#ffc68d" stroke="#ffc68d" stroke-width="1"/>
        </g>
        <g id="Group_87-2" data-name="Group 87" transform="translate(6.944 42.3)">
          <path id="Path_378-2" data-name="Path 378" d="M1.416,5.523H0A41.514,41.514,0,0,1,.37,0l1.4.189A40.167,40.167,0,0,0,1.416,5.523Z" transform="translate(0 0)" fill="#ffc68d" stroke="#ffc68d" stroke-width="1"/>
        </g>
        <g id="Group_100-2" data-name="Group 100" transform="translate(26.216 7.294)">
          <g id="Group_88-2" data-name="Group 88" transform="translate(48.041 0)">
            <path id="Path_379-2" data-name="Path 379" d="M7.289,27.674a7.287,7.287,0,0,1-6.125-3.32,7.194,7.194,0,0,1-1-5.462l1.384.3a5.79,5.79,0,0,0,.8,4.395,5.879,5.879,0,0,0,8.121,1.732,5.774,5.774,0,0,0,1.048-.89l.418-.437.5.344a3.2,3.2,0,0,0,4.622-4.171l-.256-.469.381-.375A5.841,5.841,0,0,0,18.519,13l-.189-.479.4-.328a3.193,3.193,0,0,0-3.055-5.5l-.49.166-.307-.416a4.785,4.785,0,0,0-1.122-1.114l-.321-.22.013-.388a3.207,3.207,0,0,0-4.956-2.8,3.156,3.156,0,0,0-1.4,2.1L5.7,3.778A4.56,4.56,0,0,1,7.721.741a4.642,4.642,0,0,1,6.4,1.366,4.592,4.592,0,0,1,.734,2.282,6.135,6.135,0,0,1,.851.83A4.606,4.606,0,0,1,20,12.943a7.252,7.252,0,0,1-1.475,7.013A4.61,4.61,0,0,1,12.139,25.8a6.659,6.659,0,0,1-.9.7A7.242,7.242,0,0,1,7.289,27.674Z" transform="translate(0)" fill="#ffc68d" stroke="#ffc68d" stroke-width="1"/>
          </g>
          <g id="Group_89-2" data-name="Group 89" transform="translate(40.037 18.032)">
            <rect id="Rectangle_10-2" data-name="Rectangle 10" width="8.304" height="1.415" transform="translate(0 5.873) rotate(-45.012)" fill="#ffc68d" stroke="#ffc68d" stroke-width="1"/>
          </g>
          <g id="Group_90-2" data-name="Group 90" transform="translate(44.031 22.024)">
            <rect id="Rectangle_11-2" data-name="Rectangle 11" width="8.303" height="1.416" transform="matrix(0.707, -0.707, 0.707, 0.707, 0, 5.872)" fill="#ffc68d" stroke="#ffc68d" stroke-width="1"/>
          </g>
          <g id="Group_91-2" data-name="Group 91" transform="translate(39.181 1.186)">
            <path id="Path_380-2" data-name="Path 380" d="M13.728,20.182h0a6.242,6.242,0,0,1-5.385-3.068A6.275,6.275,0,0,1,1.008,7.767,6.213,6.213,0,0,1,4.572,5.144a6.109,6.109,0,0,1,.887-2.276,6.273,6.273,0,0,1,11.2,5.459c.169.089.334.186.494.289a6.287,6.287,0,0,1-3.422,11.566Zm-4.71-4.913.3.654a4.83,4.83,0,0,0,4.412,2.844h0A4.872,4.872,0,0,0,15.489,9.35l-.715-.276.332-.691A4.859,4.859,0,0,0,6.647,3.637a4.814,4.814,0,0,0-.737,2.155l-.053.521-.513.1A4.829,4.829,0,0,0,2.2,8.536a4.884,4.884,0,0,0,1.438,6.741,4.941,4.941,0,0,0,4.734.3Z" transform="translate(0 0)" fill="#ffc68d" stroke="#ffc68d" stroke-width="1"/>
          </g>
          <g id="Group_92-2" data-name="Group 92" transform="translate(0 22.11)">
            <path id="Path_381-2" data-name="Path 381" d="M1.419,47.783a1.316,1.316,0,0,1-1.254-.691c-.312-.6-.438-1.8,2.043-5.349L28.175,4.629A10.31,10.31,0,0,1,36.624,0,10.553,10.553,0,0,1,44.07,3.236l.479.479A10.362,10.362,0,0,1,47.748,12a10.365,10.365,0,0,1-4.592,7.608L6.042,45.576C3.92,47.061,2.408,47.783,1.419,47.783Zm0-1.416h0c.24,0,1.224-.141,3.812-1.951L42.344,18.451a8.972,8.972,0,0,0,3.993-6.571,8.973,8.973,0,0,0-2.789-7.165l-.478-.479a9.152,9.152,0,0,0-6.446-2.82A8.917,8.917,0,0,0,29.335,5.44L3.368,42.555C1.573,45.12,1.417,46.1,1.417,46.367Z" transform="translate(0 0)" fill="#ffc68d" stroke="#ffc68d" stroke-width="1"/>
          </g>
          <g id="Group_93-2" data-name="Group 93" transform="translate(27.02 28.277)">
            <rect id="Rectangle_12-2" data-name="Rectangle 12" width="1.415" height="5.226" transform="translate(0 1.001) rotate(-44.996)" fill="#ffc68d" stroke="#ffc68d" stroke-width="1"/>
          </g>
          <g id="Group_94-2" data-name="Group 94" transform="translate(40.255 34.99)">
            <rect id="Rectangle_13-2" data-name="Rectangle 13" width="1.416" height="5.303" transform="translate(0 1.001) rotate(-44.993)" fill="#ffc68d" stroke="#ffc68d" stroke-width="1"/>
          </g>
          <g id="Group_95-2" data-name="Group 95" transform="translate(29.41 37.191)">
            <rect id="Rectangle_14-2" data-name="Rectangle 14" width="1.416" height="5.228" transform="matrix(0.707, -0.707, 0.707, 0.707, 0, 1.001)" fill="#ffc68d" stroke="#ffc68d" stroke-width="1"/>
          </g>
          <g id="Group_96-2" data-name="Group 96" transform="translate(18.758 41.758)">
            <rect id="Rectangle_15-2" data-name="Rectangle 15" width="1.416" height="4.302" transform="translate(0 1.001) rotate(-44.991)" fill="#ffc68d" stroke="#ffc68d" stroke-width="1"/>
          </g>
          <g id="Group_97-2" data-name="Group 97" transform="translate(18.758 52.194)">
            <rect id="Rectangle_16-2" data-name="Rectangle 16" width="1.416" height="4.919" transform="translate(0 1.001) rotate(-44.989)" fill="#ffc68d" stroke="#ffc68d" stroke-width="1"/>
          </g>
          <g id="Group_98-2" data-name="Group 98" transform="translate(8.579 54.626)">
            <rect id="Rectangle_17-2" data-name="Rectangle 17" width="1.416" height="3.497" transform="matrix(0.707, -0.707, 0.707, 0.707, 0, 1.001)" fill="#ffc68d" stroke="#ffc68d" stroke-width="1"/>
          </g>
          <g id="Group_99-2" data-name="Group 99" transform="translate(27.263 44.611)">
            <rect id="Rectangle_18-2" data-name="Rectangle 18" width="1.416" height="4.228" transform="translate(0 1.001) rotate(-44.991)" fill="#ffc68d" stroke="#ffc68d" stroke-width="1"/>
          </g>
        </g>
        <g id="Group_101-2" data-name="Group 101" transform="translate(26.782 36.7)">
          <path id="Path_382-2" data-name="Path 382" d="M4.428,8.855A4.428,4.428,0,1,1,8.854,4.428,4.433,4.433,0,0,1,4.428,8.855Zm0-7.44A3.012,3.012,0,1,0,7.439,4.428,3.015,3.015,0,0,0,4.428,1.416Z" fill="#ffc68d" stroke="#ffc68d" stroke-width="1"/>
        </g>
        <g id="Group_102-2" data-name="Group 102" transform="translate(21.078 48.851)">
          <path id="Path_383-2" data-name="Path 383" d="M4.428,8.855A4.428,4.428,0,1,1,8.855,4.427,4.432,4.432,0,0,1,4.428,8.855Zm0-7.439A3.012,3.012,0,1,0,7.439,4.427,3.015,3.015,0,0,0,4.428,1.416Z" fill="#ffc68d" stroke="#ffc68d" stroke-width="1"/>
        </g>
        <g id="Group_103-2" data-name="Group 103" transform="translate(37.94 28.021)">
          <path id="Path_384-2" data-name="Path 384" d="M4.427,8.854A4.427,4.427,0,1,1,8.855,4.428,4.432,4.432,0,0,1,4.427,8.854Zm0-7.439A3.012,3.012,0,1,0,7.439,4.428,3.015,3.015,0,0,0,4.427,1.416Z" fill="#ffc68d" stroke="#ffc68d" stroke-width="1"/>
        </g>
        <g id="Group_104-2" data-name="Group 104" transform="translate(15.127 37.94)">
          <path id="Path_385-2" data-name="Path 385" d="M4.427,8.855A4.427,4.427,0,1,1,8.855,4.428,4.432,4.432,0,0,1,4.427,8.855Zm0-7.439A3.012,3.012,0,1,0,7.439,4.428,3.015,3.015,0,0,0,4.427,1.416Z" transform="translate(0 0)" fill="#ffc68d" stroke="#ffc68d" stroke-width="1"/>
        </g>
        <g id="Group_105-2" data-name="Group 105" transform="translate(27.029 24.549)">
          <path id="Path_386-2" data-name="Path 386" d="M4.428,8.855A4.428,4.428,0,1,1,8.855,4.428,4.433,4.433,0,0,1,4.428,8.855Zm0-7.44A3.012,3.012,0,1,0,7.439,4.428,3.016,3.016,0,0,0,4.428,1.416Z" transform="translate(0 0)" fill="#ffc68d" stroke="#ffc68d" stroke-width="1"/>
        </g>
        <g id="Group_106-2" data-name="Group 106" transform="translate(35.709 15.622)">
          <path id="Path_387-2" data-name="Path 387" d="M4.428,8.855A4.427,4.427,0,1,1,8.855,4.428,4.432,4.432,0,0,1,4.428,8.855Zm0-7.439A3.012,3.012,0,1,0,7.439,4.428,3.015,3.015,0,0,0,4.428,1.416Z" fill="#ffc68d" stroke="#ffc68d" stroke-width="1"/>
        </g>
      </g>
      <g id="Group_237" data-name="Group 237" transform="translate(264.072 197.177)">
        <g id="Group_137" data-name="Group 137">
          <g id="Group_131" data-name="Group 131">
            <path id="Path_407" data-name="Path 407" d="M1697.243,837.872a24.309,24.309,0,1,1,24.309-24.31A24.335,24.335,0,0,1,1697.243,837.872Zm0-46.439a22.129,22.129,0,1,0,22.129,22.129A22.153,22.153,0,0,0,1697.243,791.433Z" transform="translate(-1672.936 -789.253)" fill="#ffc68d" stroke="#ffc68d" stroke-width="1"/>
          </g>
          <g id="Group_132" data-name="Group 132" transform="translate(6.795 6.797)">
            <path id="Path_408" data-name="Path 408" d="M1699.8,833.632a17.513,17.513,0,1,1,17.513-17.514A17.534,17.534,0,0,1,1699.8,833.632Zm0-32.846a15.333,15.333,0,1,0,15.333,15.332A15.35,15.35,0,0,0,1699.8,800.786Z" transform="translate(-1682.286 -798.606)" fill="#ffc68d" stroke="#ffc68d" stroke-width="1"/>
          </g>
          <g id="Group_133" data-name="Group 133" transform="translate(23.218 8.011)">
            <rect id="Rectangle_22" data-name="Rectangle 22" width="2.18" height="32.47" fill="#ffc68d" stroke="#ffc68d" stroke-width="1"/>
          </g>
          <g id="Group_134" data-name="Group 134" transform="translate(8.074 23.156)">
            <rect id="Rectangle_23" data-name="Rectangle 23" width="32.469" height="2.18" fill="#ffc68d" stroke="#ffc68d" stroke-width="1"/>
          </g>
          <g id="Group_135" data-name="Group 135" transform="translate(12.059 11.996)">
            <rect id="Rectangle_24" data-name="Rectangle 24" width="32.468" height="2.18" transform="translate(0 22.958) rotate(-45)" fill="#ffc68d" stroke="#ffc68d" stroke-width="1"/>
          </g>
          <g id="Group_136" data-name="Group 136" transform="translate(12.06 11.995)">
            <rect id="Rectangle_25" data-name="Rectangle 25" width="2.18" height="32.468" transform="translate(0 1.541) rotate(-44.994)" fill="#ffc68d" stroke="#ffc68d" stroke-width="1"/>
          </g>
        </g>
      </g>
      <g id="Group_240" data-name="Group 240" transform="matrix(0.53, -0.848, 0.848, 0.53, 0, 160.066)">
        <g id="Group_169" data-name="Group 169" transform="translate(18.1 0)">
          <path id="Path_434" data-name="Path 434" d="M7.661,11.727l-.5-1.711a4.2,4.2,0,0,0,.325-7.949A4.2,4.2,0,0,0,2.778,8.7L1.415,9.852a5.983,5.983,0,1,1,6.246,1.874Z" transform="translate(0)" fill="#ffc68d" stroke="#ffc68d" stroke-width="1"/>
        </g>
        <g id="Group_170" data-name="Group 170" transform="translate(26.791 0.121)">
          <path id="Path_435" data-name="Path 435" d="M8.682,31.391a8.311,8.311,0,0,1-8.2-6.93l1.758-.3a6.466,6.466,0,0,0,2.874,4.388,6.5,6.5,0,0,0,9.758-3.321l.256-.715.747.139a3.538,3.538,0,0,0,2.793-6.3l-.536-.408.245-.627a6.542,6.542,0,0,0-1.515-7.068L16.4,9.794l.29-.581a3.534,3.534,0,0,0-5.566-4.179l-.477.441-.566-.319a5.309,5.309,0,0,0-1.65-.623l-.483-.087-.184-.454A3.528,3.528,0,0,0,6.416,2.354,3.567,3.567,0,0,0,1.495,3.4L0,2.426A5.353,5.353,0,0,1,7.387.858,5.282,5.282,0,0,1,9.215,2.881a7.154,7.154,0,0,1,1.193.437,5.315,5.315,0,0,1,8.13,6.1,8.318,8.318,0,0,1,1.713,7.942,5.32,5.32,0,0,1-3.96,9.127,7.713,7.713,0,0,1-.586,1.1A8.359,8.359,0,0,1,8.682,31.391Z" transform="translate(0 0)" fill="#ffc68d" stroke="#ffc68d" stroke-width="1"/>
        </g>
        <g id="Group_171" data-name="Group 171" transform="translate(24.166 26.173)">
          <rect id="Rectangle_26" data-name="Rectangle 26" width="9.419" height="1.784" transform="translate(0 8.796) rotate(-69.032)" fill="#ffc68d" stroke="#ffc68d" stroke-width="1"/>
        </g>
        <g id="Group_172" data-name="Group 172" transform="translate(28.662 29.426)">
          <rect id="Rectangle_27" data-name="Rectangle 27" width="7.78" height="1.784" transform="translate(0 7.264) rotate(-69.021)" fill="#ffc68d" stroke="#ffc68d" stroke-width="1"/>
        </g>
        <g id="Group_173" data-name="Group 173" transform="translate(20.348 23.456)">
          <rect id="Rectangle_28" data-name="Rectangle 28" width="10.038" height="1.784" transform="translate(0 9.375) rotate(-69.049)" fill="#ffc68d" stroke="#ffc68d" stroke-width="1"/>
        </g>
        <g id="Group_174" data-name="Group 174" transform="translate(32.163 10.737)">
          <path id="Path_436" data-name="Path 436" d="M6.28,11.184,5.352,9.661A4.25,4.25,0,1,0,.929,2.4L0,.881a6.033,6.033,0,1,1,6.28,10.3Z" transform="translate(0 0)" fill="#ffc68d" stroke="#ffc68d" stroke-width="1"/>
        </g>
        <g id="Group_175" data-name="Group 175" transform="translate(13.938 8.246)">
          <path id="Path_437" data-name="Path 437" d="M6.033,17.858A6.034,6.034,0,0,1,.074,10.889,5.956,5.956,0,0,1,2.058,7.295a5.853,5.853,0,0,1-.08-2.2A6,6,0,0,1,7.931,0,6.01,6.01,0,0,1,13.9,5.3c.115.012.23.026.343.043a6.034,6.034,0,0,1-.925,11.995h0a6.126,6.126,0,0,1-.942-.074,5.93,5.93,0,0,1-2.369-.922A6.006,6.006,0,0,1,6.033,17.858Zm1.9-16.074a4.206,4.206,0,0,0-4.01,5.567l.205.627-.539.38a4.24,4.24,0,1,0,5.663,6.22l.588-.686.679.6A4.2,4.2,0,0,0,12.653,15.5a4.3,4.3,0,0,0,.668.053,4.25,4.25,0,0,0,.649-8.448,4.407,4.407,0,0,0-.874-.045l-.962.046.027-.963A4.229,4.229,0,0,0,7.931,1.784Z" transform="translate(0)" fill="#ffc68d" stroke="#ffc68d" stroke-width="1"/>
        </g>
        <g id="Group_176" data-name="Group 176" transform="translate(0 32.526)">
          <path id="Path_438" data-name="Path 438" d="M1.783,67.093A1.515,1.515,0,0,1,.6,66.527C.127,65.951-.4,64.669.461,60.2L10.21,9.741C11.335,3.915,15.88,0,21.52,0a12.937,12.937,0,0,1,4.635.884l.717.275a11.84,11.84,0,0,1,7.2,7.164A11.84,11.84,0,0,1,32.819,18.4L6.368,62.458C3.873,66.613,2.556,67.093,1.783,67.093ZM21.52,1.784c-4.76,0-8.6,3.334-9.559,8.295L2.213,60.534c-.614,3.173-.42,4.341-.3,4.709.336-.193,1.261-.932,2.925-3.7L31.29,17.484A10.093,10.093,0,0,0,32.383,8.9a10.09,10.09,0,0,0-6.149-6.079l-.718-.275A11.149,11.149,0,0,0,21.52,1.784Z" transform="translate(0 0)" fill="#ffc68d" stroke="#ffc68d" stroke-width="1"/>
        </g>
        <g id="Group_177" data-name="Group 177" transform="translate(10.242 43.865)">
          <rect id="Rectangle_29" data-name="Rectangle 29" width="1.785" height="5.929" transform="translate(0 1.666) rotate(-69.035)" fill="#ffc68d" stroke="#ffc68d" stroke-width="1"/>
        </g>
        <g id="Group_178" data-name="Group 178" transform="translate(27.059 44.704)">
          <rect id="Rectangle_30" data-name="Rectangle 30" width="1.784" height="6.016" transform="translate(0 1.666) rotate(-69.039)" fill="#ffc68d" stroke="#ffc68d" stroke-width="1"/>
        </g>
        <g id="Group_179" data-name="Group 179" transform="translate(16.84 51.997)">
          <rect id="Rectangle_31" data-name="Rectangle 31" width="1.784" height="5.931" transform="matrix(0.357, -0.934, 0.934, 0.357, 0, 1.666)" fill="#ffc68d" stroke="#ffc68d" stroke-width="1"/>
        </g>
        <g id="Group_180" data-name="Group 180" transform="translate(7.912 61.651)">
          <rect id="Rectangle_32" data-name="Rectangle 32" width="1.784" height="4.883" transform="translate(0 1.666) rotate(-69.027)" fill="#ffc68d" stroke="#ffc68d" stroke-width="1"/>
        </g>
        <g id="Group_181" data-name="Group 181" transform="translate(12.736 72.464)">
          <rect id="Rectangle_33" data-name="Rectangle 33" width="1.784" height="5.581" transform="translate(0 1.666) rotate(-69.032)" fill="#ffc68d" stroke="#ffc68d" stroke-width="1"/>
        </g>
        <g id="Group_182" data-name="Group 182" transform="translate(3.315 79.689)">
          <rect id="Rectangle_34" data-name="Rectangle 34" width="1.784" height="3.966" transform="translate(0 1.666) rotate(-69.041)" fill="#ffc68d" stroke="#ffc68d" stroke-width="1"/>
        </g>
        <g id="Group_183" data-name="Group 183" transform="translate(18.044 60.676)">
          <rect id="Rectangle_35" data-name="Rectangle 35" width="1.784" height="4.796" transform="translate(0 1.666) rotate(-69.032)" fill="#ffc68d" stroke="#ffc68d" stroke-width="1"/>
        </g>
      </g>
      <g id="Group_244" data-name="Group 244" transform="translate(19.189 49.999)">
        <g id="Group_187" data-name="Group 187">
          <g id="Group_186" data-name="Group 186">
            <g id="Group_185" data-name="Group 185">
              <path id="Path_439" data-name="Path 439" d="M1518.031,627.018a31.272,31.272,0,1,1,31.262-31.285A31.3,31.3,0,0,1,1518.031,627.018Zm0-60.759a29.488,29.488,0,1,0,29.478,29.475A29.505,29.505,0,0,0,1518.031,566.259Z" transform="translate(-1486.779 -564.475)" fill="#ffc68d" stroke="#ffc68d" stroke-width="1"/>
            </g>
          </g>
        </g>
        <g id="Group_190" data-name="Group 190" transform="translate(31.253 12.119)">
          <g id="Group_189" data-name="Group 189">
            <g id="Group_188" data-name="Group 188">
              <path id="Path_440" data-name="Path 440" d="M1539.335,629.908v-1.784a24.115,24.115,0,0,0,16.226-41.95l1.2-1.319a25.9,25.9,0,0,1-17.428,45.053Z" transform="translate(-1539.335 -584.855)" fill="#ffc68d" stroke="#ffc68d" stroke-width="1"/>
            </g>
          </g>
        </g>
        <g id="Group_191" data-name="Group 191" transform="translate(15.181 4.084)">
          <path id="Path_441" data-name="Path 441" d="M1523.268,596.378a.892.892,0,0,1-.816-.532l-2.644-5.995-6.513.709a.892.892,0,0,1-.815-1.414l3.869-5.286-3.869-5.287a.891.891,0,0,1,.815-1.413l6.512.709,2.644-6a.892.892,0,0,1,.816-.532h0a.891.891,0,0,1,.816.532l2.644,6,6.512-.709a.892.892,0,0,1,.816,1.413l-3.869,5.287,3.869,5.286a.892.892,0,0,1-.816,1.414l-6.512-.709-2.644,5.994A.891.891,0,0,1,1523.268,596.378ZM1520.362,588a.893.893,0,0,1,.816.532l2.09,4.741,2.09-4.741a.893.893,0,0,1,.913-.527l5.151.561-3.06-4.182a.889.889,0,0,1,0-1.053l3.06-4.181-5.151.561a.894.894,0,0,1-.913-.527l-2.09-4.742-2.09,4.742a.891.891,0,0,1-.913.527l-5.15-.561,3.061,4.181a.889.889,0,0,1,0,1.053l-3.061,4.182,5.15-.561C1520.3,588,1520.33,588,1520.362,588Z" transform="translate(-1512.307 -571.342)" fill="#ffc68d" stroke="#ffc68d" stroke-width="1"/>
        </g>
        <g id="Group_192" data-name="Group 192" transform="translate(25.087 3.641)">
          <path id="Path_442" data-name="Path 442" d="M1530.723,585.192l-1.756-.314a24.048,24.048,0,0,1,8.319-14.28l1.138,1.374A22.266,22.266,0,0,0,1530.723,585.192Z" transform="translate(-1528.967 -570.598)" fill="#ffc68d" stroke="#ffc68d" stroke-width="1"/>
        </g>
      </g>
      <g id="Group_238" data-name="Group 238" transform="translate(111.85 166.382)">
        <g id="Group_194" data-name="Group 194" transform="translate(15.583 4.656)">
          <path id="Path_443" data-name="Path 443" d="M1689.245,977.688a12.768,12.768,0,0,1,10.23-12.586l.268,1.327a11.412,11.412,0,0,0-9.144,11.248Z" transform="translate(-1689.244 -965.102)" fill="#ffc68d" stroke="#ffc68d" stroke-width="1"/>
        </g>
        <path id="Path_444" data-name="Path 444" d="M1673.682,1021.676a3.2,3.2,0,0,1-3.159,3.159h-2.585a9.105,9.105,0,0,1-5.843-2.65,21.084,21.084,0,0,1,0-27.15,9.111,9.111,0,0,1,5.843-2.651h2.585a3.2,3.2,0,0,1,3.159,3.159Z" transform="translate(-1656.052 -975.412)" fill="#ffc68d" stroke="#ffc68d" stroke-width="1"/>
        <g id="Group_195" data-name="Group 195" transform="translate(0.455 16.295)">
          <path id="Path_445" data-name="Path 445" d="M1669.765,1024.69h-2.6a9.814,9.814,0,0,1-6.353-2.884,21.893,21.893,0,0,1-.006-28.031,9.814,9.814,0,0,1,6.355-2.891h2.589a3.8,3.8,0,0,1,2.347.817l-.841,1.062a2.443,2.443,0,0,0-1.5-.525h-2.589a8.521,8.521,0,0,0-5.331,2.417,20.524,20.524,0,0,0,0,26.269,8.518,8.518,0,0,0,5.33,2.411h2.581a2.445,2.445,0,0,0,1.347-.408l.753,1.125A3.736,3.736,0,0,1,1669.765,1024.69Z" transform="translate(-1655.734 -990.884)" fill="#ffc68d" stroke="#ffc68d" stroke-width="1"/>
        </g>
        <g id="Group_196" data-name="Group 196" transform="translate(7.679 16.295)">
          <path id="Path_446" data-name="Path 446" d="M1687.7,1024.69h-4.528a9.806,9.806,0,0,1-6.354-2.884,21.892,21.892,0,0,1-.006-28.031,9.827,9.827,0,0,1,6.355-2.891h4.53a9.819,9.819,0,0,1,6.354,2.883,21.9,21.9,0,0,1,.005,28.033,9.819,9.819,0,0,1-6.354,2.89Zm-4.528-32.452a8.536,8.536,0,0,0-5.332,2.418,20.523,20.523,0,0,0,.007,26.27,8.508,8.508,0,0,0,5.328,2.41h4.52a8.526,8.526,0,0,0,5.334-2.417,20.524,20.524,0,0,0-.006-26.27,8.517,8.517,0,0,0-5.33-2.41Z" transform="translate(-1671.737 -990.884)" fill="#ffc68d" stroke="#ffc68d" stroke-width="1"/>
        </g>
        <g id="Group_197" data-name="Group 197" transform="translate(19.111 22.156)">
          <path id="Path_447" data-name="Path 447" d="M1697.06,1027.259V1025.9h4.494a4.663,4.663,0,0,0,1.923-.848,15.94,15.94,0,0,0-.019-20.318l1.036-.872a17.313,17.313,0,0,1,0,22.081,5.53,5.53,0,0,1-2.914,1.311Z" transform="translate(-1697.06 -1003.867)" fill="#ffc68d" stroke="#ffc68d" stroke-width="1"/>
        </g>
        <g id="Group_200" data-name="Group 200">
          <g id="Group_198" data-name="Group 198">
            <path id="Path_448" data-name="Path 448" d="M1668.792,969.567a14.26,14.26,0,0,1-8.95-3.661c-3.427-2.932-5.377-6.893-5.089-10.337l.039-.474.459-.124a5.348,5.348,0,0,1,1.391-.183,7.742,7.742,0,0,1,4.576,1.777l.314-1.033.7.307a16.334,16.334,0,0,1,4.037,2.555c3.427,2.932,5.376,6.892,5.089,10.335l-.041.486-.473.116A8.668,8.668,0,0,1,1668.792,969.567Zm-12.711-13.386c-.021,2.869,1.756,6.227,4.642,8.695a12.9,12.9,0,0,0,8.07,3.336,7.6,7.6,0,0,0,1.238-.1c.02-2.868-1.758-6.224-4.642-8.692a15.177,15.177,0,0,0-3.01-2.017l-.507,1.669-.8-.84a7.163,7.163,0,0,0-4.429-2.092A3.99,3.99,0,0,0,1656.081,956.182Z" transform="translate(-1654.725 -954.788)" fill="#ffc68d" stroke="#ffc68d" stroke-width="1"/>
          </g>
          <g id="Group_199" data-name="Group 199" transform="translate(7.078 6.102)">
            <rect id="Rectangle_36" data-name="Rectangle 36" width="1.354" height="11.291" transform="matrix(0.65, -0.76, 0.76, 0.65, 0, 1.029)" fill="#ffc68d" stroke="#ffc68d" stroke-width="1"/>
          </g>
        </g>
      </g>
      <g id="Group_209" data-name="Group 209" transform="translate(312.688 140.191)">
        <g id="Group_202" data-name="Group 202" transform="translate(0 2.914)">
          <path id="Path_449" data-name="Path 449" d="M2050.083,204.8a27.643,27.643,0,0,1-9.907-1.823.893.893,0,0,1-.462-.4,28.108,28.108,0,0,1,24.654-41.546,27.626,27.626,0,0,1,9.9,1.82.9.9,0,0,1,.463.4,28.1,28.1,0,0,1-24.646,41.549Zm-8.963-3.374a25.884,25.884,0,0,0,8.963,1.59,26.322,26.322,0,0,0,23.24-38.616,25.85,25.85,0,0,0-8.955-1.588,26.326,26.326,0,0,0-23.248,38.614Z" transform="translate(-2036.286 -161.031)" fill="#ffc68d" stroke="#ffc68d" stroke-width="1"/>
        </g>
        <g id="Group_203" data-name="Group 203" transform="translate(3.317 5.838)">
          <path id="Path_450" data-name="Path 450" d="M2042.755,205.032a.892.892,0,0,1-.673-1.477l32.448-37.3a.892.892,0,0,1,1.346,1.171l-32.448,37.3A.892.892,0,0,1,2042.755,205.032Z" transform="translate(-2041.864 -165.947)" fill="#ffc68d" stroke="#ffc68d" stroke-width="1"/>
        </g>
        <g id="Group_204" data-name="Group 204" transform="translate(36.844)">
          <path id="Path_451" data-name="Path 451" d="M2099.137,162.511a.892.892,0,0,1-.673-1.477l4-4.6a.892.892,0,0,1,1.345,1.171l-4,4.6A.89.89,0,0,1,2099.137,162.511Z" transform="translate(-2098.244 -156.131)" fill="#ffc68d" stroke="#ffc68d" stroke-width="1"/>
        </g>
        <g id="Group_205" data-name="Group 205" transform="translate(19.199 25.899)">
          <path id="Path_452" data-name="Path 452" d="M2071.284,218.016a.892.892,0,0,1-.885-.794l-1.82-16.548a.892.892,0,1,1,1.773-.194l1.82,16.546a.892.892,0,0,1-.789.984A.91.91,0,0,1,2071.284,218.016Z" transform="translate(-2068.573 -199.684)" fill="#ffc68d" stroke="#ffc68d" stroke-width="1"/>
        </g>
        <g id="Group_206" data-name="Group 206" transform="translate(29.979 13.394)">
          <path id="Path_453" data-name="Path 453" d="M2090.052,202.836a.892.892,0,0,1-.885-.8l-2.46-22.4a.892.892,0,1,1,1.773-.2l2.46,22.4a.892.892,0,0,1-.789.984A.91.91,0,0,1,2090.052,202.836Z" transform="translate(-2086.701 -178.654)" fill="#ffc68d" stroke="#ffc68d" stroke-width="1"/>
        </g>
        <g id="Group_207" data-name="Group 207" transform="translate(1.553 25.02)">
          <path id="Path_454" data-name="Path 454" d="M2039.79,200.484a.892.892,0,0,1-.026-1.783l16.643-.495a.892.892,0,1,1,.053,1.783l-16.643.495Z" transform="translate(-2038.898 -198.205)" fill="#ffc68d" stroke="#ffc68d" stroke-width="1"/>
        </g>
        <g id="Group_208" data-name="Group 208" transform="translate(6.563 12.618)">
          <path id="Path_455" data-name="Path 455" d="M2048.215,179.793a.892.892,0,0,1-.026-1.784l22.52-.66a.892.892,0,1,1,.052,1.783l-22.519.66Z" transform="translate(-2047.323 -177.349)" fill="#ffc68d" stroke="#ffc68d" stroke-width="1"/>
        </g>
      </g>
      <g id="Group_212" data-name="Group 212" transform="translate(328.72 208.189)">
        <g id="Group_210" data-name="Group 210">
          <path id="Path_456" data-name="Path 456" d="M2063.071,263.694h0a23.305,23.305,0,0,1-8.09-1.35.892.892,0,0,1-.485-1.245c2.76-5.363,8.29-9.972,15.168-12.646a32.515,32.515,0,0,1,11.637-2.269,23.3,23.3,0,0,1,8.092,1.35.892.892,0,0,1,.484,1.245c-2.76,5.363-8.289,9.972-15.169,12.646A32.513,32.513,0,0,1,2063.071,263.694ZM2056.584,261a22.212,22.212,0,0,0,6.485.907h0a30.719,30.719,0,0,0,10.99-2.147c6.08-2.363,11.022-6.3,13.726-10.888a22.2,22.2,0,0,0-6.486-.907,30.719,30.719,0,0,0-10.99,2.147C2064.23,252.478,2059.288,256.411,2056.584,261Z" transform="translate(-2054.396 -246.184)" fill="#ffc68d" stroke="#ffc68d" stroke-width="1"/>
        </g>
        <g id="Group_211" data-name="Group 211" transform="translate(1.724 1.322)">
          <path id="Path_457" data-name="Path 457" d="M2058.189,262.63a.892.892,0,0,1-.324-1.723l32-12.439a.892.892,0,1,1,.646,1.663l-32,12.439A.889.889,0,0,1,2058.189,262.63Z" transform="translate(-2057.296 -248.406)" fill="#ffc68d" stroke="#ffc68d" stroke-width="1"/>
        </g>
      </g>
      <g id="Group_215" data-name="Group 215" transform="translate(317.468 244.022)">
        <g id="Group_213" data-name="Group 213">
          <path id="Path_458" data-name="Path 458" d="M2047.622,322.755h0c-7.352,0-15.335-2.556-22.481-7.2-8.667-5.626-14.928-13.511-17.179-21.634a.892.892,0,0,1,.728-1.12,28.813,28.813,0,0,1,4.27-.31c7.351,0,15.334,2.556,22.48,7.2,8.668,5.627,14.929,13.511,17.177,21.632a.892.892,0,0,1-.727,1.12A28.871,28.871,0,0,1,2047.622,322.755Zm-37.646-28.318c2.357,7.359,8.185,14.464,16.136,19.626,6.86,4.455,14.5,6.908,21.509,6.908h0a27.775,27.775,0,0,0,2.98-.157c-2.355-7.358-8.182-14.462-16.133-19.624-6.862-4.457-14.5-6.911-21.51-6.911A27.664,27.664,0,0,0,2009.975,294.437Z" transform="translate(-2007.928 -292.495)" fill="#ffc68d" stroke="#ffc68d" stroke-width="1"/>
        </g>
        <g id="Group_214" data-name="Group 214" transform="translate(2.19 1.722)">
          <path id="Path_459" data-name="Path 459" d="M2053.161,323.574a.885.885,0,0,1-.485-.144l-40.659-26.4a.892.892,0,0,1,.972-1.5l40.658,26.4a.892.892,0,0,1-.487,1.641Z" transform="translate(-2011.612 -295.392)" fill="#ffc68d" stroke="#ffc68d" stroke-width="1"/>
        </g>
      </g>
      <g id="Group_218" data-name="Group 218" transform="translate(26.026 211.434)">
        <g id="Group_216" data-name="Group 216">
          <path id="Path_460" data-name="Path 460" d="M1561.363,270.917h0c-8.1,0-16.892-2.838-24.758-7.991-9.481-6.206-16.313-14.88-18.744-23.795a.892.892,0,0,1,.731-1.117,31.563,31.563,0,0,1,4.545-.321c8.1,0,16.889,2.838,24.758,7.991,9.481,6.208,16.312,14.881,18.744,23.795a.892.892,0,0,1-.731,1.117A31.625,31.625,0,0,1,1561.363,270.917Zm-41.494-31.267c2.542,8.153,8.944,16.044,17.711,21.784,7.579,4.964,16.025,7.7,23.782,7.7h0a30.537,30.537,0,0,0,3.265-.172c-2.543-8.151-8.945-16.043-17.711-21.784-7.582-4.965-16.028-7.7-23.781-7.7A30.557,30.557,0,0,0,1519.87,239.649Z" transform="translate(-1517.829 -237.693)" fill="#ffc68d" stroke="#ffc68d" stroke-width="1"/>
        </g>
        <g id="Group_217" data-name="Group 217" transform="translate(0.096 0.376)">
          <path id="Path_461" data-name="Path 461" d="M1563.441,269.288a.889.889,0,0,1-.488-.146l-44.56-29.179a.892.892,0,1,1,.978-1.493l44.56,29.179a.892.892,0,0,1-.49,1.638Z" transform="translate(-1517.989 -238.325)" fill="#ffc68d" stroke="#ffc68d" stroke-width="1"/>
        </g>
      </g>
      <g id="Group_221" data-name="Group 221" transform="translate(8.988 245.796)">
        <g id="Group_219" data-name="Group 219">
          <path id="Path_462" data-name="Path 462" d="M1495.857,323.942h0a29.783,29.783,0,0,1-5.967-.582.891.891,0,0,1-.667-1.157c2.678-7.99,9.349-15.531,18.3-20.689a43.293,43.293,0,0,1,21.113-6.037,29.788,29.788,0,0,1,5.967.582.891.891,0,0,1,.667,1.157c-2.677,7.992-9.348,15.532-18.3,20.689A43.288,43.288,0,0,1,1495.857,323.942Zm-4.594-2.143a28.674,28.674,0,0,0,4.594.359,41.475,41.475,0,0,0,20.22-5.8c8.217-4.731,14.414-11.515,17.157-18.738a28.7,28.7,0,0,0-4.6-.359,41.48,41.48,0,0,0-20.222,5.8C1500.2,307.792,1494.006,314.576,1491.263,321.8Z" transform="translate(-1489.177 -295.477)" fill="#ffc68d" stroke="#ffc68d" stroke-width="1"/>
        </g>
        <g id="Group_220" data-name="Group 220" transform="translate(0.09 1.866)">
          <path id="Path_463" data-name="Path 463" d="M1490.221,324.6a.892.892,0,0,1-.446-1.665l42-24.2a.892.892,0,1,1,.891,1.546l-42,24.2A.889.889,0,0,1,1490.221,324.6Z" transform="translate(-1489.328 -298.615)" fill="#ffc68d" stroke="#ffc68d" stroke-width="1"/>
        </g>
      </g>
      <g id="Group_224" data-name="Group 224" transform="translate(47.076 264.963)">
        <g id="Group_222" data-name="Group 222">
          <path id="Path_464" data-name="Path 464" d="M1556.545,358.808a.933.933,0,0,1-.184-.018.9.9,0,0,1-.592-.432c-2.486-4.361-3.19-10.305-1.932-16.308s4.287-11.167,8.316-14.163a.892.892,0,0,1,1.307.274c2.486,4.36,3.191,10.3,1.933,16.307s-4.29,11.171-8.317,14.164A.887.887,0,0,1,1556.545,358.808Zm5.853-28.834a24.424,24.424,0,0,0-5.566,26.572,24.422,24.422,0,0,0,5.566-26.572Z" transform="translate(-1553.227 -327.71)" fill="#ffc68d" stroke="#ffc68d" stroke-width="1"/>
        </g>
        <g id="Group_223" data-name="Group 223" transform="translate(2.439 1.495)">
          <path id="Path_465" data-name="Path 465" d="M1558.221,359.767a.892.892,0,0,1-.873-1.075l5.814-27.76a.892.892,0,0,1,1.746.366l-5.814,27.76A.892.892,0,0,1,1558.221,359.767Z" transform="translate(-1557.328 -330.224)" fill="#ffc68d" stroke="#ffc68d" stroke-width="1"/>
        </g>
      </g>
      <g id="Group_232" data-name="Group 232" transform="translate(297.114 278.296)">
        <g id="Group_225" data-name="Group 225" transform="translate(5.362)">
          <path id="Path_466" data-name="Path 466" d="M2010.831,389.4a28.121,28.121,0,0,1-27.932-31.187.9.9,0,0,1,.275-.548,28.083,28.083,0,0,1,47.037,23.657.891.891,0,0,1-.276.548A27.8,27.8,0,0,1,2010.831,389.4Zm-26.2-30.656a26.34,26.34,0,0,0,26.2,28.872,26.029,26.029,0,0,0,17.644-6.825,26.343,26.343,0,0,0-26.189-28.88A26.03,26.03,0,0,0,1984.635,358.747Z" transform="translate(-1982.717 -350.131)" fill="#ffc68d" stroke="#ffc68d" stroke-width="1"/>
        </g>
        <g id="Group_226" data-name="Group 226" transform="translate(6.913 7.982)">
          <path id="Path_467" data-name="Path 467" d="M2030.381,387.556a.889.889,0,0,1-.4-.1l-44.165-22.217a.892.892,0,0,1,.8-1.593l44.166,22.217a.892.892,0,0,1-.4,1.689Z" transform="translate(-1985.325 -363.554)" fill="#ffc68d" stroke="#ffc68d" stroke-width="1"/>
        </g>
        <g id="Group_227" data-name="Group 227" transform="translate(0 4.503)">
          <path id="Path_468" data-name="Path 468" d="M1980.034,362.228a.88.88,0,0,1-.4-.1l-5.444-2.74a.892.892,0,0,1,.8-1.594l5.443,2.741a.892.892,0,0,1-.4,1.689Z" transform="translate(-1973.699 -357.703)" fill="#ffc68d" stroke="#ffc68d" stroke-width="1"/>
        </g>
        <g id="Group_228" data-name="Group 228" transform="translate(30.448 13.218)">
          <path id="Path_469" data-name="Path 469" d="M2025.793,380a.892.892,0,0,1-.314-1.727l15.584-5.855a.892.892,0,1,1,.627,1.67l-15.583,5.856A.9.9,0,0,1,2025.793,380Z" transform="translate(-2024.901 -372.358)" fill="#ffc68d" stroke="#ffc68d" stroke-width="1"/>
        </g>
        <g id="Group_229" data-name="Group 229" transform="translate(15.665 3.798)">
          <path id="Path_470" data-name="Path 470" d="M2000.934,366.224a.892.892,0,0,1-.313-1.727l21.095-7.921a.892.892,0,0,1,.628,1.67l-21.1,7.922A.892.892,0,0,1,2000.934,366.224Z" transform="translate(-2000.042 -356.518)" fill="#ffc68d" stroke="#ffc68d" stroke-width="1"/>
        </g>
        <g id="Group_230" data-name="Group 230" transform="translate(29.844 20.263)">
          <path id="Path_471" data-name="Path 471" d="M2029.372,401.993a.891.891,0,0,1-.857-.646l-4.6-16a.892.892,0,0,1,1.715-.493l4.595,16a.893.893,0,0,1-.611,1.1A.884.884,0,0,1,2029.372,401.993Z" transform="translate(-2023.885 -384.205)" fill="#ffc68d" stroke="#ffc68d" stroke-width="1"/>
        </g>
        <g id="Group_231" data-name="Group 231" transform="translate(15.135 12.78)">
          <path id="Path_472" data-name="Path 472" d="M2006.25,395.064a.891.891,0,0,1-.856-.647l-6.208-21.657a.892.892,0,0,1,1.715-.492l6.207,21.657a.892.892,0,0,1-.611,1.1A.881.881,0,0,1,2006.25,395.064Z" transform="translate(-1999.151 -371.623)" fill="#ffc68d" stroke="#ffc68d" stroke-width="1"/>
        </g>
      </g>
    </g>
    <g id="Group_246" data-name="Group 246" transform="translate(83.452 218.219)">
      <g id="Group_141" data-name="Group 141" transform="translate(0 15.962)">
        <g id="Group_140" data-name="Group 140">
          <g id="Group_139" data-name="Group 139">
            <path id="Path_409" data-name="Path 409" d="M1546.3,484.787a29.3,29.3,0,0,1-19.788-50.831l1,1.084a27.826,27.826,0,1,0,33.352-3.236,27.554,27.554,0,0,0-21.794-3.132l-.385-1.422a29.275,29.275,0,1,1,14.5,56.719A29.5,29.5,0,0,1,1546.3,484.787Z" transform="translate(-1517.071 -426.213)" fill="#ffc68d" stroke="#ffc68d" stroke-width="1"/>
          </g>
        </g>
      </g>
      <g id="Group_144" data-name="Group 144" transform="translate(4.876)">
        <g id="Group_142" data-name="Group 142">
          <path id="Path_410" data-name="Path 410" d="M1539.156,424.646a.738.738,0,0,1-.36-.094,24.168,24.168,0,0,1-3.046-2c-9.02-7.013-11.472-19-5.465-26.732a15.4,15.4,0,0,1,1.789-1.9.739.739,0,0,1,.857-.1,24.054,24.054,0,0,1,3.046,2.005c9.021,7.015,11.473,19.007,5.467,26.731a15.331,15.331,0,0,1-1.791,1.9A.738.738,0,0,1,1539.156,424.646Zm-6.478-29.275a12.887,12.887,0,0,0-1.23,1.351c-5.506,7.084-3.17,18.148,5.208,24.662a22,22,0,0,0,2.4,1.615,12.837,12.837,0,0,0,1.23-1.351c5.507-7.082,3.17-18.146-5.209-24.662A22.15,22.15,0,0,0,1532.678,395.372Z" transform="translate(-1526.995 -393.725)" fill="#ffc68d" stroke="#ffc68d" stroke-width="1"/>
        </g>
        <g id="Group_143" data-name="Group 143" transform="translate(4.81 0)">
          <path id="Path_411" data-name="Path 411" d="M1544.165,424.618a.737.737,0,0,1-.687-.468c-3.822-9.765-6.574-21.956-6.693-29.648a.736.736,0,0,1,.192-.508,1.208,1.208,0,0,1,.127-.119.739.739,0,0,1,.806-.057,24.068,24.068,0,0,1,3.045,2.005c9.021,7.015,11.473,19.007,5.467,26.731a15.236,15.236,0,0,1-1.762,1.871A.737.737,0,0,1,1544.165,424.618Zm-5.864-28.854c.362,7.278,2.8,17.921,6.152,26.812a11.832,11.832,0,0,0,.807-.927c5.507-7.081,3.171-18.145-5.208-24.662C1539.509,396.564,1538.923,396.155,1538.3,395.763Z" transform="translate(-1536.785 -393.725)" fill="#ffc68d" stroke="#ffc68d" stroke-width="1"/>
        </g>
      </g>
      <g id="Group_147" data-name="Group 147" transform="translate(16.552 23.382)">
        <g id="Group_145" data-name="Group 145">
          <path id="Path_412" data-name="Path 412" d="M1560.409,453.335a11.4,11.4,0,0,1-8.4-3.46,10.681,10.681,0,0,1-1.124-1.437.737.737,0,0,1,.032-.86,16.274,16.274,0,0,1,1.69-1.874,15.569,15.569,0,0,1,10.531-4.388,11.41,11.41,0,0,1,8.4,3.459,10.933,10.933,0,0,1,1.124,1.433.738.738,0,0,1-.032.863,16.835,16.835,0,0,1-1.691,1.875A15.576,15.576,0,0,1,1560.409,453.335Zm-7.993-5.273a8.258,8.258,0,0,0,.661.8,9.943,9.943,0,0,0,7.331,3,14.091,14.091,0,0,0,9.518-3.985,15.043,15.043,0,0,0,1.2-1.29,8.656,8.656,0,0,0-.662-.8,9.952,9.952,0,0,0-7.333-3,14.087,14.087,0,0,0-9.518,3.985A14.316,14.316,0,0,0,1552.416,448.062Z" transform="translate(-1550.759 -441.315)" fill="#ffc68d" stroke="#ffc68d" stroke-width="1"/>
        </g>
        <g id="Group_146" data-name="Group 146" transform="translate(0.017 4.251)">
          <path id="Path_413" data-name="Path 413" d="M1560.426,457.736a11.405,11.405,0,0,1-8.4-3.46,10.811,10.811,0,0,1-1.105-1.411.737.737,0,0,1,.45-1.129,75.6,75.6,0,0,1,15.681-1.769,38.3,38.3,0,0,1,5.1.3.732.732,0,0,1,.394.184.862.862,0,0,1,.082.087.737.737,0,0,1,.023.934,16.866,16.866,0,0,1-1.69,1.875A15.577,15.577,0,0,1,1560.426,457.736Zm-7.622-4.8q.145.174.292.329a9.942,9.942,0,0,0,7.331,3,14.09,14.09,0,0,0,9.518-3.985c.234-.222.461-.453.684-.7-1.076-.093-2.275-.14-3.579-.14A74.261,74.261,0,0,0,1552.8,452.935Z" transform="translate(-1550.793 -449.967)" fill="#ffc68d" stroke="#ffc68d" stroke-width="1"/>
        </g>
      </g>
      <g id="Group_148" data-name="Group 148" transform="translate(6.301 35.669)">
        <path id="Path_414" data-name="Path 414" d="M1530.632,468.363a.737.737,0,0,1-.628-1.122l.347-.566a.737.737,0,1,1,1.257.77l-.347.566A.737.737,0,0,1,1530.632,468.363Z" transform="translate(-1529.895 -466.323)" fill="#ffc68d" stroke="#ffc68d" stroke-width="1"/>
      </g>
      <g id="Group_149" data-name="Group 149" transform="translate(10.956 35.925)">
        <path id="Path_415" data-name="Path 415" d="M1540.108,468.884a.737.737,0,0,1-.628-1.122l.347-.566a.737.737,0,0,1,1.257.77l-.347.567A.737.737,0,0,1,1540.108,468.884Z" transform="translate(-1539.372 -466.843)" fill="#ffc68d" stroke="#ffc68d" stroke-width="1"/>
      </g>
      <g id="Group_150" data-name="Group 150" transform="translate(8.642 39.702)">
        <path id="Path_416" data-name="Path 416" d="M1535.4,476.57a.737.737,0,0,1-.627-1.122l.347-.566a.737.737,0,0,1,1.257.77l-.347.566A.737.737,0,0,1,1535.4,476.57Z" transform="translate(-1534.66 -474.53)" fill="#ffc68d" stroke="#ffc68d" stroke-width="1"/>
      </g>
      <g id="Group_151" data-name="Group 151" transform="translate(6.327 43.477)">
        <path id="Path_417" data-name="Path 417" d="M1530.686,484.255a.738.738,0,0,1-.628-1.123l.348-.567a.737.737,0,0,1,1.257.77l-.348.566A.737.737,0,0,1,1530.686,484.255Z" transform="translate(-1529.95 -482.214)" fill="#ffc68d" stroke="#ffc68d" stroke-width="1"/>
      </g>
      <g id="Group_152" data-name="Group 152" transform="translate(13.533 40.102)">
        <path id="Path_418" data-name="Path 418" d="M1545.35,477.385a.737.737,0,0,1-.627-1.122l.347-.566a.737.737,0,0,1,1.257.77l-.347.566A.737.737,0,0,1,1545.35,477.385Z" transform="translate(-1544.615 -475.344)" fill="#ffc68d" stroke="#ffc68d" stroke-width="1"/>
      </g>
      <g id="Group_153" data-name="Group 153" transform="translate(11.217 43.878)">
        <path id="Path_419" data-name="Path 419" d="M1540.639,485.071a.737.737,0,0,1-.628-1.122l.348-.567a.737.737,0,0,1,1.257.771l-.348.567A.737.737,0,0,1,1540.639,485.071Z" transform="translate(-1539.902 -483.03)" fill="#ffc68d" stroke="#ffc68d" stroke-width="1"/>
      </g>
      <g id="Group_154" data-name="Group 154" transform="translate(8.904 47.654)">
        <path id="Path_420" data-name="Path 420" d="M1535.929,492.756a.737.737,0,0,1-.628-1.122l.347-.567a.737.737,0,0,1,1.257.77l-.347.566A.738.738,0,0,1,1535.929,492.756Z" transform="translate(-1535.193 -490.716)" fill="#ffc68d" stroke="#ffc68d" stroke-width="1"/>
      </g>
      <g id="Group_155" data-name="Group 155" transform="translate(6.589 51.431)">
        <path id="Path_421" data-name="Path 421" d="M1531.218,500.443a.738.738,0,0,1-.628-1.123l.347-.566a.737.737,0,0,1,1.257.77l-.347.567A.737.737,0,0,1,1531.218,500.443Z" transform="translate(-1530.482 -498.402)" fill="#ffc68d" stroke="#ffc68d" stroke-width="1"/>
      </g>
      <g id="Group_156" data-name="Group 156" transform="translate(13.561 47.911)">
        <path id="Path_422" data-name="Path 422" d="M1545.409,493.279a.737.737,0,0,1-.627-1.122l.347-.567a.737.737,0,1,1,1.256.769l-.347.567A.736.736,0,0,1,1545.409,493.279Z" transform="translate(-1544.673 -491.238)" fill="#ffc68d" stroke="#ffc68d" stroke-width="1"/>
      </g>
      <g id="Group_157" data-name="Group 157" transform="translate(11.247 51.687)">
        <path id="Path_423" data-name="Path 423" d="M1540.7,500.966a.737.737,0,0,1-.628-1.122l.347-.567a.737.737,0,1,1,1.257.769l-.347.566A.737.737,0,0,1,1540.7,500.966Z" transform="translate(-1539.962 -498.925)" fill="#ffc68d" stroke="#ffc68d" stroke-width="1"/>
      </g>
      <g id="Group_158" data-name="Group 158" transform="translate(8.931 55.464)">
        <path id="Path_424" data-name="Path 424" d="M1535.986,508.651a.737.737,0,0,1-.627-1.122l.347-.567a.737.737,0,0,1,1.257.77l-.347.566A.737.737,0,0,1,1535.986,508.651Z" transform="translate(-1535.25 -506.611)" fill="#ffc68d" stroke="#ffc68d" stroke-width="1"/>
      </g>
      <g id="Group_159" data-name="Group 159" transform="translate(16.136 52.087)">
        <path id="Path_425" data-name="Path 425" d="M1550.649,501.779a.737.737,0,0,1-.627-1.123l.347-.566a.737.737,0,1,1,1.257.771l-.348.566A.736.736,0,0,1,1550.649,501.779Z" transform="translate(-1549.913 -499.738)" fill="#ffc68d" stroke="#ffc68d" stroke-width="1"/>
      </g>
      <g id="Group_160" data-name="Group 160" transform="translate(13.821 55.863)">
        <path id="Path_426" data-name="Path 426" d="M1545.938,509.465a.73.73,0,0,1-.385-.109.737.737,0,0,1-.243-1.014l.348-.567a.737.737,0,0,1,1.256.77l-.347.567A.738.738,0,0,1,1545.938,509.465Z" transform="translate(-1545.202 -507.425)" fill="#ffc68d" stroke="#ffc68d" stroke-width="1"/>
      </g>
      <g id="Group_161" data-name="Group 161" transform="translate(11.507 59.64)">
        <path id="Path_427" data-name="Path 427" d="M1541.228,517.152a.737.737,0,0,1-.627-1.122l.346-.566a.737.737,0,0,1,1.257.769l-.348.566A.736.736,0,0,1,1541.228,517.152Z" transform="translate(-1540.491 -515.111)" fill="#ffc68d" stroke="#ffc68d" stroke-width="1"/>
      </g>
      <g id="Group_162" data-name="Group 162" transform="translate(18.479 56.12)">
        <path id="Path_428" data-name="Path 428" d="M1555.419,509.988a.738.738,0,0,1-.628-1.122l.348-.566a.737.737,0,1,1,1.256.77l-.347.567A.737.737,0,0,1,1555.419,509.988Z" transform="translate(-1554.682 -507.947)" fill="#ffc68d" stroke="#ffc68d" stroke-width="1"/>
      </g>
      <g id="Group_163" data-name="Group 163" transform="translate(16.164 59.897)">
        <path id="Path_429" data-name="Path 429" d="M1550.708,517.675a.738.738,0,0,1-.628-1.123l.348-.566a.737.737,0,0,1,1.257.77l-.348.566A.736.736,0,0,1,1550.708,517.675Z" transform="translate(-1549.971 -515.634)" fill="#ffc68d" stroke="#ffc68d" stroke-width="1"/>
      </g>
      <g id="Group_164" data-name="Group 164" transform="translate(23.369 56.52)">
        <path id="Path_430" data-name="Path 430" d="M1565.371,510.8a.737.737,0,0,1-.627-1.122l.347-.566a.737.737,0,1,1,1.257.769l-.347.566A.736.736,0,0,1,1565.371,510.8Z" transform="translate(-1564.635 -508.761)" fill="#ffc68d" stroke="#ffc68d" stroke-width="1"/>
      </g>
      <g id="Group_165" data-name="Group 165" transform="translate(21.054 60.296)">
        <path id="Path_431" data-name="Path 431" d="M1560.66,518.488a.737.737,0,0,1-.627-1.122l.347-.567a.737.737,0,1,1,1.257.77l-.347.566A.736.736,0,0,1,1560.66,518.488Z" transform="translate(-1559.923 -516.447)" fill="#ffc68d" stroke="#ffc68d" stroke-width="1"/>
      </g>
      <g id="Group_166" data-name="Group 166" transform="translate(18.739 64.073)">
        <path id="Path_432" data-name="Path 432" d="M1555.948,526.174a.737.737,0,0,1-.628-1.122l.347-.566a.737.737,0,1,1,1.256.77l-.347.566A.737.737,0,0,1,1555.948,526.174Z" transform="translate(-1555.212 -524.134)" fill="#ffc68d" stroke="#ffc68d" stroke-width="1"/>
      </g>
      <g id="Group_167" data-name="Group 167" transform="translate(23.396 64.329)">
        <path id="Path_433" data-name="Path 433" d="M1565.425,526.7a.737.737,0,0,1-.627-1.122l.347-.567a.737.737,0,0,1,1.257.77l-.347.566A.737.737,0,0,1,1565.425,526.7Z" transform="translate(-1564.689 -524.655)" fill="#ffc68d" stroke="#ffc68d" stroke-width="1"/>
      </g>
    </g>
  </g>
</svg>
