<svg xmlns="http://www.w3.org/2000/svg" width="479.661" height="393.489" viewBox="0 0 479.661 393.489">
  <g id="Group_255" data-name="Group 255" transform="translate(-10.515 0.5)" opacity="0.24">
    <g id="Group_235" data-name="Group 235" transform="translate(0 0)">
      <g id="Group_236" data-name="Group 236" transform="translate(291.852 170.04) rotate(-28)">
        <g id="Group_12" data-name="Group 12" transform="translate(36.77 0)">
          <path id="Path_320" data-name="Path 320" d="M1.736,21.806l-1.5-.646A25.3,25.3,0,0,0,0,.68L1.487,0A26.942,26.942,0,0,1,1.736,21.806Z" fill="#fff" stroke="#fff" stroke-width="1"/>
        </g>
        <g id="Group_13" data-name="Group 13" transform="translate(0 19.908)">
          <path id="Path_321" data-name="Path 321" d="M28.672,58.96h0A15.417,15.417,0,0,1,17.41,53.718c-3.208.34-8.737-1.1-12.542-4.781-6.019-5.82-6.489-13.963-1.23-21.248,3.161-4.37,5.252-5.952,9.417-9.1.812-.614,1.707-1.291,2.71-2.063A37.464,37.464,0,0,0,24.1,7.1a24.069,24.069,0,0,1,4.521-5.474C30.742-.062,33.7-.442,37.265.516A8,8,0,0,1,38.541.9a8.142,8.142,0,0,1,1.229.623C43,3.282,44.85,5.556,45.227,8.263a24.068,24.068,0,0,1-.5,7.08,37.487,37.487,0,0,0-.464,12.579c.194,1.256.376,2.367.541,3.375.843,5.149,1.266,7.734.537,13.073-1.15,8.44-6.79,13.738-15.474,14.535C29.471,58.942,29.069,58.96,28.672,58.96ZM18.123,51.946l.3.415a13.739,13.739,0,0,0,10.246,4.963h0c.348,0,.7-.016,1.043-.047,7.977-.733,12.95-5.4,14-13.128.7-5.1.311-7.443-.531-12.588-.166-1.012-.349-2.128-.544-3.389a39.385,39.385,0,0,1,.467-13.094,23,23,0,0,0,.5-6.589c-.3-2.165-1.868-4.032-4.656-5.549a6.748,6.748,0,0,0-.982-.5L37.9,2.406a6.55,6.55,0,0,0-1.016-.3c-3.143-.842-5.539-.556-7.24.8a22.966,22.966,0,0,0-4.186,5.115,39.389,39.389,0,0,1-8.693,9.8c-1.006.776-1.906,1.456-2.721,2.072-4.162,3.148-6.062,4.584-9.078,8.756C.216,35.224.615,42.548,6.005,47.762A16.1,16.1,0,0,0,16.444,52.13a6.6,6.6,0,0,0,1.173-.093Z" fill="#fff" stroke="#fff" stroke-width="1"/>
        </g>
        <g id="Group_16" data-name="Group 16" transform="translate(22.629 2.903)">
          <g id="Group_14" data-name="Group 14">
            <path id="Path_322" data-name="Path 322" d="M9.048,14.518a6.971,6.971,0,0,1-4.2-1.343A11.5,11.5,0,0,1,.45.556.829.829,0,0,1,1.256,0a.818.818,0,0,1,.761.616c.5,1.976,1.534,2.1,3.821,2.183a9.656,9.656,0,0,1,5.4,1.381c2.938,2,3.8,5.211,2.5,9.3a.817.817,0,0,1-.761.569,10.171,10.171,0,0,0-1.391.186A14.31,14.31,0,0,1,9.048,14.518ZM1.624,3.246a9.5,9.5,0,0,0,4.173,8.6,5.316,5.316,0,0,0,3.25,1.036,12.847,12.847,0,0,0,2.251-.257c.356-.063.7-.124,1.031-.164.852-3.112.177-5.442-2.011-6.928a8.1,8.1,0,0,0-4.542-1.1C4.326,4.379,2.741,4.32,1.624,3.246Z" fill="#fff" stroke="#fff" stroke-width="1"/>
          </g>
          <g id="Group_15" data-name="Group 15" transform="translate(0.459 0.156)">
            <path id="Path_323" data-name="Path 323" d="M12.265,13.35a.819.819,0,0,1-.693-.382,9.692,9.692,0,0,0-5.578-4.3C2.12,7.36.047,4.65,0,.828A.818.818,0,1,1,1.635.808c.039,3.151,1.635,5.214,4.88,6.308a11.348,11.348,0,0,1,6.441,4.98.818.818,0,0,1-.691,1.253Z" fill="#fff" stroke="#fff" stroke-width="1"/>
          </g>
        </g>
        <g id="Group_19" data-name="Group 19" transform="translate(38.037 9.519)">
          <g id="Group_17" data-name="Group 17">
            <path id="Path_324" data-name="Path 324" d="M16.7,14.209h0a17.942,17.942,0,0,1-6.713-1.645,30.194,30.194,0,0,0-5.05-1.615,3.509,3.509,0,0,0-.7-.067,5.318,5.318,0,0,0-2.728.792A.818.818,0,0,1,0,11.218c0-.093.28-9.4,10.054-10.944A21.385,21.385,0,0,1,13.423,0a23.949,23.949,0,0,1,6.5,1.015,16.346,16.346,0,0,0,4.233.74,8.766,8.766,0,0,0,2.364-.328.819.819,0,0,1,1.02.95c-.08.394-2,9.656-6.989,11.212A12.785,12.785,0,0,1,16.7,14.209ZM4.234,9.247a5.188,5.188,0,0,1,1.025.1,31.537,31.537,0,0,1,5.317,1.694,16.459,16.459,0,0,0,6.12,1.534h0a11.178,11.178,0,0,0,3.363-.545c2.907-.907,4.8-5.845,5.579-8.746a10.191,10.191,0,0,1-1.487.108A17.843,17.843,0,0,1,19.5,2.6a22.238,22.238,0,0,0-6.079-.961,19.772,19.772,0,0,0-3.114.254,9.635,9.635,0,0,0-8.466,7.8A7.264,7.264,0,0,1,4.234,9.247Z" fill="#fff" stroke="#fff" stroke-width="1"/>
          </g>
          <g id="Group_18" data-name="Group 18" transform="translate(0 1.441)">
            <path id="Path_325" data-name="Path 325" d="M16.7,12.769a17.939,17.939,0,0,1-6.713-1.645,30.19,30.19,0,0,0-5.05-1.615,3.518,3.518,0,0,0-.7-.067,5.32,5.32,0,0,0-2.728.792A.819.819,0,0,1,0,9.782s0-.146.025-.4a.8.8,0,0,1,.03-.16c1.3-4.351,4.654-6.3,9.291-5.316a43.741,43.741,0,0,0,8.776,1.148c4.573,0,5.6-1.52,6.691-3.129a9.813,9.813,0,0,1,1.349-1.7.818.818,0,0,1,1.363.762c-.207.985-2.159,9.66-6.978,11.163A12.776,12.776,0,0,1,16.7,12.769ZM4.234,7.806a5.189,5.189,0,0,1,1.025.1A31.555,31.555,0,0,1,10.576,9.6a16.457,16.457,0,0,0,6.12,1.534,11.178,11.178,0,0,0,3.363-.545c2.041-.637,3.609-3.287,4.64-5.9-1.176,1.119-3,2-6.577,2A45.25,45.25,0,0,1,9.005,5.505c-3.186-.679-5.463.2-6.746,2.608A7.1,7.1,0,0,1,4.234,7.806Z" fill="#fff" stroke="#fff" stroke-width="1"/>
          </g>
        </g>
        <g id="Group_20" data-name="Group 20" transform="translate(23.845 64.699)">
          <path id="Path_326" data-name="Path 326" d="M4.8,8.727A12.9,12.9,0,0,1,0,7.8L.607,6.279a11.2,11.2,0,0,0,8.626-.105A11.2,11.2,0,0,0,15.258,0l1.518.607a12.823,12.823,0,0,1-6.9,7.07A12.875,12.875,0,0,1,4.8,8.727Z" fill="#fff" stroke="#fff" stroke-width="1"/>
        </g>
      </g>
      <g id="Group_243" data-name="Group 243" transform="translate(109.634)">
        <g id="Group_22" data-name="Group 22" transform="translate(2.124 70.615)">
          <path id="Path_327" data-name="Path 327" d="M1920.737,699.142l-1.392-1.688a140.881,140.881,0,0,1,30.042-18.525l.925,1.981A138.76,138.76,0,0,0,1920.737,699.142Z" transform="translate(-1919.346 -678.929)" fill="#fff" stroke="#fff" stroke-width="1"/>
        </g>
        <g id="Group_23" data-name="Group 23" transform="translate(61.121 47.331)">
          <path id="Path_328" data-name="Path 328" d="M2000.893,661.418l-.636-2.093A318.2,318.2,0,0,1,2067.484,647l.112,2.185A315.832,315.832,0,0,0,2000.893,661.418Z" transform="translate(-2000.257 -646.996)" fill="#fff" stroke="#fff" stroke-width="1"/>
        </g>
        <g id="Group_24" data-name="Group 24" transform="translate(64.244 58.812)">
          <path id="Path_329" data-name="Path 329" d="M2019.56,671.87a24.525,24.525,0,0,0-15.02-6.95l.2-2.178a26.687,26.687,0,0,1,16.346,7.561Z" transform="translate(-2004.54 -662.742)" fill="#fff" stroke="#fff" stroke-width="1"/>
        </g>
        <g id="Group_27" data-name="Group 27" transform="translate(64.382 0)">
          <g id="Group_25" data-name="Group 25">
            <path id="Path_330" data-name="Path 330" d="M2005.823,641.35a1.094,1.094,0,0,1-1.093-1.148c.651-13.058,7.465-27.126,18.693-38.6s25.146-18.586,38.189-19.518a1.095,1.095,0,0,1,1.171,1.146c-.655,13.061-7.468,27.131-18.695,38.6s-25.144,18.585-38.19,19.517C2005.875,641.35,2005.848,641.35,2005.823,641.35Zm54.693-56.971c-12.154,1.247-25.032,8.03-35.529,18.755s-17,23.746-17.991,35.922c12.156-1.248,25.034-8.03,35.529-18.756S2059.528,596.559,2060.516,584.379Z" transform="translate(-2004.729 -582.085)" fill="#fff" stroke="#fff" stroke-width="1"/>
          </g>
          <g id="Group_26" data-name="Group 26" transform="translate(0.114 2.91)">
            <path id="Path_331" data-name="Path 331" d="M2005.98,642.316a1.093,1.093,0,0,1-.782-1.859l52.9-54.052a1.094,1.094,0,0,1,1.563,1.531l-52.9,54.052A1.09,1.09,0,0,1,2005.98,642.316Z" transform="translate(-2004.886 -586.076)" fill="#fff" stroke="#fff" stroke-width="1"/>
          </g>
        </g>
        <g id="Group_30" data-name="Group 30" transform="translate(5.91 13.314)">
          <g id="Group_28" data-name="Group 28">
            <path id="Path_332" data-name="Path 332" d="M1976.285,642.524h0c-10.108,0-21.436-4.09-31.079-11.22-10.836-8.007-18.359-18.761-20.643-29.5a1.094,1.094,0,0,1,.973-1.317c1.037-.092,2.109-.139,3.185-.139,10.108,0,21.435,4.088,31.077,11.216,10.835,8.008,18.36,18.763,20.645,29.508a1.093,1.093,0,0,1-.973,1.317C1978.433,642.477,1977.362,642.524,1976.285,642.524Zm-49.3-39.949c2.472,9.818,9.524,19.585,19.517,26.971,9.275,6.857,20.128,10.791,29.779,10.791h0c.581,0,1.161-.014,1.733-.043-2.474-9.819-9.526-19.588-19.52-26.974C1948.665,606.05,1937.05,602.073,1926.988,602.574Z" transform="translate(-1924.538 -600.344)" fill="#fff" stroke="#fff" stroke-width="1"/>
          </g>
          <g id="Group_29" data-name="Group 29" transform="translate(0.11 0.215)">
            <path id="Path_333" data-name="Path 333" d="M1976.672,640.441a1.092,1.092,0,0,1-.65-.214l-50.89-37.615a1.094,1.094,0,1,1,1.3-1.759l50.89,37.615a1.094,1.094,0,0,1-.65,1.973Z" transform="translate(-1924.689 -600.638)" fill="#fff" stroke="#fff" stroke-width="1"/>
          </g>
        </g>
        <g id="Group_33" data-name="Group 33" transform="translate(0 53.407)">
          <g id="Group_31" data-name="Group 31">
            <path id="Path_334" data-name="Path 334" d="M1930.758,671.845h0a27.782,27.782,0,0,1-13.773-3.326,1.1,1.1,0,0,1-.332-1.6c3.911-5.24,10.638-9.177,18.46-10.8a36.671,36.671,0,0,1,7.466-.782,27.771,27.771,0,0,1,13.773,3.327,1.092,1.092,0,0,1,.333,1.6c-3.91,5.238-10.637,9.175-18.459,10.8A36.74,36.74,0,0,1,1930.758,671.845Zm-11.552-4.627a26.826,26.826,0,0,0,11.55,2.439h0a34.516,34.516,0,0,0,7.02-.737c6.789-1.412,12.667-4.649,16.349-8.964-5.027-2.438-11.92-3.089-18.572-1.7C1928.767,659.665,1922.888,662.9,1919.206,667.218Z" transform="translate(-1916.433 -655.33)" fill="#fff" stroke="#fff" stroke-width="1"/>
          </g>
          <g id="Group_32" data-name="Group 32" transform="translate(0.078 3.586)">
            <path id="Path_335" data-name="Path 335" d="M1917.633,669.979a1.094,1.094,0,0,1-.221-2.164l36.248-7.544a1.094,1.094,0,0,1,.447,2.142l-36.249,7.543A1.119,1.119,0,0,1,1917.633,669.979Z" transform="translate(-1916.54 -660.248)" fill="#fff" stroke="#fff" stroke-width="1"/>
          </g>
        </g>
        <g id="Group_34" data-name="Group 34" transform="translate(24.221 58.297)">
          <path id="Path_336" data-name="Path 336" d="M1966.522,713.6a16.625,16.625,0,0,1-10.6-3.554c-4.383-3.52-6.594-9.165-6.229-15.9a34.545,34.545,0,0,1,7.894-19.364c9.854-12.264,25.138-16.4,34.074-9.226a17.265,17.265,0,0,1,6.146,12.084,1.093,1.093,0,0,1-2.176.221,15.129,15.129,0,0,0-5.341-10.6c-7.994-6.422-21.9-2.432-31,8.891a32.332,32.332,0,0,0-7.415,18.112c-.327,6.008,1.6,11.005,5.414,14.073s9.112,3.869,14.909,2.254a32.331,32.331,0,0,0,16.088-11.144c.722-.9,1.407-1.837,2.036-2.786q.179-.271.35-.541a1.094,1.094,0,1,1,1.845,1.175q-.182.287-.372.575c-.664,1-1.389,2-2.153,2.948a34.536,34.536,0,0,1-17.208,11.881A23.362,23.362,0,0,1,1966.522,713.6Z" transform="translate(-1949.651 -662.036)" fill="#fff" stroke="#fff" stroke-width="1"/>
        </g>
        <g id="Group_35" data-name="Group 35" transform="translate(35.741 78.376)">
          <path id="Path_337" data-name="Path 337" d="M1970.817,712a7.778,7.778,0,0,1-4.959-1.541,1.094,1.094,0,1,1,1.37-1.7c1.635,1.313,4.574,1.405,7.862.245a24.143,24.143,0,0,0,10.428-7.75,24.91,24.91,0,0,0,5.154-10.779,1.094,1.094,0,0,1,2.151.4,27.12,27.12,0,0,1-5.6,11.753,26.359,26.359,0,0,1-11.406,8.443A15.2,15.2,0,0,1,1970.817,712Z" transform="translate(-1965.45 -689.573)" fill="#fff" stroke="#fff" stroke-width="1"/>
        </g>
        <g id="Group_36" data-name="Group 36" transform="translate(65.018 64.572)">
          <path id="Path_338" data-name="Path 338" d="M2026.387,727.707c-11.461,0-20.785-12.8-20.785-28.534s9.324-28.532,20.785-28.532,20.786,12.8,20.786,28.532S2037.848,727.707,2026.387,727.707Zm0-54.878c-10.255,0-18.6,11.818-18.6,26.345s8.343,26.346,18.6,26.346,18.6-11.819,18.6-26.346S2036.641,672.828,2026.387,672.828Z" transform="translate(-2005.602 -670.641)" fill="#fff" stroke="#fff" stroke-width="1"/>
        </g>
        <g id="Group_37" data-name="Group 37" transform="translate(84.709 79.859)">
          <path id="Path_339" data-name="Path 339" d="M2033.7,724.343a1.094,1.094,0,0,1,0-2.187c4.421,0,9.559-7.559,9.559-17.3a24.928,24.928,0,0,0-2.733-11.632,1.094,1.094,0,1,1,1.926-1.038,27.152,27.152,0,0,1,2.995,12.67C2045.448,716.339,2039.258,724.343,2033.7,724.343Z" transform="translate(-2032.607 -691.606)" fill="#fff" stroke="#fff" stroke-width="1"/>
        </g>
      </g>
      <g id="Group_239" data-name="Group 239" transform="translate(91.799 122.148)">
        <g id="Group_39" data-name="Group 39" transform="translate(18.385 48.238)">
          <path id="Path_340" data-name="Path 340" d="M1954.993,839.865h-23.161l-.074-1.015c-.152-2.109-.4-4.228-.732-6.3a67.448,67.448,0,0,0-4.7-16.285l2.005-.877a69.639,69.639,0,0,1,4.855,16.814c.291,1.8.517,3.639.673,5.475h19.024a63.545,63.545,0,0,1,3.857-19.451l2.043.782a61.914,61.914,0,0,0-3.757,19.8Z" transform="translate(-1926.326 -815.388)" fill="#fff" stroke="#fff" stroke-width="1"/>
        </g>
        <g id="Group_40" data-name="Group 40" transform="translate(27.78 45.161)">
          <path id="Path_341" data-name="Path 341" d="M1952.687,838.722h-11.508l-.033-1.059c-.069-2.128-.179-4.265-.328-6.351-.342-4.783-.883-9.381-1.606-13.666l2.156-.365c.736,4.354,1.286,9.022,1.632,13.874.127,1.768.226,3.574.3,5.378h7.24a116.537,116.537,0,0,1,2.984-25.366l2.118.546c-1.744,6.772-2.787,15.98-2.934,25.93Z" transform="translate(-1939.211 -811.168)" fill="#fff" stroke="#fff" stroke-width="1"/>
        </g>
        <g id="Group_41" data-name="Group 41" transform="translate(17.149)">
          <path id="Path_342" data-name="Path 342" d="M1926.769,760.077l-2.138-.455a8.318,8.318,0,0,1,11.552-5.851,13.238,13.238,0,0,1,13.132-2.165,8.331,8.331,0,0,1,14.128,6.811l-2.176-.223a6.146,6.146,0,0,0-10.832-4.583l-.532.632-.752-.338a11.055,11.055,0,0,0-12.058,1.976l-.585.541-.694-.39a6.139,6.139,0,0,0-9.044,4.045Z" transform="translate(-1924.631 -749.232)" fill="#fff" stroke="#fff" stroke-width="1"/>
        </g>
        <g id="Group_42" data-name="Group 42" transform="translate(0 9.343)">
          <path id="Path_343" data-name="Path 343" d="M1918.965,803.051a5.539,5.539,0,0,1-.888-.071,7.2,7.2,0,0,1-5.609-4.613,10.079,10.079,0,0,1-1.788-.131,11.372,11.372,0,0,1-3.465-21.306,11.369,11.369,0,0,1,20.091-10.086,7.2,7.2,0,0,1,11.471,1.316l-1.888,1.1a5.024,5.024,0,0,0-8.727.071l-1,1.771-.925-1.813a9.184,9.184,0,0,0-16.636,7.769l.436,1.018-1.024.423a9.167,9.167,0,0,0,4.181,17.646l.929-.066.212.907a5.028,5.028,0,0,0,4.094,3.831c2.614.427,5.469-2.343,6.088-4.914l2.127.513C1925.84,799.751,1922.5,803.051,1918.965,803.051Z" transform="translate(-1901.113 -762.046)" fill="#fff" stroke="#fff" stroke-width="1"/>
        </g>
        <g id="Group_43" data-name="Group 43" transform="translate(18.69 7.029)">
          <path id="Path_344" data-name="Path 344" d="M1966.138,807.017a13.586,13.586,0,0,1-12.509-8.339,13.553,13.553,0,0,1-5.014-1.243,8.316,8.316,0,0,1-16.618-.484c0-.209.01-.423.029-.645a13.563,13.563,0,0,1,8.288-24.3c.237,0,.477.007.729.023a13.567,13.567,0,0,1,12.838-9.214,13.5,13.5,0,0,0,14.007-3.94,13.564,13.564,0,0,1,7.624,24.785,13.431,13.431,0,0,1,4.193,9.792A13.584,13.584,0,0,1,1966.138,807.017Zm-18.546-12.687.631.4a11.352,11.352,0,0,0,6.1,1.783h.773l.325.726a11.373,11.373,0,1,0,17.563-12.867l-1.379-1.043,1.533-.8A11.375,11.375,0,1,0,1959,765.349l-.491.615-.74-.269a11.331,11.331,0,0,0-14.875,7.782l-.244.922-.947-.115a11.371,11.371,0,0,0-7.885,20.623l.563.392-.108.677a6.129,6.129,0,1,0,12.086,0l-.109-.673Z" transform="translate(-1926.745 -758.872)" fill="#fff" stroke="#fff" stroke-width="1"/>
        </g>
        <g id="Group_44" data-name="Group 44" transform="translate(49.965 41.725)">
          <path id="Path_345" data-name="Path 345" d="M1978.2,815.023a8.576,8.576,0,0,1-8.568-8.567h2.188a6.38,6.38,0,0,0,12.76,0h2.188A8.577,8.577,0,0,1,1978.2,815.023Z" transform="translate(-1969.636 -806.456)" fill="#fff" stroke="#fff" stroke-width="1"/>
        </g>
        <g id="Group_45" data-name="Group 45" transform="translate(52.609 16.017)">
          <path id="Path_346" data-name="Path 346" d="M1980.726,784a8.621,8.621,0,0,1-2.291-.312,8.506,8.506,0,0,1-5.172-4.032l1.9-1.078a6.38,6.38,0,0,0,11.1-6.3l1.9-1.08a8.574,8.574,0,0,1-7.438,12.8Z" transform="translate(-1973.263 -771.199)" fill="#fff" stroke="#fff" stroke-width="1"/>
        </g>
        <g id="Group_46" data-name="Group 46" transform="translate(34.652 27.871)">
          <path id="Path_347" data-name="Path 347" d="M1960.12,798.94a11.5,11.5,0,0,1-11.484-11.484h2.188a9.307,9.307,0,0,0,9.3,9.3Z" transform="translate(-1948.636 -787.456)" fill="#fff" stroke="#fff" stroke-width="1"/>
        </g>
      </g>
      <g id="Group_242" data-name="Group 242" transform="translate(268.429 158.505) rotate(-120)">
        <g id="Group_50" data-name="Group 50" transform="translate(0 16.843)">
          <g id="Group_48" data-name="Group 48">
            <path id="Path_348" data-name="Path 348" d="M8.242,49.328c-3.628-1.09-6.017-3.714-6.395-7.022a10.9,10.9,0,0,0-.736-3.352L.736,39,0,37.727l.453-.583a1.2,1.2,0,0,1,.929-.446,4.313,4.313,0,0,0,2.741-2.969c1.227-3.329,4.414-6.54,8.125-6.25A40.43,40.43,0,0,0,35.993,21.84,40.453,40.453,0,0,0,52.455,3.824,13.484,13.484,0,0,1,55.45,0l1.477,1.612a10.92,10.92,0,0,0-2.482,3.121A42.634,42.634,0,0,1,37.1,23.725a42.633,42.633,0,0,1-25.026,5.934c-2.6-.207-4.981,2.332-5.9,4.824A6.975,6.975,0,0,1,3.2,38.272a14.438,14.438,0,0,1,.823,3.786c.4,3.475,3.525,4.776,4.851,5.174Z" fill="#fff" stroke="#fff" stroke-width="1"/>
          </g>
          <g id="Group_49" data-name="Group 49" transform="translate(10.582 48.661)">
            <path id="Path_349" data-name="Path 349" d="M0,0" fill="#fff" stroke="#fff" stroke-width="3"/>
          </g>
        </g>
        <g id="Group_51" data-name="Group 51" transform="translate(60.792 8.157)">
          <path id="Path_350" data-name="Path 350" d="M12.263,5.935A21.3,21.3,0,0,1,0,1.786L1.263,0c4.6,3.254,9.761,4.445,14.525,3.35l.49,2.132A17.9,17.9,0,0,1,12.263,5.935Z" fill="#fff" stroke="#fff" stroke-width="1"/>
        </g>
        <g id="Group_53" data-name="Group 53" transform="translate(2.801 10.992)">
          <g id="Group_52" data-name="Group 52">
            <path id="Path_351" data-name="Path 351" d="M12.895,73.82c-3.684,0-8.2-1.641-9.83-6.245a11.242,11.242,0,0,0-1.872-3.828H.008L0,62.653a1.172,1.172,0,0,1,.943-1.126c.618-.324,2.108-1.395,2.474-4.275.515-4.056,3.25-8.493,7.481-9.125A47.635,47.635,0,0,0,36.667,35.369,47.642,47.642,0,0,0,50.8,10.328a12.921,12.921,0,1,1,25.315,5.192A73.366,73.366,0,0,1,54.439,54.131,73.371,73.371,0,0,1,14.712,73.685l-.252.035A12.319,12.319,0,0,1,12.895,73.82ZM3.119,62.646a16.04,16.04,0,0,1,2.007,4.2c1.25,3.529,4.831,4.787,7.768,4.787a9.916,9.916,0,0,0,1.254-.078l.238-.032a71.2,71.2,0,0,0,38.549-18.98A71.193,71.193,0,0,0,73.97,15.08a10.733,10.733,0,1,0-21.029-4.313,49.822,49.822,0,0,1-14.769,26.19A49.812,49.812,0,0,1,11.221,50.291c-3.121.467-5.232,4.077-5.634,7.237A7.964,7.964,0,0,1,3.119,62.646Z" fill="#fff" stroke="#fff" stroke-width="1"/>
          </g>
        </g>
        <g id="Group_54" data-name="Group 54" transform="translate(58.558 18.636)">
          <path id="Path_352" data-name="Path 352" d="M6.928,13.874A6.937,6.937,0,0,1,6.064.055,7.12,7.12,0,0,1,6.943,0a6.937,6.937,0,0,1,.865,13.818A7.136,7.136,0,0,1,6.928,13.874ZM6.943,2.187a4.831,4.831,0,0,0-.6.038,4.747,4.747,0,1,0,.6-.038Z" fill="#fff" stroke="#fff" stroke-width="1"/>
        </g>
        <g id="Group_55" data-name="Group 55" transform="translate(51.722 35.255)">
          <path id="Path_353" data-name="Path 353" d="M6.931,13.875a6.946,6.946,0,1,1,.879-.055A7.1,7.1,0,0,1,6.931,13.875ZM6.943,2.188a4.837,4.837,0,0,0-.6.038,4.748,4.748,0,1,0,.6-.038Z" fill="#fff" stroke="#fff" stroke-width="1"/>
        </g>
        <g id="Group_56" data-name="Group 56" transform="translate(40.324 49.472)">
          <path id="Path_354" data-name="Path 354" d="M6.93,13.875A6.937,6.937,0,0,1,6.065.055,7.132,7.132,0,0,1,6.944,0a6.937,6.937,0,0,1,.866,13.819A7.123,7.123,0,0,1,6.93,13.875ZM6.944,2.188a4.841,4.841,0,0,0-.6.038,4.748,4.748,0,1,0,.6-.038Z" fill="#fff" stroke="#fff" stroke-width="1"/>
        </g>
        <g id="Group_57" data-name="Group 57" transform="translate(26.195 58.926)">
          <path id="Path_355" data-name="Path 355" d="M6.929,13.874a6.943,6.943,0,1,1,.88-.055A7.1,7.1,0,0,1,6.929,13.874ZM6.943,2.188a4.843,4.843,0,0,0-.6.038,4.749,4.749,0,1,0,.6-.038Z" fill="#fff" stroke="#fff" stroke-width="1"/>
        </g>
        <g id="Group_58" data-name="Group 58" transform="translate(12.849 64.994)">
          <path id="Path_356" data-name="Path 356" d="M5.871,11.757a5.878,5.878,0,1,1,.745-.047A6,6,0,0,1,5.871,11.757Zm.012-9.569A3.69,3.69,0,1,0,9.538,5.415,3.7,3.7,0,0,0,5.883,2.188Z" fill="#fff" stroke="#fff" stroke-width="1"/>
        </g>
        <g id="Group_59" data-name="Group 59" transform="translate(67.176 0)">
          <path id="Path_357" data-name="Path 357" d="M2.1,15.037l-2.1-.6A28.087,28.087,0,0,0,.348.49L2.48,0A30.3,30.3,0,0,1,2.1,15.037Z" fill="#fff" stroke="#fff" stroke-width="1"/>
        </g>
      </g>
      <g id="Group_84" data-name="Group 84" transform="translate(180.148 122.148)">
        <g id="Group_71" data-name="Group 71" transform="translate(0 0)">
          <path id="Path_364" data-name="Path 364" d="M1793.235,759.339a63.3,63.3,0,1,1,32.1-117.856l-1.11,1.884a61.076,61.076,0,1,0,21.544,21.447l1.879-1.119a63.312,63.312,0,0,1-54.417,95.644Z" transform="translate(-1729.939 -632.748)" fill="#fff" stroke="#fff" stroke-width="1"/>
        </g>
        <g id="Group_72" data-name="Group 72" transform="translate(11.129 9.166)">
          <path id="Path_365" data-name="Path 365" d="M1747.309,685.545l-2.108-.584a54.2,54.2,0,0,1,67.3-37.5l-.61,2.1a52.013,52.013,0,0,0-64.578,35.983Z" transform="translate(-1745.201 -645.319)" fill="#fff" stroke="#fff" stroke-width="1"/>
        </g>
        <g id="Group_73" data-name="Group 73" transform="translate(9.168 55.983)">
          <path id="Path_366" data-name="Path 366" d="M1744.7,716.838h-2.187a54.764,54.764,0,0,1,.489-7.313l2.167.292A52.914,52.914,0,0,0,1744.7,716.838Z" transform="translate(-1742.512 -709.525)" fill="#fff" stroke="#fff" stroke-width="1"/>
        </g>
        <g id="Group_83" data-name="Group 83" transform="translate(23.488 3.555)">
          <g id="Group_74" data-name="Group 74" transform="translate(68)">
            <path id="Path_367" data-name="Path 367" d="M1866.766,668.814h0a42.609,42.609,0,0,1-9.469-1.066l-.67-.152-.153-.67a42.66,42.66,0,0,1,3.139-27.915l.669-1.388,26.319,26.319-1.389.669A42.75,42.75,0,0,1,1866.766,668.814Zm-8.309-3.051a40.809,40.809,0,0,0,24.393-2.477l-21.914-21.915A40.49,40.49,0,0,0,1858.457,665.763Z" transform="translate(-1855.41 -637.623)" fill="#fff" stroke="#fff" stroke-width="1"/>
          </g>
          <g id="Group_75" data-name="Group 75" transform="translate(0 15.825)">
            <path id="Path_368" data-name="Path 368" d="M1779.578,742.69A66.944,66.944,0,0,1,1764.664,741l-.669-.153-.154-.671A66.058,66.058,0,0,1,1843,661.016l.669.153.154.669a66.3,66.3,0,0,1-5.439,44.634l-1.952-.988A64.1,64.1,0,0,0,1841.841,663a63.868,63.868,0,0,0-76.018,76.019,63.939,63.939,0,0,0,68.476-29.664l1.878,1.121a66.177,66.177,0,0,1-56.6,32.214Z" transform="translate(-1762.152 -659.327)" fill="#fff" stroke="#fff" stroke-width="1"/>
          </g>
          <g id="Group_76" data-name="Group 76" transform="translate(0.011 57.221)">
            <path id="Path_369" data-name="Path 369" d="M1779.45,758.042h0a66.5,66.5,0,0,1-14.781-1.666l-.67-.153-.154-.671a66.037,66.037,0,0,1,2.748-38.571l.34-.884.923.21a47.9,47.9,0,0,1,36.057,36.056l.209.923-.882.341A65.943,65.943,0,0,1,1779.45,758.042Zm-13.623-3.649a64.162,64.162,0,0,0,35.731-2.47,45.716,45.716,0,0,0-33.261-33.261A63.833,63.833,0,0,0,1765.827,754.393Z" transform="translate(-1762.167 -716.098)" fill="#fff" stroke="#fff" stroke-width="1"/>
          </g>
          <g id="Group_77" data-name="Group 77" transform="translate(68)">
            <path id="Path_370" data-name="Path 370" d="M1866.766,668.814h0a42.609,42.609,0,0,1-9.469-1.066l-.67-.152-.153-.67a42.66,42.66,0,0,1,3.139-27.915l.669-1.388,26.319,26.319-1.389.669A42.75,42.75,0,0,1,1866.766,668.814Zm-8.309-3.051a40.809,40.809,0,0,0,24.393-2.477l-21.914-21.915A40.49,40.49,0,0,0,1858.457,665.763Z" transform="translate(-1855.41 -637.623)" fill="#fff" stroke="#fff" stroke-width="1"/>
          </g>
          <g id="Group_78" data-name="Group 78" transform="translate(48.222 51.375)">
            <path id="Path_371" data-name="Path 371" d="M1839.44,726.726h0a42.635,42.635,0,0,1-9.207-1.006l-1.947-.431,17.208-17.207,13.774,13.774-1.389.669A42.724,42.724,0,0,1,1839.44,726.726Zm-6.745-2.753a40.485,40.485,0,0,0,6.743.566h0a40.575,40.575,0,0,0,16.078-3.339l-10.025-10.025Z" transform="translate(-1828.285 -708.081)" fill="#fff" stroke="#fff" stroke-width="1"/>
          </g>
          <g id="Group_79" data-name="Group 79" transform="translate(22.345 47.348)">
            <path id="Path_372" data-name="Path 372" d="M1809.508,723.422a6.367,6.367,0,0,0-6.333-6.334l-1.082,0-.006-1.083a6.369,6.369,0,0,0-6.337-6.336l-1.082-.007-.006-1.081a6.334,6.334,0,0,0-1.864-4.473l1.546-1.547a8.5,8.5,0,0,1,2.44,4.985,8.558,8.558,0,0,1,7.424,7.423,8.558,8.558,0,0,1,7.489,8.445Z" transform="translate(-1792.797 -702.558)" fill="#fff" stroke="#fff" stroke-width="1"/>
          </g>
          <g id="Group_80" data-name="Group 80" transform="translate(30.492 39.651)">
            <path id="Path_373" data-name="Path 373" d="M1817.728,707.949a6.365,6.365,0,0,0-6.335-6.339l-1.078-.007-.008-1.079a6.364,6.364,0,0,0-6.336-6.335l.009-2.187a8.555,8.555,0,0,1,8.448,7.488,8.552,8.552,0,0,1,7.488,8.447Z" transform="translate(-1803.97 -692.002)" fill="#fff" stroke="#fff" stroke-width="1"/>
          </g>
          <g id="Group_81" data-name="Group 81" transform="translate(43.107 34.457)">
            <path id="Path_374" data-name="Path 374" d="M1827.609,693.4a6.37,6.37,0,0,0-6.338-6.336l.015-2.187a8.558,8.558,0,0,1,8.511,8.509Z" transform="translate(-1821.271 -684.878)" fill="#fff" stroke="#fff" stroke-width="1"/>
          </g>
          <g id="Group_82" data-name="Group 82" transform="translate(12.11 77.293)">
            <path id="Path_375" data-name="Path 375" d="M1781.47,749.016a2.707,2.707,0,0,1-1.914-4.624,2.772,2.772,0,0,1,3.83,0,2.707,2.707,0,0,1-1.916,4.621Zm0-3.229a.522.522,0,1,0,.368.155A.518.518,0,0,0,1781.47,745.786Z" transform="translate(-1778.76 -743.625)" fill="#fff" stroke="#fff" stroke-width="1"/>
          </g>
        </g>
      </g>
      <g id="Group_241" data-name="Group 241" transform="translate(341.879 158.505) rotate(-90)">
        <g id="Group_85" data-name="Group 85">
          <path id="Path_376" data-name="Path 376" d="M73.9,147.8A73.9,73.9,0,1,1,115.573,12.865l-1.235,1.805a71.566,71.566,0,1,0,26.244,32.794l2.033-.806A73.946,73.946,0,0,1,73.9,147.8Z" fill="#fff" stroke="#fff" stroke-width="1"/>
        </g>
        <g id="Group_86" data-name="Group 86" transform="translate(13.018 10.729)">
          <path id="Path_377" data-name="Path 377" d="M2.108,46.847,0,46.263A63.255,63.255,0,0,1,78.536,2.5l-.61,2.1A61.068,61.068,0,0,0,2.108,46.847Z" fill="#fff" stroke="#fff" stroke-width="1"/>
        </g>
        <g id="Group_87" data-name="Group 87" transform="translate(10.73 65.363)">
          <path id="Path_378" data-name="Path 378" d="M2.187,8.535H0A64.183,64.183,0,0,1,.571,0L2.738.292A62.055,62.055,0,0,0,2.187,8.535Z" fill="#fff" stroke="#fff" stroke-width="1"/>
        </g>
        <g id="Group_100" data-name="Group 100" transform="translate(40.51 11.272)">
          <g id="Group_88" data-name="Group 88" transform="translate(74.236)">
            <path id="Path_379" data-name="Path 379" d="M11.264,42.763A11.26,11.26,0,0,1,1.8,37.632a11.116,11.116,0,0,1-1.545-8.44l2.139.459a8.948,8.948,0,0,0,1.241,6.791,9.084,9.084,0,0,0,12.549,2.676A8.918,8.918,0,0,0,17.8,37.743l.646-.676.768.532a4.938,4.938,0,0,0,7.143-6.445l-.4-.725.588-.58a9.025,9.025,0,0,0,2.064-9.762l-.292-.741.615-.506a4.933,4.933,0,0,0-4.72-8.493l-.758.257-.474-.643a7.39,7.39,0,0,0-1.734-1.721l-.5-.339.021-.6A4.955,4.955,0,0,0,13.12,2.981,4.876,4.876,0,0,0,10.958,6.23L8.806,5.837a7.047,7.047,0,0,1,3.125-4.692,7.172,7.172,0,0,1,9.894,2.11,7.1,7.1,0,0,1,1.134,3.526,9.493,9.493,0,0,1,1.315,1.282A7.117,7.117,0,0,1,30.906,20a11.205,11.205,0,0,1-2.279,10.837,7.123,7.123,0,0,1-9.869,9.034,10.3,10.3,0,0,1-1.387,1.083A11.19,11.19,0,0,1,11.264,42.763Z" fill="#fff" stroke="#fff" stroke-width="1"/>
          </g>
          <g id="Group_89" data-name="Group 89" transform="translate(61.868 27.863)">
            <rect id="Rectangle_10" data-name="Rectangle 10" width="12.831" height="2.187" transform="translate(0 9.075) rotate(-45.012)" fill="#fff" stroke="#fff" stroke-width="1"/>
          </g>
          <g id="Group_90" data-name="Group 90" transform="translate(68.038 34.033)">
            <rect id="Rectangle_11" data-name="Rectangle 11" width="12.831" height="2.187" transform="matrix(0.707, -0.707, 0.707, 0.707, 0, 9.074)" fill="#fff" stroke="#fff" stroke-width="1"/>
          </g>
          <g id="Group_91" data-name="Group 91" transform="translate(60.544 1.832)">
            <path id="Path_380" data-name="Path 380" d="M21.213,31.185h0a9.645,9.645,0,0,1-8.322-4.741A9.7,9.7,0,0,1,1.558,12,9.6,9.6,0,0,1,7.065,7.949a9.444,9.444,0,0,1,1.37-3.517,9.694,9.694,0,0,1,17.3,8.436c.261.137.516.287.763.446a9.716,9.716,0,0,1-5.289,17.872Zm-7.278-7.592.459,1.01A7.465,7.465,0,0,0,21.211,29h0a7.528,7.528,0,0,0,2.721-14.55l-1.105-.426.513-1.068A7.508,7.508,0,0,0,10.271,5.62a7.443,7.443,0,0,0-1.14,3.33l-.083.805-.793.156A7.463,7.463,0,0,0,3.393,13.19,7.547,7.547,0,0,0,5.615,23.607a7.636,7.636,0,0,0,7.316.462Z" fill="#fff" stroke="#fff" stroke-width="1"/>
          </g>
          <g id="Group_92" data-name="Group 92" transform="translate(0 34.165)">
            <path id="Path_381" data-name="Path 381" d="M2.193,73.836A2.034,2.034,0,0,1,.255,72.768c-.482-.923-.677-2.785,3.157-8.265L43.538,7.152A15.932,15.932,0,0,1,56.593,0,16.308,16.308,0,0,1,68.1,5l.74.739a16.011,16.011,0,0,1,4.943,12.809,16.016,16.016,0,0,1-7.1,11.756L9.336,70.427C6.057,72.721,3.72,73.836,2.193,73.836Zm0-2.187h0c.371,0,1.892-.218,5.89-3.014l57.35-40.123A13.865,13.865,0,0,0,71.6,18.357a13.866,13.866,0,0,0-4.31-11.072l-.739-.739a14.142,14.142,0,0,0-9.961-4.358A13.779,13.779,0,0,0,45.33,8.406L5.2,65.757C2.431,69.722,2.189,71.238,2.19,71.649Z" fill="#fff" stroke="#fff" stroke-width="1"/>
          </g>
          <g id="Group_93" data-name="Group 93" transform="translate(41.752 43.695)">
            <rect id="Rectangle_12" data-name="Rectangle 12" width="2.187" height="8.076" transform="translate(0 1.547) rotate(-44.996)" fill="#fff" stroke="#fff" stroke-width="1"/>
          </g>
          <g id="Group_94" data-name="Group 94" transform="translate(62.204 54.069)">
            <rect id="Rectangle_13" data-name="Rectangle 13" width="2.188" height="8.195" transform="translate(0 1.547) rotate(-44.993)" fill="#fff" stroke="#fff" stroke-width="1"/>
          </g>
          <g id="Group_95" data-name="Group 95" transform="translate(45.446 57.47)">
            <rect id="Rectangle_14" data-name="Rectangle 14" width="2.188" height="8.079" transform="matrix(0.707, -0.707, 0.707, 0.707, 0, 1.547)" fill="#fff" stroke="#fff" stroke-width="1"/>
          </g>
          <g id="Group_96" data-name="Group 96" transform="translate(28.985 64.526)">
            <rect id="Rectangle_15" data-name="Rectangle 15" width="2.188" height="6.648" transform="translate(0 1.547) rotate(-44.991)" fill="#fff" stroke="#fff" stroke-width="1"/>
          </g>
          <g id="Group_97" data-name="Group 97" transform="translate(28.985 80.653)">
            <rect id="Rectangle_16" data-name="Rectangle 16" width="2.188" height="7.602" transform="translate(0 1.547) rotate(-44.989)" fill="#fff" stroke="#fff" stroke-width="1"/>
          </g>
          <g id="Group_98" data-name="Group 98" transform="translate(13.257 84.411)">
            <rect id="Rectangle_17" data-name="Rectangle 17" width="2.188" height="5.403" transform="matrix(0.707, -0.707, 0.707, 0.707, 0, 1.547)" fill="#fff" stroke="#fff" stroke-width="1"/>
          </g>
          <g id="Group_99" data-name="Group 99" transform="translate(42.129 68.934)">
            <rect id="Rectangle_18" data-name="Rectangle 18" width="2.188" height="6.534" transform="translate(0 1.547) rotate(-44.991)" fill="#fff" stroke="#fff" stroke-width="1"/>
          </g>
        </g>
        <g id="Group_101" data-name="Group 101" transform="translate(41.385 56.711)">
          <path id="Path_382" data-name="Path 382" d="M6.842,13.683a6.842,6.842,0,1,1,6.84-6.842A6.849,6.849,0,0,1,6.842,13.683Zm0-11.5a4.654,4.654,0,1,0,4.653,4.654A4.659,4.659,0,0,0,6.842,2.188Z" fill="#fff" stroke="#fff" stroke-width="1"/>
        </g>
        <g id="Group_102" data-name="Group 102" transform="translate(32.571 75.486)">
          <path id="Path_383" data-name="Path 383" d="M6.842,13.683a6.842,6.842,0,1,1,6.841-6.842A6.849,6.849,0,0,1,6.842,13.683Zm0-11.5A4.654,4.654,0,1,0,11.5,6.842,4.659,4.659,0,0,0,6.842,2.188Z" fill="#fff" stroke="#fff" stroke-width="1"/>
        </g>
        <g id="Group_103" data-name="Group 103" transform="translate(58.627 43.3)">
          <path id="Path_384" data-name="Path 384" d="M6.841,13.682a6.841,6.841,0,1,1,6.842-6.84A6.848,6.848,0,0,1,6.841,13.682Zm0-11.495A4.654,4.654,0,1,0,11.5,6.842,4.659,4.659,0,0,0,6.841,2.187Z" fill="#fff" stroke="#fff" stroke-width="1"/>
        </g>
        <g id="Group_104" data-name="Group 104" transform="translate(23.375 58.627)">
          <path id="Path_385" data-name="Path 385" d="M6.841,13.683a6.841,6.841,0,1,1,6.841-6.841A6.849,6.849,0,0,1,6.841,13.683Zm0-11.5A4.654,4.654,0,1,0,11.5,6.842,4.659,4.659,0,0,0,6.841,2.187Z" fill="#fff" stroke="#fff" stroke-width="1"/>
        </g>
        <g id="Group_105" data-name="Group 105" transform="translate(41.767 37.935)">
          <path id="Path_386" data-name="Path 386" d="M6.842,13.683a6.842,6.842,0,1,1,6.84-6.842A6.85,6.85,0,0,1,6.842,13.683Zm0-11.5A4.654,4.654,0,1,0,11.5,6.842,4.661,4.661,0,0,0,6.842,2.188Z" fill="#fff" stroke="#fff" stroke-width="1"/>
        </g>
        <g id="Group_106" data-name="Group 106" transform="translate(55.179 24.14)">
          <path id="Path_387" data-name="Path 387" d="M6.842,13.683a6.841,6.841,0,1,1,6.841-6.841A6.849,6.849,0,0,1,6.842,13.683Zm0-11.5A4.654,4.654,0,1,0,11.5,6.842,4.659,4.659,0,0,0,6.842,2.188Z" fill="#fff" stroke="#fff" stroke-width="1"/>
        </g>
      </g>
      <g id="Group_247" data-name="Group 247" transform="matrix(0.966, -0.259, 0.259, 0.966, 180.443, 279.093)">
        <g id="Group_85-2" data-name="Group 85">
          <path id="Path_376-2" data-name="Path 376" d="M58.641,117.28A58.64,58.64,0,1,1,91.709,10.208l-.98,1.433a56.789,56.789,0,1,0,20.825,26.023l1.613-.64A58.678,58.678,0,0,1,58.641,117.28Z" fill="#fff" stroke="#fff" stroke-width="1"/>
        </g>
        <g id="Group_86-2" data-name="Group 86" transform="translate(10.33 8.514)">
          <path id="Path_377-2" data-name="Path 377" d="M1.673,37.174,0,36.711A50.194,50.194,0,0,1,62.32,1.983L61.836,3.65A48.458,48.458,0,0,0,1.673,37.174Z" fill="#fff" stroke="#fff" stroke-width="1"/>
        </g>
        <g id="Group_87-2" data-name="Group 87" transform="translate(8.514 51.867)">
          <path id="Path_378-2" data-name="Path 378" d="M1.736,6.772H0A50.9,50.9,0,0,1,.453,0l1.72.232A49.252,49.252,0,0,0,1.736,6.772Z" fill="#fff" stroke="#fff" stroke-width="1"/>
        </g>
        <g id="Group_100-2" data-name="Group 100" transform="translate(32.145 8.944)">
          <g id="Group_88-2" data-name="Group 88" transform="translate(58.908 0)">
            <path id="Path_379-2" data-name="Path 379" d="M8.938,33.933a8.936,8.936,0,0,1-7.511-4.071A8.821,8.821,0,0,1,.2,23.165l1.7.364a7.1,7.1,0,0,0,.985,5.389,7.208,7.208,0,0,0,9.958,2.123,7.079,7.079,0,0,0,1.285-1.091l.512-.536.61.422a3.918,3.918,0,0,0,5.668-5.114l-.314-.575.467-.46a7.162,7.162,0,0,0,1.638-7.746l-.232-.588.488-.4a3.915,3.915,0,0,0-3.746-6.74l-.6.2L18.24,7.9a5.867,5.867,0,0,0-1.376-1.366l-.393-.269.016-.476a3.932,3.932,0,0,0-6.076-3.427A3.869,3.869,0,0,0,8.7,4.944L6.988,4.632A5.592,5.592,0,0,1,9.467.909a5.691,5.691,0,0,1,7.851,1.674,5.631,5.631,0,0,1,.9,2.8A7.523,7.523,0,0,1,19.262,6.4a5.648,5.648,0,0,1,5.263,9.472,8.892,8.892,0,0,1-1.808,8.6,5.652,5.652,0,0,1-7.831,7.169,8.165,8.165,0,0,1-1.1.859A8.88,8.88,0,0,1,8.938,33.933Z" fill="#fff" stroke="#fff" stroke-width="1"/>
          </g>
          <g id="Group_89-2" data-name="Group 89" transform="translate(49.093 22.11)">
            <rect id="Rectangle_10-2" data-name="Rectangle 10" width="10.182" height="1.736" transform="translate(0 7.201) rotate(-45.012)" fill="#fff" stroke="#fff" stroke-width="1"/>
          </g>
          <g id="Group_90-2" data-name="Group 90" transform="translate(53.99 27.006)">
            <rect id="Rectangle_11-2" data-name="Rectangle 11" width="10.181" height="1.736" transform="matrix(0.707, -0.707, 0.707, 0.707, 0, 7.2)" fill="#fff" stroke="#fff" stroke-width="1"/>
          </g>
          <g id="Group_91-2" data-name="Group 91" transform="translate(48.043 1.454)">
            <path id="Path_380-2" data-name="Path 380" d="M16.833,24.746h0a7.654,7.654,0,0,1-6.6-3.762A7.694,7.694,0,0,1,1.236,9.523a7.618,7.618,0,0,1,4.37-3.216A7.49,7.49,0,0,1,6.693,3.516a7.692,7.692,0,0,1,13.73,6.694c.207.109.41.227.606.354a7.71,7.71,0,0,1-4.2,14.182Zm-5.775-6.024.365.8a5.923,5.923,0,0,0,5.41,3.487h0a5.973,5.973,0,0,0,2.159-11.546l-.877-.338.407-.848A5.958,5.958,0,0,0,8.15,4.46a5.9,5.9,0,0,0-.9,2.642l-.066.639-.63.124a5.922,5.922,0,0,0-3.858,2.6,5.989,5.989,0,0,0,1.763,8.266,6.059,6.059,0,0,0,5.805.366Z" fill="#fff" stroke="#fff" stroke-width="1"/>
          </g>
          <g id="Group_92-2" data-name="Group 92" transform="translate(0 27.111)">
            <path id="Path_381-2" data-name="Path 381" d="M1.74,58.59A1.614,1.614,0,0,1,.2,57.743c-.382-.732-.537-2.21,2.505-6.558L34.548,5.676A12.642,12.642,0,0,1,44.907,0a12.94,12.94,0,0,1,9.131,3.968l.587.587a12.706,12.706,0,0,1,3.922,10.164,12.709,12.709,0,0,1-5.63,9.328L7.408,55.885C4.807,57.705,2.952,58.59,1.74,58.59Zm0-1.736h0c.295,0,1.5-.173,4.674-2.392L51.922,22.624a11,11,0,0,0,4.9-8.057A11,11,0,0,0,53.4,5.781l-.587-.587a11.222,11.222,0,0,0-7.9-3.458,10.934,10.934,0,0,0-8.937,4.935L4.13,52.18C1.929,55.325,1.737,56.528,1.738,56.855Z" fill="#fff" stroke="#fff" stroke-width="1"/>
          </g>
          <g id="Group_93-2" data-name="Group 93" transform="translate(33.131 34.673)">
            <rect id="Rectangle_12-2" data-name="Rectangle 12" width="1.736" height="6.408" transform="translate(0 1.227) rotate(-44.996)" fill="#fff" stroke="#fff" stroke-width="1"/>
          </g>
          <g id="Group_94-2" data-name="Group 94" transform="translate(49.36 42.904)">
            <rect id="Rectangle_13-2" data-name="Rectangle 13" width="1.736" height="6.503" transform="translate(0 1.227) rotate(-44.993)" fill="#fff" stroke="#fff" stroke-width="1"/>
          </g>
          <g id="Group_95-2" data-name="Group 95" transform="translate(36.062 45.603)">
            <rect id="Rectangle_14-2" data-name="Rectangle 14" width="1.736" height="6.411" transform="matrix(0.707, -0.707, 0.707, 0.707, 0, 1.228)" fill="#fff" stroke="#fff" stroke-width="1"/>
          </g>
          <g id="Group_96-2" data-name="Group 96" transform="translate(23 51.202)">
            <rect id="Rectangle_15-2" data-name="Rectangle 15" width="1.736" height="5.276" transform="translate(0 1.227) rotate(-44.991)" fill="#fff" stroke="#fff" stroke-width="1"/>
          </g>
          <g id="Group_97-2" data-name="Group 97" transform="translate(23 64)">
            <rect id="Rectangle_16-2" data-name="Rectangle 16" width="1.736" height="6.032" transform="translate(0 1.227) rotate(-44.989)" fill="#fff" stroke="#fff" stroke-width="1"/>
          </g>
          <g id="Group_98-2" data-name="Group 98" transform="translate(10.52 66.982)">
            <rect id="Rectangle_17-2" data-name="Rectangle 17" width="1.736" height="4.287" transform="matrix(0.707, -0.707, 0.707, 0.707, 0, 1.227)" fill="#fff" stroke="#fff" stroke-width="1"/>
          </g>
          <g id="Group_99-2" data-name="Group 99" transform="translate(33.43 54.701)">
            <rect id="Rectangle_18-2" data-name="Rectangle 18" width="1.736" height="5.184" transform="translate(0 1.227) rotate(-44.991)" fill="#fff" stroke="#fff" stroke-width="1"/>
          </g>
        </g>
        <g id="Group_101-2" data-name="Group 101" transform="translate(32.84 45.001)">
          <path id="Path_382-2" data-name="Path 382" d="M5.429,10.858a5.429,5.429,0,1,1,5.428-5.429A5.435,5.435,0,0,1,5.429,10.858Zm0-9.122A3.693,3.693,0,1,0,9.121,5.429,3.7,3.7,0,0,0,5.429,1.736Z" fill="#fff" stroke="#fff" stroke-width="1"/>
        </g>
        <g id="Group_102-2" data-name="Group 102" transform="translate(25.846 59.9)">
          <path id="Path_383-2" data-name="Path 383" d="M5.429,10.858a5.429,5.429,0,1,1,5.428-5.429A5.435,5.435,0,0,1,5.429,10.858Zm0-9.122A3.693,3.693,0,1,0,9.122,5.429,3.7,3.7,0,0,0,5.429,1.736Z" fill="#fff" stroke="#fff" stroke-width="1"/>
        </g>
        <g id="Group_103-2" data-name="Group 103" transform="translate(46.521 34.359)">
          <path id="Path_384-2" data-name="Path 384" d="M5.429,10.857a5.428,5.428,0,1,1,5.429-5.428A5.434,5.434,0,0,1,5.429,10.857Zm0-9.121A3.693,3.693,0,1,0,9.122,5.429,3.7,3.7,0,0,0,5.429,1.736Z" fill="#fff" stroke="#fff" stroke-width="1"/>
        </g>
        <g id="Group_104-2" data-name="Group 104" transform="translate(18.549 46.521)">
          <path id="Path_385-2" data-name="Path 385" d="M5.429,10.857a5.429,5.429,0,1,1,5.429-5.428A5.435,5.435,0,0,1,5.429,10.857Zm0-9.122A3.693,3.693,0,1,0,9.122,5.429,3.7,3.7,0,0,0,5.429,1.736Z" fill="#fff" stroke="#fff" stroke-width="1"/>
        </g>
        <g id="Group_105-2" data-name="Group 105" transform="translate(33.143 30.102)">
          <path id="Path_386-2" data-name="Path 386" d="M5.43,10.858a5.429,5.429,0,1,1,5.428-5.429A5.435,5.435,0,0,1,5.43,10.858Zm0-9.122A3.693,3.693,0,1,0,9.122,5.429,3.7,3.7,0,0,0,5.43,1.736Z" fill="#fff" stroke="#fff" stroke-width="1"/>
        </g>
        <g id="Group_106-2" data-name="Group 106" transform="translate(43.786 19.156)">
          <path id="Path_387-2" data-name="Path 387" d="M5.429,10.857a5.429,5.429,0,1,1,5.428-5.428A5.434,5.434,0,0,1,5.429,10.857Zm0-9.122A3.693,3.693,0,1,0,9.122,5.429,3.7,3.7,0,0,0,5.429,1.736Z" fill="#fff" stroke="#fff" stroke-width="1"/>
        </g>
      </g>
      <g id="Group_237" data-name="Group 237" transform="translate(323.801 241.775)">
        <g id="Group_137" data-name="Group 137">
          <g id="Group_131" data-name="Group 131">
            <path id="Path_407" data-name="Path 407" d="M1702.74,848.868a29.808,29.808,0,1,1,29.808-29.808A29.839,29.839,0,0,1,1702.74,848.868Zm0-56.942a27.135,27.135,0,1,0,27.134,27.134A27.163,27.163,0,0,0,1702.74,791.926Z" transform="translate(-1672.936 -789.253)" fill="#fff" stroke="#fff" stroke-width="1"/>
          </g>
          <g id="Group_132" data-name="Group 132" transform="translate(8.332 8.334)">
            <path id="Path_408" data-name="Path 408" d="M1703.761,841.555a21.474,21.474,0,1,1,21.474-21.476A21.5,21.5,0,0,1,1703.761,841.555Zm0-40.276a18.8,18.8,0,1,0,18.8,18.8A18.821,18.821,0,0,0,1703.761,801.279Z" transform="translate(-1682.286 -798.606)" fill="#fff" stroke="#fff" stroke-width="1"/>
          </g>
          <g id="Group_133" data-name="Group 133" transform="translate(28.469 9.823)">
            <rect id="Rectangle_22" data-name="Rectangle 22" width="2.673" height="39.814" fill="#fff" stroke="#fff" stroke-width="1"/>
          </g>
          <g id="Group_134" data-name="Group 134" transform="translate(9.901 28.393)">
            <rect id="Rectangle_23" data-name="Rectangle 23" width="39.813" height="2.673" fill="#fff" stroke="#fff" stroke-width="1"/>
          </g>
          <g id="Group_135" data-name="Group 135" transform="translate(14.786 14.709)">
            <rect id="Rectangle_24" data-name="Rectangle 24" width="39.811" height="2.673" transform="translate(0 28.151) rotate(-45)" fill="#fff" stroke="#fff" stroke-width="1"/>
          </g>
          <g id="Group_136" data-name="Group 136" transform="translate(14.787 14.708)">
            <rect id="Rectangle_25" data-name="Rectangle 25" width="2.673" height="39.811" transform="translate(0 1.89) rotate(-44.994)" fill="#fff" stroke="#fff" stroke-width="1"/>
          </g>
        </g>
      </g>
      <g id="Group_240" data-name="Group 240" transform="matrix(0.53, -0.848, 0.848, 0.53, 0, 196.269)">
        <g id="Group_169" data-name="Group 169" transform="translate(22.194 0)">
          <path id="Path_434" data-name="Path 434" d="M9.394,14.379l-.616-2.1a5.146,5.146,0,0,0,.4-9.747,5.149,5.149,0,0,0-5.77,8.135L1.735,12.081a7.337,7.337,0,1,1,7.659,2.3Z" fill="#fff" stroke="#fff" stroke-width="1"/>
        </g>
        <g id="Group_170" data-name="Group 170" transform="translate(32.851 0.149)">
          <path id="Path_435" data-name="Path 435" d="M10.646,38.491a10.191,10.191,0,0,1-10.053-8.5l2.156-.367a7.929,7.929,0,0,0,3.524,5.38,7.974,7.974,0,0,0,11.965-4.072l.314-.877.916.171A4.338,4.338,0,0,0,22.894,22.5l-.657-.5.3-.769a8.022,8.022,0,0,0-1.857-8.667l-.569-.558.356-.712a4.333,4.333,0,0,0-6.825-5.124l-.585.541-.695-.392a6.509,6.509,0,0,0-2.023-.764l-.592-.107-.226-.557A4.327,4.327,0,0,0,7.867,2.887,4.373,4.373,0,0,0,1.833,4.169L0,2.975A6.564,6.564,0,0,1,9.058,1.052,6.477,6.477,0,0,1,11.3,3.533a8.772,8.772,0,0,1,1.463.536,6.517,6.517,0,0,1,9.968,7.485,10.2,10.2,0,0,1,2.1,9.739,6.523,6.523,0,0,1-4.855,11.191,9.458,9.458,0,0,1-.719,1.343A10.25,10.25,0,0,1,10.646,38.491Z" fill="#fff" stroke="#fff" stroke-width="1"/>
        </g>
        <g id="Group_171" data-name="Group 171" transform="translate(29.632 32.093)">
          <rect id="Rectangle_26" data-name="Rectangle 26" width="11.55" height="2.188" transform="translate(0 10.785) rotate(-69.032)" fill="#fff" stroke="#fff" stroke-width="1"/>
        </g>
        <g id="Group_172" data-name="Group 172" transform="translate(35.145 36.082)">
          <rect id="Rectangle_27" data-name="Rectangle 27" width="9.54" height="2.188" transform="translate(0 8.907) rotate(-69.021)" fill="#fff" stroke="#fff" stroke-width="1"/>
        </g>
        <g id="Group_173" data-name="Group 173" transform="translate(24.95 28.761)">
          <rect id="Rectangle_28" data-name="Rectangle 28" width="12.309" height="2.187" transform="translate(0 11.495) rotate(-69.049)" fill="#fff" stroke="#fff" stroke-width="1"/>
        </g>
        <g id="Group_174" data-name="Group 174" transform="translate(39.437 13.166)">
          <path id="Path_436" data-name="Path 436" d="M7.7,13.714,6.562,11.847a5.211,5.211,0,1,0-5.423-8.9L0,1.08A7.4,7.4,0,1,1,7.7,13.714Z" fill="#fff" stroke="#fff" stroke-width="1"/>
        </g>
        <g id="Group_175" data-name="Group 175" transform="translate(17.091 10.111)">
          <path id="Path_437" data-name="Path 437" d="M7.4,21.9A7.4,7.4,0,0,1,.091,13.352,7.3,7.3,0,0,1,2.523,8.945a7.177,7.177,0,0,1-.1-2.694A7.355,7.355,0,0,1,9.725,0a7.37,7.37,0,0,1,7.324,6.5c.141.015.282.032.421.053a7.4,7.4,0,0,1-1.135,14.708h0a7.511,7.511,0,0,1-1.156-.09,7.271,7.271,0,0,1-2.9-1.131A7.364,7.364,0,0,1,7.4,21.9ZM9.725,2.188A5.157,5.157,0,0,0,4.808,9.014l.252.769-.661.466a5.2,5.2,0,1,0,6.944,7.627l.721-.841.832.733a5.15,5.15,0,0,0,2.618,1.242,5.278,5.278,0,0,0,.82.065,5.211,5.211,0,0,0,.8-10.359,5.4,5.4,0,0,0-1.072-.055l-1.18.057.033-1.181A5.186,5.186,0,0,0,9.725,2.188Z" fill="#fff" stroke="#fff" stroke-width="1"/>
        </g>
        <g id="Group_176" data-name="Group 176" transform="translate(0 39.883)">
          <path id="Path_438" data-name="Path 438" d="M2.186,82.268a1.858,1.858,0,0,1-1.448-.694C.156,80.867-.5,79.3.566,73.811L12.519,11.944C13.9,4.8,19.472,0,26.387,0a15.863,15.863,0,0,1,5.684,1.084l.88.338a14.518,14.518,0,0,1,8.824,8.784,14.517,14.517,0,0,1-1.532,12.359L7.808,76.584C4.749,81.679,3.134,82.268,2.186,82.268Zm24.2-80.081c-5.836,0-10.546,4.088-11.721,10.171L2.713,74.226C1.96,78.117,2.2,79.549,2.346,80c.412-.236,1.546-1.143,3.587-4.542l32.435-54.02a12.376,12.376,0,0,0,1.34-10.52,12.372,12.372,0,0,0-7.54-7.454l-.88-.338A13.67,13.67,0,0,0,26.387,2.187Z" fill="#fff" stroke="#fff" stroke-width="1"/>
        </g>
        <g id="Group_177" data-name="Group 177" transform="translate(12.558 53.786)">
          <rect id="Rectangle_29" data-name="Rectangle 29" width="2.188" height="7.271" transform="translate(0 2.043) rotate(-69.035)" fill="#fff" stroke="#fff" stroke-width="1"/>
        </g>
        <g id="Group_178" data-name="Group 178" transform="translate(33.179 54.816)">
          <rect id="Rectangle_30" data-name="Rectangle 30" width="2.188" height="7.377" transform="translate(0 2.043) rotate(-69.039)" fill="#fff" stroke="#fff" stroke-width="1"/>
        </g>
        <g id="Group_179" data-name="Group 179" transform="translate(20.649 63.758)">
          <rect id="Rectangle_31" data-name="Rectangle 31" width="2.187" height="7.272" transform="matrix(0.357, -0.934, 0.934, 0.357, 0, 2.043)" fill="#fff" stroke="#fff" stroke-width="1"/>
        </g>
        <g id="Group_180" data-name="Group 180" transform="translate(9.702 75.596)">
          <rect id="Rectangle_32" data-name="Rectangle 32" width="2.187" height="5.987" transform="translate(0 2.042) rotate(-69.027)" fill="#fff" stroke="#fff" stroke-width="1"/>
        </g>
        <g id="Group_181" data-name="Group 181" transform="translate(15.617 88.854)">
          <rect id="Rectangle_33" data-name="Rectangle 33" width="2.188" height="6.844" transform="translate(0 2.043) rotate(-69.032)" fill="#fff" stroke="#fff" stroke-width="1"/>
        </g>
        <g id="Group_182" data-name="Group 182" transform="translate(4.065 97.713)">
          <rect id="Rectangle_34" data-name="Rectangle 34" width="2.188" height="4.863" transform="translate(0 2.043) rotate(-69.041)" fill="#fff" stroke="#fff" stroke-width="1"/>
        </g>
        <g id="Group_183" data-name="Group 183" transform="translate(22.126 74.4)">
          <rect id="Rectangle_35" data-name="Rectangle 35" width="2.188" height="5.881" transform="translate(0 2.043) rotate(-69.032)" fill="#fff" stroke="#fff" stroke-width="1"/>
        </g>
      </g>
      <g id="Group_244" data-name="Group 244" transform="translate(23.529 61.308)">
        <g id="Group_187" data-name="Group 187">
          <g id="Group_186" data-name="Group 186">
            <g id="Group_185" data-name="Group 185">
              <path id="Path_439" data-name="Path 439" d="M1525.1,641.165a38.345,38.345,0,1,1,38.333-38.361A38.385,38.385,0,0,1,1525.1,641.165Zm0-74.5a36.157,36.157,0,1,0,36.145,36.142A36.179,36.179,0,0,0,1525.1,566.662Z" transform="translate(-1486.779 -564.475)" fill="#fff" stroke="#fff" stroke-width="1"/>
            </g>
          </g>
        </g>
        <g id="Group_190" data-name="Group 190" transform="translate(38.322 14.86)">
          <g id="Group_189" data-name="Group 189">
            <g id="Group_188" data-name="Group 188">
              <path id="Path_440" data-name="Path 440" d="M1539.335,640.1V637.91a29.57,29.57,0,0,0,19.9-51.438l1.474-1.617a31.757,31.757,0,0,1-21.37,55.243Z" transform="translate(-1539.335 -584.855)" fill="#fff" stroke="#fff" stroke-width="1"/>
            </g>
          </g>
        </g>
        <g id="Group_191" data-name="Group 191" transform="translate(18.614 5.007)">
          <path id="Path_441" data-name="Path 441" d="M1525.747,602.041a1.094,1.094,0,0,1-1-.652l-3.241-7.351-7.986.869a1.093,1.093,0,0,1-1-1.733l4.744-6.482-4.744-6.483a1.093,1.093,0,0,1,1-1.732l7.985.869,3.242-7.351a1.094,1.094,0,0,1,1-.653h0a1.092,1.092,0,0,1,1,.653l3.242,7.351,7.985-.869a1.094,1.094,0,0,1,1,1.732l-4.744,6.483,4.744,6.482a1.094,1.094,0,0,1-1,1.733l-7.985-.869-3.242,7.35A1.092,1.092,0,0,1,1525.747,602.041Zm-3.563-10.27a1.1,1.1,0,0,1,1,.653l2.563,5.814,2.563-5.813a1.1,1.1,0,0,1,1.119-.647l6.316.688-3.752-5.127a1.09,1.09,0,0,1,0-1.291l3.752-5.127-6.316.688a1.1,1.1,0,0,1-1.119-.646l-2.563-5.814-2.563,5.814a1.092,1.092,0,0,1-1.12.646l-6.315-.687,3.753,5.127a1.09,1.09,0,0,1,0,1.291l-3.753,5.127,6.315-.688C1522.1,591.774,1522.144,591.771,1522.184,591.771Z" transform="translate(-1512.308 -571.342)" fill="#fff" stroke="#fff" stroke-width="1"/>
        </g>
        <g id="Group_192" data-name="Group 192" transform="translate(30.762 4.465)">
          <path id="Path_442" data-name="Path 442" d="M1531.12,588.493l-2.153-.385a29.487,29.487,0,0,1,10.2-17.51l1.4,1.684A27.3,27.3,0,0,0,1531.12,588.493Z" transform="translate(-1528.967 -570.598)" fill="#fff" stroke="#fff" stroke-width="1"/>
        </g>
      </g>
      <g id="Group_238" data-name="Group 238" transform="translate(137.149 204.015)">
        <g id="Group_194" data-name="Group 194" transform="translate(19.107 5.709)">
          <path id="Path_443" data-name="Path 443" d="M1689.245,980.534a15.656,15.656,0,0,1,12.544-15.432l.329,1.627a13.993,13.993,0,0,0-11.212,13.792Z" transform="translate(-1689.244 -965.102)" fill="#fff" stroke="#fff" stroke-width="1"/>
        </g>
        <path id="Path_444" data-name="Path 444" d="M1677.422,1028.3a3.92,3.92,0,0,1-3.874,3.874h-3.169a11.165,11.165,0,0,1-7.164-3.25,25.853,25.853,0,0,1,0-33.291,11.172,11.172,0,0,1,7.164-3.251h3.169a3.92,3.92,0,0,1,3.874,3.874Z" transform="translate(-1655.805 -971.573)" fill="#fff" stroke="#fff" stroke-width="1"/>
        <g id="Group_195" data-name="Group 195" transform="translate(0.558 19.98)">
          <path id="Path_445" data-name="Path 445" d="M1672.939,1032.336h-3.189a12.034,12.034,0,0,1-7.79-3.536,26.845,26.845,0,0,1-.007-34.372,12.034,12.034,0,0,1,7.792-3.545h3.175a4.665,4.665,0,0,1,2.878,1l-1.031,1.3a3,3,0,0,0-1.843-.644h-3.174a10.447,10.447,0,0,0-6.536,2.964,25.166,25.166,0,0,0,.006,32.211,10.445,10.445,0,0,0,6.536,2.956h3.164a3,3,0,0,0,1.652-.5l.924,1.38A4.581,4.581,0,0,1,1672.939,1032.336Z" transform="translate(-1655.734 -990.884)" fill="#fff" stroke="#fff" stroke-width="1"/>
        </g>
        <g id="Group_196" data-name="Group 196" transform="translate(9.416 19.98)">
          <path id="Path_446" data-name="Path 446" d="M1691.306,1032.336h-5.552a12.024,12.024,0,0,1-7.791-3.536,26.844,26.844,0,0,1-.008-34.372,12.05,12.05,0,0,1,7.793-3.545h5.555a12.04,12.04,0,0,1,7.791,3.536,26.849,26.849,0,0,1,.007,34.373,12.041,12.041,0,0,1-7.792,3.544Zm-5.552-39.792a10.466,10.466,0,0,0-6.538,2.965,25.165,25.165,0,0,0,.009,32.211,10.433,10.433,0,0,0,6.534,2.955h5.542a10.455,10.455,0,0,0,6.54-2.964,25.166,25.166,0,0,0-.008-32.212,10.444,10.444,0,0,0-6.536-2.955Z" transform="translate(-1671.737 -990.884)" fill="#fff" stroke="#fff" stroke-width="1"/>
        </g>
        <g id="Group_197" data-name="Group 197" transform="translate(23.434 27.167)">
          <path id="Path_447" data-name="Path 447" d="M1697.06,1032.55v-1.661h5.51a5.717,5.717,0,0,0,2.358-1.04,19.546,19.546,0,0,0-.023-24.913l1.27-1.07a21.229,21.229,0,0,1,0,27.075,6.779,6.779,0,0,1-3.573,1.608Z" transform="translate(-1697.06 -1003.867)" fill="#fff" stroke="#fff" stroke-width="1"/>
        </g>
        <g id="Group_200" data-name="Group 200">
          <g id="Group_198" data-name="Group 198">
            <path id="Path_448" data-name="Path 448" d="M1671.974,972.91A17.485,17.485,0,0,1,1661,968.42c-4.2-3.6-6.593-8.452-6.24-12.675l.048-.581.563-.152a6.56,6.56,0,0,1,1.705-.225,9.494,9.494,0,0,1,5.611,2.179l.385-1.267.857.376a20.028,20.028,0,0,1,4.95,3.133c4.2,3.595,6.593,8.451,6.24,12.673l-.05.6-.58.142A10.628,10.628,0,0,1,1671.974,972.91ZM1656.387,956.5c-.026,3.518,2.154,7.635,5.691,10.661a15.812,15.812,0,0,0,9.9,4.091,9.32,9.32,0,0,0,1.518-.121c.024-3.517-2.155-7.632-5.692-10.658a18.608,18.608,0,0,0-3.69-2.473l-.622,2.046-.982-1.03c-.024-.024-2.5-2.566-5.43-2.566A4.895,4.895,0,0,0,1656.387,956.5Z" transform="translate(-1654.725 -954.788)" fill="#fff" stroke="#fff" stroke-width="1"/>
          </g>
          <g id="Group_199" data-name="Group 199" transform="translate(8.679 7.482)">
            <rect id="Rectangle_36" data-name="Rectangle 36" width="1.661" height="13.845" transform="matrix(0.65, -0.76, 0.76, 0.65, 0, 1.262)" fill="#fff" stroke="#fff" stroke-width="1"/>
          </g>
        </g>
      </g>
      <g id="Group_209" data-name="Group 209" transform="translate(383.413 171.9)">
        <g id="Group_202" data-name="Group 202" transform="translate(0 3.573)">
          <path id="Path_449" data-name="Path 449" d="M2053.2,214.7a33.9,33.9,0,0,1-12.148-2.235,1.1,1.1,0,0,1-.566-.494,34.465,34.465,0,0,1,30.23-50.944,33.875,33.875,0,0,1,12.137,2.232,1.1,1.1,0,0,1,.568.494A34.462,34.462,0,0,1,2053.2,214.7Zm-10.99-4.137a31.738,31.738,0,0,0,10.99,1.95,32.276,32.276,0,0,0,28.5-47.35,31.7,31.7,0,0,0-10.98-1.947,32.28,32.28,0,0,0-28.507,47.347Z" transform="translate(-2036.286 -161.031)" fill="#fff" stroke="#fff" stroke-width="1"/>
        </g>
        <g id="Group_203" data-name="Group 203" transform="translate(4.067 7.158)">
          <path id="Path_450" data-name="Path 450" d="M2042.957,213.872a1.094,1.094,0,0,1-.824-1.811l39.787-45.737a1.094,1.094,0,0,1,1.651,1.436L2043.783,213.5A1.094,1.094,0,0,1,2042.957,213.872Z" transform="translate(-2041.864 -165.947)" fill="#fff" stroke="#fff" stroke-width="1"/>
        </g>
        <g id="Group_204" data-name="Group 204" transform="translate(45.178)">
          <path id="Path_451" data-name="Path 451" d="M2099.339,163.954a1.094,1.094,0,0,1-.826-1.811l4.908-5.636a1.094,1.094,0,0,1,1.649,1.436l-4.906,5.636A1.091,1.091,0,0,1,2099.339,163.954Z" transform="translate(-2098.244 -156.131)" fill="#fff" stroke="#fff" stroke-width="1"/>
        </g>
        <g id="Group_205" data-name="Group 205" transform="translate(23.542 31.757)">
          <path id="Path_452" data-name="Path 452" d="M2071.9,222.162a1.094,1.094,0,0,1-1.085-.974l-2.232-20.29a1.094,1.094,0,1,1,2.174-.238l2.232,20.289a1.094,1.094,0,0,1-.968,1.207A1.124,1.124,0,0,1,2071.9,222.162Z" transform="translate(-2068.573 -199.684)" fill="#fff" stroke="#fff" stroke-width="1"/>
        </g>
        <g id="Group_206" data-name="Group 206" transform="translate(36.76 16.423)">
          <path id="Path_453" data-name="Path 453" d="M2090.81,208.306a1.094,1.094,0,0,1-1.086-.975l-3.017-27.463a1.094,1.094,0,1,1,2.174-.24l3.017,27.465a1.094,1.094,0,0,1-.968,1.207A1.117,1.117,0,0,1,2090.81,208.306Z" transform="translate(-2086.701 -178.654)" fill="#fff" stroke="#fff" stroke-width="1"/>
        </g>
        <g id="Group_207" data-name="Group 207" transform="translate(1.905 30.679)">
          <path id="Path_454" data-name="Path 454" d="M2039.992,201a1.094,1.094,0,0,1-.032-2.187l20.407-.607a1.094,1.094,0,1,1,.065,2.186l-20.407.607Z" transform="translate(-2038.898 -198.205)" fill="#fff" stroke="#fff" stroke-width="1"/>
        </g>
        <g id="Group_208" data-name="Group 208" transform="translate(8.048 15.472)">
          <path id="Path_455" data-name="Path 455" d="M2048.417,180.346a1.094,1.094,0,0,1-.032-2.187L2076,177.35a1.094,1.094,0,1,1,.064,2.187l-27.613.809Z" transform="translate(-2047.323 -177.349)" fill="#fff" stroke="#fff" stroke-width="1"/>
        </g>
      </g>
      <g id="Group_212" data-name="Group 212" transform="translate(403.071 255.278)">
        <g id="Group_210" data-name="Group 210">
          <path id="Path_456" data-name="Path 456" d="M2065.033,267.654h0a28.576,28.576,0,0,1-9.92-1.655,1.094,1.094,0,0,1-.595-1.527c3.385-6.576,10.165-12.227,18.6-15.506a39.869,39.869,0,0,1,14.269-2.782,28.568,28.568,0,0,1,9.922,1.656,1.094,1.094,0,0,1,.594,1.526c-3.384,6.576-10.164,12.228-18.6,15.506A39.866,39.866,0,0,1,2065.033,267.654Zm-7.954-3.3a27.237,27.237,0,0,0,7.952,1.112h0a37.667,37.667,0,0,0,13.475-2.633c7.455-2.9,13.515-7.72,16.831-13.35a27.228,27.228,0,0,0-7.953-1.112A37.668,37.668,0,0,0,2073.909,251C2066.455,253.9,2060.395,258.724,2057.079,264.355Z" transform="translate(-2054.396 -246.184)" fill="#fff" stroke="#fff" stroke-width="1"/>
        </g>
        <g id="Group_211" data-name="Group 211" transform="translate(2.114 1.62)">
          <path id="Path_457" data-name="Path 457" d="M2058.391,265.847a1.094,1.094,0,0,1-.4-2.113l39.239-15.253a1.094,1.094,0,1,1,.792,2.039l-39.238,15.253A1.092,1.092,0,0,1,2058.391,265.847Z" transform="translate(-2057.296 -248.406)" fill="#fff" stroke="#fff" stroke-width="1"/>
        </g>
      </g>
      <g id="Group_215" data-name="Group 215" transform="translate(389.274 299.216)">
        <g id="Group_213" data-name="Group 213">
          <path id="Path_458" data-name="Path 458" d="M2056.6,329.6h0c-9.015,0-18.8-3.134-27.566-8.824-10.627-6.9-18.3-16.567-21.065-26.527a1.094,1.094,0,0,1,.893-1.373,35.329,35.329,0,0,1,5.236-.38c9.013,0,18.8,3.135,27.565,8.827,10.629,6.9,18.306,16.566,21.062,26.525a1.094,1.094,0,0,1-.892,1.373A35.4,35.4,0,0,1,2056.6,329.6Zm-46.161-34.723c2.89,9.023,10.036,17.735,19.786,24.065,8.412,5.462,17.778,8.471,26.374,8.471h0a34.055,34.055,0,0,0,3.654-.192c-2.888-9.022-10.033-17.733-19.782-24.062-8.414-5.465-17.781-8.474-26.375-8.474A33.919,33.919,0,0,0,2010.438,294.876Z" transform="translate(-2007.929 -292.495)" fill="#fff" stroke="#fff" stroke-width="1"/>
        </g>
        <g id="Group_214" data-name="Group 214" transform="translate(2.686 2.112)">
          <path id="Path_459" data-name="Path 459" d="M2062.559,329.948a1.085,1.085,0,0,1-.594-.176L2012.11,297.4a1.094,1.094,0,0,1,1.192-1.835l49.854,32.369a1.094,1.094,0,0,1-.6,2.012Z" transform="translate(-2011.612 -295.392)" fill="#fff" stroke="#fff" stroke-width="1"/>
        </g>
      </g>
      <g id="Group_218" data-name="Group 218" transform="translate(31.912 259.256)">
        <g id="Group_216" data-name="Group 216">
          <path id="Path_460" data-name="Path 460" d="M1571.21,278.431h0c-9.931,0-20.713-3.48-30.358-9.8-11.625-7.61-20-18.245-22.984-29.177a1.093,1.093,0,0,1,.9-1.369,38.7,38.7,0,0,1,5.572-.394c9.928,0,20.709,3.48,30.358,9.8,11.625,7.612,20,18.247,22.983,29.177a1.094,1.094,0,0,1-.9,1.37A38.782,38.782,0,0,1,1571.21,278.431Zm-50.879-38.339c3.117,10,10.967,19.673,21.717,26.711,9.293,6.087,19.649,9.44,29.161,9.44h0a37.44,37.44,0,0,0,4-.211c-3.118-9.995-10.968-19.671-21.717-26.711-9.3-6.088-19.653-9.441-29.16-9.441A37.465,37.465,0,0,0,1520.331,240.092Z" transform="translate(-1517.829 -237.693)" fill="#fff" stroke="#fff" stroke-width="1"/>
        </g>
        <g id="Group_217" data-name="Group 217" transform="translate(0.117 0.461)">
          <path id="Path_461" data-name="Path 461" d="M1573.721,276.291a1.09,1.09,0,0,1-.6-.179l-54.639-35.779a1.094,1.094,0,1,1,1.2-1.83l54.639,35.778a1.094,1.094,0,0,1-.6,2.009Z" transform="translate(-1517.989 -238.325)" fill="#fff" stroke="#fff" stroke-width="1"/>
        </g>
      </g>
      <g id="Group_221" data-name="Group 221" transform="translate(11.021 301.39)">
        <g id="Group_219" data-name="Group 219">
          <path id="Path_462" data-name="Path 462" d="M1497.368,330.38h0a36.518,36.518,0,0,1-7.317-.713,1.093,1.093,0,0,1-.817-1.419c3.284-9.8,11.464-19.044,22.441-25.368,8.286-4.773,17.479-7.4,25.889-7.4a36.525,36.525,0,0,1,7.316.713,1.093,1.093,0,0,1,.818,1.418c-3.282,9.8-11.463,19.045-22.444,25.368C1514.971,327.75,1505.775,330.38,1497.368,330.38Zm-5.634-2.628a35.158,35.158,0,0,0,5.634.44,50.856,50.856,0,0,0,24.794-7.111c10.075-5.8,17.673-14.12,21.037-22.976a35.2,35.2,0,0,0-5.635-.44,50.862,50.862,0,0,0-24.8,7.111C1502.7,310.577,1495.1,318.9,1491.734,327.752Z" transform="translate(-1489.177 -295.477)" fill="#fff" stroke="#fff" stroke-width="1"/>
        </g>
        <g id="Group_220" data-name="Group 220" transform="translate(0.11 2.288)">
          <path id="Path_463" data-name="Path 463" d="M1490.423,330.476a1.094,1.094,0,0,1-.547-2.042l51.5-29.672a1.094,1.094,0,1,1,1.092,1.9l-51.5,29.673A1.09,1.09,0,0,1,1490.423,330.476Z" transform="translate(-1489.328 -298.615)" fill="#fff" stroke="#fff" stroke-width="1"/>
        </g>
      </g>
      <g id="Group_224" data-name="Group 224" transform="translate(57.723 324.893)">
        <g id="Group_222" data-name="Group 222">
          <path id="Path_464" data-name="Path 464" d="M1557.3,365.841a1.139,1.139,0,0,1-.226-.023,1.1,1.1,0,0,1-.725-.529c-3.048-5.348-3.911-12.636-2.369-20s5.256-13.693,10.2-17.366a1.094,1.094,0,0,1,1.6.336c3.048,5.346,3.913,12.635,2.37,20s-5.26,13.7-10.2,17.368A1.087,1.087,0,0,1,1557.3,365.841Zm7.177-35.356c-4.016,3.446-7.032,8.926-8.356,15.255s-.763,12.558,1.531,17.326c4.016-3.445,7.031-8.926,8.358-15.258S1566.768,335.252,1564.473,330.485Z" transform="translate(-1553.227 -327.71)" fill="#fff" stroke="#fff" stroke-width="1"/>
        </g>
        <g id="Group_223" data-name="Group 223" transform="translate(2.991 1.833)">
          <path id="Path_465" data-name="Path 465" d="M1558.423,366.449a1.093,1.093,0,0,1-1.071-1.318l7.129-34.039a1.094,1.094,0,0,1,2.141.448l-7.129,34.039A1.093,1.093,0,0,1,1558.423,366.449Z" transform="translate(-1557.328 -330.224)" fill="#fff" stroke="#fff" stroke-width="1"/>
        </g>
      </g>
      <g id="Group_232" data-name="Group 232" transform="translate(364.315 341.242)">
        <g id="Group_225" data-name="Group 225" transform="translate(6.575)">
          <path id="Path_466" data-name="Path 466" d="M2017.189,398.286a34.481,34.481,0,0,1-34.249-38.241,1.1,1.1,0,0,1,.337-.672,34.434,34.434,0,0,1,57.676,29.007,1.093,1.093,0,0,1-.338.672A34.094,34.094,0,0,1,2017.189,398.286Zm-32.12-37.59a32.3,32.3,0,0,0,32.12,35.4,31.916,31.916,0,0,0,21.634-8.368,32.3,32.3,0,0,0-32.112-35.412A31.917,31.917,0,0,0,1985.07,360.7Z" transform="translate(-1982.717 -350.131)" fill="#fff" stroke="#fff" stroke-width="1"/>
        </g>
        <g id="Group_226" data-name="Group 226" transform="translate(8.477 9.788)">
          <path id="Path_467" data-name="Path 467" d="M2040.573,392.985a1.091,1.091,0,0,1-.491-.118l-54.155-27.242a1.093,1.093,0,0,1,.983-1.953l54.156,27.242a1.094,1.094,0,0,1-.493,2.072Z" transform="translate(-1985.325 -363.554)" fill="#fff" stroke="#fff" stroke-width="1"/>
        </g>
        <g id="Group_227" data-name="Group 227" transform="translate(0 5.521)">
          <path id="Path_468" data-name="Path 468" d="M1981.467,363.251a1.078,1.078,0,0,1-.49-.117l-6.676-3.36a1.094,1.094,0,0,1,.984-1.954l6.675,3.361a1.094,1.094,0,0,1-.492,2.071Z" transform="translate(-1973.699 -357.703)" fill="#fff" stroke="#fff" stroke-width="1"/>
        </g>
        <g id="Group_228" data-name="Group 228" transform="translate(37.334 16.207)">
          <path id="Path_469" data-name="Path 469" d="M2025.995,381.726a1.094,1.094,0,0,1-.385-2.118l19.109-7.179a1.094,1.094,0,1,1,.769,2.048l-19.107,7.18A1.11,1.11,0,0,1,2025.995,381.726Z" transform="translate(-2024.901 -372.358)" fill="#fff" stroke="#fff" stroke-width="1"/>
        </g>
        <g id="Group_229" data-name="Group 229" transform="translate(19.208 4.657)">
          <path id="Path_470" data-name="Path 470" d="M2001.136,368.419a1.094,1.094,0,0,1-.384-2.118l25.866-9.713a1.094,1.094,0,0,1,.77,2.048l-25.867,9.713A1.094,1.094,0,0,1,2001.136,368.419Z" transform="translate(-2000.042 -356.518)" fill="#fff" stroke="#fff" stroke-width="1"/>
        </g>
        <g id="Group_230" data-name="Group 230" transform="translate(36.594 24.846)">
          <path id="Path_471" data-name="Path 471" d="M2030.613,406.016a1.093,1.093,0,0,1-1.051-.792l-5.635-19.623a1.094,1.094,0,0,1,2.1-.6l5.634,19.624a1.1,1.1,0,0,1-.75,1.353A1.082,1.082,0,0,1,2030.613,406.016Z" transform="translate(-2023.885 -384.205)" fill="#fff" stroke="#fff" stroke-width="1"/>
        </g>
        <g id="Group_231" data-name="Group 231" transform="translate(18.558 15.671)">
          <path id="Path_472" data-name="Path 472" d="M2007.856,400.366a1.092,1.092,0,0,1-1.05-.793l-7.612-26.555a1.094,1.094,0,0,1,2.1-.6l7.611,26.556a1.093,1.093,0,0,1-.75,1.353A1.081,1.081,0,0,1,2007.856,400.366Z" transform="translate(-1999.151 -371.623)" fill="#fff" stroke="#fff" stroke-width="1"/>
        </g>
      </g>
    </g>
    <g id="Group_246" data-name="Group 246" transform="translate(102.327 267.576)">
      <g id="Group_141" data-name="Group 141" transform="translate(0 19.573)">
        <g id="Group_140" data-name="Group 140">
          <g id="Group_139" data-name="Group 139">
            <path id="Path_409" data-name="Path 409" d="M1552.905,498.035a35.924,35.924,0,0,1-24.263-62.328l1.225,1.329a34.119,34.119,0,1,0,40.9-3.968,33.786,33.786,0,0,0-26.723-3.841l-.472-1.744a35.9,35.9,0,1,1,17.781,69.548A36.177,36.177,0,0,1,1552.905,498.035Z" transform="translate(-1517.072 -426.213)" fill="#fff" stroke="#fff" stroke-width="1"/>
          </g>
        </g>
      </g>
      <g id="Group_144" data-name="Group 144" transform="translate(5.979)">
        <g id="Group_142" data-name="Group 142">
          <path id="Path_410" data-name="Path 410" d="M1541.906,431.64a.9.9,0,0,1-.441-.115,29.633,29.633,0,0,1-3.735-2.458c-11.061-8.6-14.067-23.3-6.7-32.778a18.879,18.879,0,0,1,2.194-2.328.906.906,0,0,1,1.051-.121,29.5,29.5,0,0,1,3.735,2.459c11.062,8.6,14.068,23.306,6.7,32.777a18.824,18.824,0,0,1-2.2,2.33A.9.9,0,0,1,1541.906,431.64Zm-7.943-35.9a15.762,15.762,0,0,0-1.509,1.656c-6.752,8.686-3.887,22.253,6.386,30.24a26.993,26.993,0,0,0,2.937,1.98,15.724,15.724,0,0,0,1.508-1.656c6.753-8.684,3.888-22.25-6.387-30.241A27.2,27.2,0,0,0,1533.963,395.744Z" transform="translate(-1526.996 -393.725)" fill="#fff" stroke="#fff" stroke-width="1"/>
        </g>
        <g id="Group_143" data-name="Group 143" transform="translate(5.898 0)">
          <path id="Path_411" data-name="Path 411" d="M1545.834,431.605a.9.9,0,0,1-.842-.574c-4.686-11.973-8.061-26.922-8.207-36.354a.9.9,0,0,1,.236-.622,1.469,1.469,0,0,1,.156-.146.906.906,0,0,1,.989-.07,29.517,29.517,0,0,1,3.734,2.459c11.062,8.6,14.068,23.306,6.7,32.777a18.674,18.674,0,0,1-2.16,2.295A.9.9,0,0,1,1545.834,431.605Zm-7.19-35.381c.443,8.924,3.43,21.974,7.543,32.876a14.514,14.514,0,0,0,.99-1.136c6.753-8.683,3.888-22.249-6.387-30.24C1540.125,397.206,1539.407,396.7,1538.644,396.224Z" transform="translate(-1536.785 -393.725)" fill="#fff" stroke="#fff" stroke-width="1"/>
        </g>
      </g>
      <g id="Group_147" data-name="Group 147" transform="translate(20.295 28.671)">
        <g id="Group_145" data-name="Group 145">
          <path id="Path_412" data-name="Path 412" d="M1562.591,456.053a13.984,13.984,0,0,1-10.3-4.242,13.1,13.1,0,0,1-1.378-1.762.9.9,0,0,1,.039-1.055,19.972,19.972,0,0,1,2.072-2.3,19.09,19.09,0,0,1,12.913-5.381,13.991,13.991,0,0,1,10.306,4.241,13.4,13.4,0,0,1,1.378,1.757.9.9,0,0,1-.039,1.058,20.643,20.643,0,0,1-2.073,2.3A19.1,19.1,0,0,1,1562.591,456.053Zm-9.8-6.466a10.136,10.136,0,0,0,.811.981,12.192,12.192,0,0,0,8.99,3.677,17.277,17.277,0,0,0,11.671-4.887,18.451,18.451,0,0,0,1.476-1.581,10.618,10.618,0,0,0-.812-.981,12.2,12.2,0,0,0-8.992-3.675,17.273,17.273,0,0,0-11.671,4.887A17.549,17.549,0,0,0,1552.791,449.588Z" transform="translate(-1550.76 -441.315)" fill="#fff" stroke="#fff" stroke-width="1"/>
        </g>
        <g id="Group_146" data-name="Group 146" transform="translate(0.02 5.212)">
          <path id="Path_413" data-name="Path 413" d="M1562.6,459.493a13.985,13.985,0,0,1-10.3-4.243,13.25,13.25,0,0,1-1.355-1.73.9.9,0,0,1,.552-1.384,92.7,92.7,0,0,1,19.228-2.169,46.966,46.966,0,0,1,6.256.367.9.9,0,0,1,.483.225,1.053,1.053,0,0,1,.1.106.9.9,0,0,1,.028,1.146,20.686,20.686,0,0,1-2.073,2.3A19.1,19.1,0,0,1,1562.6,459.493Zm-9.346-5.887q.178.213.358.4a12.191,12.191,0,0,0,8.989,3.676,17.276,17.276,0,0,0,11.671-4.886c.287-.272.566-.555.839-.853-1.319-.114-2.789-.172-4.389-.172A91.055,91.055,0,0,0,1553.258,453.606Z" transform="translate(-1550.793 -449.967)" fill="#fff" stroke="#fff" stroke-width="1"/>
        </g>
      </g>
      <g id="Group_148" data-name="Group 148" transform="translate(7.726 43.737)">
        <path id="Path_414" data-name="Path 414" d="M1530.8,468.824a.9.9,0,0,1-.77-1.376l.425-.694a.9.9,0,1,1,1.541.945l-.426.694A.9.9,0,0,1,1530.8,468.824Z" transform="translate(-1529.895 -466.323)" fill="#fff" stroke="#fff" stroke-width="1"/>
      </g>
      <g id="Group_149" data-name="Group 149" transform="translate(13.435 44.05)">
        <path id="Path_415" data-name="Path 415" d="M1540.274,469.345a.9.9,0,0,1-.77-1.376l.425-.694a.9.9,0,0,1,1.541.944l-.426.695A.9.9,0,0,1,1540.274,469.345Z" transform="translate(-1539.372 -466.843)" fill="#fff" stroke="#fff" stroke-width="1"/>
      </g>
      <g id="Group_150" data-name="Group 150" transform="translate(10.596 48.681)">
        <path id="Path_416" data-name="Path 416" d="M1535.563,477.031a.9.9,0,0,1-.769-1.376l.425-.694a.9.9,0,0,1,1.541.945l-.426.694A.9.9,0,0,1,1535.563,477.031Z" transform="translate(-1534.66 -474.53)" fill="#fff" stroke="#fff" stroke-width="1"/>
      </g>
      <g id="Group_151" data-name="Group 151" transform="translate(7.758 53.31)">
        <path id="Path_417" data-name="Path 417" d="M1530.853,484.716a.9.9,0,0,1-.77-1.377l.426-.695a.9.9,0,0,1,1.541.945l-.426.695A.9.9,0,0,1,1530.853,484.716Z" transform="translate(-1529.95 -482.214)" fill="#fff" stroke="#fff" stroke-width="1"/>
      </g>
      <g id="Group_152" data-name="Group 152" transform="translate(16.593 49.172)">
        <path id="Path_418" data-name="Path 418" d="M1545.517,477.846a.9.9,0,0,1-.769-1.376l.426-.694a.9.9,0,0,1,1.541.945l-.426.694A.9.9,0,0,1,1545.517,477.846Z" transform="translate(-1544.615 -475.344)" fill="#fff" stroke="#fff" stroke-width="1"/>
      </g>
      <g id="Group_153" data-name="Group 153" transform="translate(13.755 53.802)">
        <path id="Path_419" data-name="Path 419" d="M1540.806,485.533a.9.9,0,0,1-.77-1.376l.427-.7a.9.9,0,0,1,1.541.945l-.427.695A.9.9,0,0,1,1540.806,485.533Z" transform="translate(-1539.903 -483.03)" fill="#fff" stroke="#fff" stroke-width="1"/>
      </g>
      <g id="Group_154" data-name="Group 154" transform="translate(10.917 58.432)">
        <path id="Path_420" data-name="Path 420" d="M1536.1,493.218a.9.9,0,0,1-.77-1.375l.426-.7a.9.9,0,0,1,1.542.944l-.425.695A.9.9,0,0,1,1536.1,493.218Z" transform="translate(-1535.193 -490.716)" fill="#fff" stroke="#fff" stroke-width="1"/>
      </g>
      <g id="Group_155" data-name="Group 155" transform="translate(8.079 63.063)">
        <path id="Path_421" data-name="Path 421" d="M1531.385,500.9a.9.9,0,0,1-.77-1.377l.425-.695a.9.9,0,0,1,1.542.945l-.426.695A.9.9,0,0,1,1531.385,500.9Z" transform="translate(-1530.482 -498.402)" fill="#fff" stroke="#fff" stroke-width="1"/>
      </g>
      <g id="Group_156" data-name="Group 156" transform="translate(16.629 58.747)">
        <path id="Path_422" data-name="Path 422" d="M1545.575,493.741a.9.9,0,0,1-.769-1.376l.426-.695a.9.9,0,1,1,1.541.943l-.425.7A.9.9,0,0,1,1545.575,493.741Z" transform="translate(-1544.673 -491.238)" fill="#fff" stroke="#fff" stroke-width="1"/>
      </g>
      <g id="Group_157" data-name="Group 157" transform="translate(13.79 63.378)">
        <path id="Path_423" data-name="Path 423" d="M1540.865,501.427a.9.9,0,0,1-.77-1.375l.425-.695a.9.9,0,1,1,1.541.943l-.425.695A.9.9,0,0,1,1540.865,501.427Z" transform="translate(-1539.962 -498.925)" fill="#fff" stroke="#fff" stroke-width="1"/>
      </g>
      <g id="Group_158" data-name="Group 158" transform="translate(10.951 68.009)">
        <path id="Path_424" data-name="Path 424" d="M1536.152,509.113a.9.9,0,0,1-.769-1.376l.426-.695a.9.9,0,0,1,1.541.945l-.426.695A.9.9,0,0,1,1536.152,509.113Z" transform="translate(-1535.25 -506.611)" fill="#fff" stroke="#fff" stroke-width="1"/>
      </g>
      <g id="Group_159" data-name="Group 159" transform="translate(19.785 63.868)">
        <path id="Path_425" data-name="Path 425" d="M1550.816,502.241a.9.9,0,0,1-.769-1.377l.425-.695a.9.9,0,1,1,1.541.945l-.427.694A.9.9,0,0,1,1550.816,502.241Z" transform="translate(-1549.913 -499.738)" fill="#fff" stroke="#fff" stroke-width="1"/>
      </g>
      <g id="Group_160" data-name="Group 160" transform="translate(16.947 68.499)">
        <path id="Path_426" data-name="Path 426" d="M1546.1,509.927a.9.9,0,0,1-.472-.134.9.9,0,0,1-.3-1.243l.427-.695a.9.9,0,0,1,1.54.945l-.426.7A.9.9,0,0,1,1546.1,509.927Z" transform="translate(-1545.202 -507.425)" fill="#fff" stroke="#fff" stroke-width="1"/>
      </g>
      <g id="Group_161" data-name="Group 161" transform="translate(14.109 73.13)">
        <path id="Path_427" data-name="Path 427" d="M1541.394,517.613a.9.9,0,0,1-.769-1.376l.425-.694a.9.9,0,0,1,1.542.943l-.426.695A.9.9,0,0,1,1541.394,517.613Z" transform="translate(-1540.491 -515.111)" fill="#fff" stroke="#fff" stroke-width="1"/>
      </g>
      <g id="Group_162" data-name="Group 162" transform="translate(22.659 68.814)">
        <path id="Path_428" data-name="Path 428" d="M1555.586,510.45a.9.9,0,0,1-.771-1.376l.427-.695a.9.9,0,1,1,1.54.945l-.426.695A.9.9,0,0,1,1555.586,510.45Z" transform="translate(-1554.682 -507.947)" fill="#fff" stroke="#fff" stroke-width="1"/>
      </g>
      <g id="Group_163" data-name="Group 163" transform="translate(19.82 73.445)">
        <path id="Path_429" data-name="Path 429" d="M1550.874,518.137a.9.9,0,0,1-.77-1.377l.426-.695a.9.9,0,0,1,1.541.945l-.426.695A.9.9,0,0,1,1550.874,518.137Z" transform="translate(-1549.971 -515.634)" fill="#fff" stroke="#fff" stroke-width="1"/>
      </g>
      <g id="Group_164" data-name="Group 164" transform="translate(28.655 69.304)">
        <path id="Path_430" data-name="Path 430" d="M1565.537,511.263a.9.9,0,0,1-.769-1.375l.425-.694a.9.9,0,1,1,1.541.943l-.425.694A.9.9,0,0,1,1565.537,511.263Z" transform="translate(-1564.635 -508.761)" fill="#fff" stroke="#fff" stroke-width="1"/>
      </g>
      <g id="Group_165" data-name="Group 165" transform="translate(25.816 73.934)">
        <path id="Path_431" data-name="Path 431" d="M1560.826,518.95a.9.9,0,0,1-.769-1.376l.425-.695a.9.9,0,1,1,1.541.944l-.426.695A.9.9,0,0,1,1560.826,518.95Z" transform="translate(-1559.923 -516.447)" fill="#fff" stroke="#fff" stroke-width="1"/>
      </g>
      <g id="Group_166" data-name="Group 166" transform="translate(22.978 78.566)">
        <path id="Path_432" data-name="Path 432" d="M1556.115,526.635a.9.9,0,0,1-.77-1.376l.426-.694a.9.9,0,1,1,1.54.945l-.425.695A.9.9,0,0,1,1556.115,526.635Z" transform="translate(-1555.212 -524.134)" fill="#fff" stroke="#fff" stroke-width="1"/>
      </g>
      <g id="Group_167" data-name="Group 167" transform="translate(28.687 78.879)">
        <path id="Path_433" data-name="Path 433" d="M1565.592,527.157a.9.9,0,0,1-.769-1.375l.426-.7a.9.9,0,0,1,1.542.945l-.426.695A.9.9,0,0,1,1565.592,527.157Z" transform="translate(-1564.689 -524.655)" fill="#fff" stroke="#fff" stroke-width="1"/>
      </g>
    </g>
  </g>
</svg>
