<svg xmlns="http://www.w3.org/2000/svg" width="440.409" height="322.074" viewBox="0 0 440.409 322.074">
    <g id="Grupo_8" data-name="Grupo 8" transform="translate(-250.12 -293)">
      <g id="Grupo_7" data-name="Grupo 7">
        <g id="logo_new_1" transform="translate(207.073 220.535)">
          <g id="Grupo_5" data-name="Grupo 5" transform="translate(7.543 17.545)">
            <g id="Grupo_1" data-name="Grupo 1" transform="translate(254.646 143.807) rotate(89.469)">
              <path id="Trazado_1" data-name="Trazado 1" d="M80.9-40.451A40.47,40.47,0,0,0,40.451-80.9h-80.9A40.47,40.47,0,0,0-80.9-40.451v80.9A40.47,40.47,0,0,0-40.451,80.9h80.9A40.47,40.47,0,0,0,80.9,40.451Z" fill="#ff7f00"/>
              <path id="Trazado_1_-_Contorno" data-name="Trazado 1 - Contorno" d="M-40.451-81.2h80.9A40.454,40.454,0,0,1,56.307-78,40.648,40.648,0,0,1,69.26-69.26,40.648,40.648,0,0,1,78-56.307a40.454,40.454,0,0,1,3.2,15.856v80.9A40.731,40.731,0,0,1,40.451,81.2h-80.9A40.454,40.454,0,0,1-56.307,78,40.648,40.648,0,0,1-69.26,69.26,40.648,40.648,0,0,1-78,56.307a40.454,40.454,0,0,1-3.2-15.856v-80.9A40.454,40.454,0,0,1-78-56.307,40.648,40.648,0,0,1-69.26-69.26,40.648,40.648,0,0,1-56.307-78,40.454,40.454,0,0,1-40.451-81.2Zm80.9,161.8A40.131,40.131,0,0,0,80.6,40.451v-80.9a39.857,39.857,0,0,0-3.157-15.622,40.051,40.051,0,0,0-8.608-12.763,40.051,40.051,0,0,0-12.763-8.608A39.857,39.857,0,0,0,40.451-80.6h-80.9a39.857,39.857,0,0,0-15.622,3.157,40.051,40.051,0,0,0-12.763,8.608,40.051,40.051,0,0,0-8.608,12.763A39.857,39.857,0,0,0-80.6-40.451v80.9a39.857,39.857,0,0,0,3.157,15.622,40.051,40.051,0,0,0,8.608,12.763,40.051,40.051,0,0,0,12.763,8.608A39.857,39.857,0,0,0-40.451,80.6Z" fill="#ff6a00"/>
            </g>
            <g id="Grupo_4" data-name="Grupo 4" transform="translate(92.962 19.322)">
              <g id="Grupo_2" data-name="Grupo 2" transform="translate(-514.771 -564.605)">
                <rect id="Rectángulo_1" data-name="Rectángulo 1" width="27.676" height="124.693" transform="translate(626.843 600.203)" fill="#fff800"/>
              </g>
              <g id="Grupo_3" data-name="Grupo 3" transform="translate(-81.801 -174.556)">
                <path id="Trazado_2" data-name="Trazado 2" d="M207.623,307.886l17.1,28.843h-34.2Z" fill="#ff7f00"/>
              </g>
            </g>
          </g>
          <g id="Grupo_6" data-name="Grupo 6" transform="translate(-28.067 517.385)">
            <path id="Trazado_3" data-name="Trazado 3" d="M24.225-3.927q-.459.969-.765,1.709a5.146,5.146,0,0,1-.689,1.224,2.508,2.508,0,0,1-.943.74A3.766,3.766,0,0,1,20.3,0H10.2Q6.12,0,6.12-3.927V-80.121A3.709,3.709,0,0,1,6.451-81.7a3.99,3.99,0,0,1,.867-1.224,3.883,3.883,0,0,1,1.224-.79A3.566,3.566,0,0,1,9.894-84H21.471a4.135,4.135,0,0,1,3.06,1.122,3.744,3.744,0,0,1,1.122,2.754V-58.9a26.484,26.484,0,0,1,3.06-2.805,18.319,18.319,0,0,1,3.544-2.167,20.374,20.374,0,0,1,4.208-1.4,23.553,23.553,0,0,1,5.1-.51A31.306,31.306,0,0,1,54.34-63.215a30.26,30.26,0,0,1,10.047,7.089,32.84,32.84,0,0,1,6.579,10.608,36.04,36.04,0,0,1,2.371,13.183,36.1,36.1,0,0,1-2.371,13.158A32.778,32.778,0,0,1,64.388-8.543,30.575,30.575,0,0,1,54.34-1.428a31.042,31.042,0,0,1-12.776,2.6A18.384,18.384,0,0,1,36.592.51,23.839,23.839,0,0,1,32.13-1.224a25.043,25.043,0,0,1-3.851-2.423,31.97,31.97,0,0,1-3.136-2.728ZM54.978-32.334a18.532,18.532,0,0,0-1.045-6.222,16.058,16.058,0,0,0-2.983-5.2A14.2,14.2,0,0,0,46.308-47.3a13.82,13.82,0,0,0-6.069-1.3,15.36,15.36,0,0,0-6.3,1.3,15.776,15.776,0,0,0-5.074,3.545,17.09,17.09,0,0,0-3.391,5.2,15.828,15.828,0,0,0-1.25,6.222v.714A15.972,15.972,0,0,0,25.678-25.6a16.1,16.1,0,0,0,3.442,4.87,15.734,15.734,0,0,0,5,3.239,15.95,15.95,0,0,0,6.12,1.173,14.3,14.3,0,0,0,6.069-1.25,14.242,14.242,0,0,0,4.641-3.392,14.949,14.949,0,0,0,2.983-5.075A18.62,18.62,0,0,0,54.978-32.334Zm26.673,0a33.721,33.721,0,0,1,1.2-9.027,33.4,33.4,0,0,1,3.366-8.033,33.3,33.3,0,0,1,5.2-6.732A32.283,32.283,0,0,1,98.175-61.3a33.863,33.863,0,0,1,8.033-3.315,34.124,34.124,0,0,1,9-1.173,33.127,33.127,0,0,1,13.031,2.576,33,33,0,0,1,10.608,7.089,33.7,33.7,0,0,1,7.14,10.608,32.952,32.952,0,0,1,2.627,13.183,33.442,33.442,0,0,1-1.2,9,33.988,33.988,0,0,1-3.366,8.033,32.986,32.986,0,0,1-5.2,6.757,32.987,32.987,0,0,1-6.758,5.2A33.437,33.437,0,0,1,124.108,0a33.362,33.362,0,0,1-8.9,1.173,34.124,34.124,0,0,1-9-1.173,33.232,33.232,0,0,1-8.033-3.34,32.986,32.986,0,0,1-6.757-5.2,32.986,32.986,0,0,1-5.2-6.757,33.988,33.988,0,0,1-3.366-8.033A33.441,33.441,0,0,1,81.651-32.334Zm18.615,0a18.62,18.62,0,0,0,1.045,6.3,15.175,15.175,0,0,0,2.958,5.075,13.892,13.892,0,0,0,4.641,3.392,14.6,14.6,0,0,0,6.146,1.25,14,14,0,0,0,5.992-1.25,13.488,13.488,0,0,0,4.539-3.392,14.965,14.965,0,0,0,2.856-5.075,19.486,19.486,0,0,0,.994-6.3,19.393,19.393,0,0,0-.994-6.222,16.089,16.089,0,0,0-2.856-5.2,13.466,13.466,0,0,0-4.539-3.545,13.536,13.536,0,0,0-5.992-1.3,14.107,14.107,0,0,0-6.146,1.3,13.85,13.85,0,0,0-4.641,3.545,16.315,16.315,0,0,0-2.958,5.2A18.532,18.532,0,0,0,100.266-32.334Zm56.508,0a33.721,33.721,0,0,1,1.2-9.027,33.4,33.4,0,0,1,3.366-8.033,33.3,33.3,0,0,1,5.2-6.732A32.283,32.283,0,0,1,173.3-61.3a33.863,33.863,0,0,1,8.033-3.315,34.124,34.124,0,0,1,9-1.173,33.127,33.127,0,0,1,13.031,2.576,33,33,0,0,1,10.608,7.089,33.7,33.7,0,0,1,7.14,10.608,32.953,32.953,0,0,1,2.626,13.183,33.442,33.442,0,0,1-1.2,9,33.988,33.988,0,0,1-3.366,8.033,32.987,32.987,0,0,1-5.2,6.757,32.986,32.986,0,0,1-6.757,5.2A33.437,33.437,0,0,1,199.232,0a33.362,33.362,0,0,1-8.9,1.173,34.124,34.124,0,0,1-9-1.173A33.232,33.232,0,0,1,173.3-3.34a32.986,32.986,0,0,1-6.757-5.2,32.987,32.987,0,0,1-5.2-6.757,33.988,33.988,0,0,1-3.366-8.033A33.442,33.442,0,0,1,156.774-32.334Zm18.615,0a18.62,18.62,0,0,0,1.046,6.3,15.175,15.175,0,0,0,2.958,5.075,13.892,13.892,0,0,0,4.641,3.392,14.6,14.6,0,0,0,6.145,1.25,14,14,0,0,0,5.993-1.25,13.489,13.489,0,0,0,4.539-3.392,14.964,14.964,0,0,0,2.856-5.075,19.485,19.485,0,0,0,.995-6.3,19.393,19.393,0,0,0-.995-6.222,16.089,16.089,0,0,0-2.856-5.2,13.466,13.466,0,0,0-4.539-3.545,13.536,13.536,0,0,0-5.993-1.3,14.107,14.107,0,0,0-6.145,1.3,13.85,13.85,0,0,0-4.641,3.545,16.315,16.315,0,0,0-2.958,5.2A18.532,18.532,0,0,0,175.389-32.334Zm58.5-47.787q0-.867.051-1.581a2.261,2.261,0,0,1,.434-1.224,2.434,2.434,0,0,1,1.2-.79,7.359,7.359,0,0,1,2.3-.28h12.189a3.463,3.463,0,0,1,1.606.331,2.949,2.949,0,0,1,1.02.841,2.808,2.808,0,0,1,.51,1.1,5.178,5.178,0,0,1,.127,1.1v37.74l18.36-20.4a4.109,4.109,0,0,1,3.162-1.479H290.5q2.8,0,2.8,2.193a2.053,2.053,0,0,1-.178.918,5.9,5.9,0,0,1-.74,1.02L271.422-38.505,297.789-4.641h-.1a4.165,4.165,0,0,1,.943,1.352,3.35,3.35,0,0,1,.281,1.249,1.808,1.808,0,0,1-.638,1.606A3.423,3.423,0,0,1,296.361,0H279.123a2.455,2.455,0,0,1-1.632-.663,10.792,10.792,0,0,1-1.683-1.989L259.131-26.265,253.47-20.4V-3.927a5.948,5.948,0,0,1-.128,1.071,3.983,3.983,0,0,1-.51,1.3,3.558,3.558,0,0,1-1.046,1.1A2.987,2.987,0,0,1,250.053,0h-12.8a2.606,2.606,0,0,1-1.581-.484,3.976,3.976,0,0,1-1.046-1.1,5.449,5.449,0,0,1-.561-1.148,3.5,3.5,0,0,1-.179-.637ZM305.9-60.792a4.414,4.414,0,0,1,.918-2.805,3.4,3.4,0,0,1,2.856-1.173h11.679a3.645,3.645,0,0,1,1.326.28,4.511,4.511,0,0,1,1.326.816,5.31,5.31,0,0,1,1.046,1.25,3.082,3.082,0,0,1,.434,1.632V-3.927a3.808,3.808,0,0,1-1.071,2.933,4.333,4.333,0,0,1-3.06.995H309.672Q305.9,0,305.9-3.927Zm0-25.806a4.126,4.126,0,0,1,.918-3.035,3.966,3.966,0,0,1,2.856-.893H321.5a4.422,4.422,0,0,1,2.882.893,3.707,3.707,0,0,1,1.1,3.035v9.945a3.645,3.645,0,0,1-.281,1.326,5.641,5.641,0,0,1-.79,1.377,4.307,4.307,0,0,1-1.25,1.1,3.216,3.216,0,0,1-1.658.434H309.672q-3.774,0-3.774-4.233Zm37.995,22.746a20.091,20.091,0,0,1,2.04-8.925A24.319,24.319,0,0,1,351.39-80.1a26.07,26.07,0,0,1,7.854-4.947,24.336,24.336,0,0,1,9.282-1.81h1.02a3.421,3.421,0,0,1,2.677,1.045,4.144,4.144,0,0,1,.944,2.882v9.741a4.879,4.879,0,0,1-.995,3.136,3.192,3.192,0,0,1-2.626,1.25h-1.02a5.506,5.506,0,0,0-2.04.382,5.976,5.976,0,0,0-1.734,1.046,5.171,5.171,0,0,0-1.224,1.555,4.229,4.229,0,0,0-.459,1.964v5.865h8.007a3.622,3.622,0,0,1,2.677.944,4.079,4.079,0,0,1,.944,2.984v9.333a4.622,4.622,0,0,1-.944,3.213,3.466,3.466,0,0,1-2.677,1.02h-8.007V-3.927a3.463,3.463,0,0,1-1.3,2.933A4.562,4.562,0,0,1,358.938,0H347.922a3.866,3.866,0,0,1-2.932-1.148,3.876,3.876,0,0,1-1.1-2.78V-40.494H338.64a4.061,4.061,0,0,1-2.882-1.02,4.2,4.2,0,0,1-1.1-3.213V-54.06a3.731,3.731,0,0,1,1.1-2.984,4.263,4.263,0,0,1,2.882-.944h5.253Zm34.119,3.978a3.984,3.984,0,0,1-.025-3.493q.791-1.454,3.493-1.454h12.6a2.881,2.881,0,0,1,2.091.791,4.945,4.945,0,0,1,1.224,1.963l14.433,41.055,14.127-41.055a4.1,4.1,0,0,1,1.428-2.193,4.386,4.386,0,0,1,2.4-.561h13.107a5.385,5.385,0,0,1,2.244.382,2.355,2.355,0,0,1,1.148,1.02,2.367,2.367,0,0,1,.229,1.428,6.369,6.369,0,0,1-.408,1.556q-1.938,4.794-4.233,10.48T437.1-38.123q-2.474,6.146-5.024,12.5T427.1-13.158q-2.422,6.12-4.667,11.755T418.328,8.951q-1.861,4.718-3.239,8.288T413,22.746l.153-.255a4.435,4.435,0,0,1-1.275,2.218,3.2,3.2,0,0,1-2.244.841H397.851a4.267,4.267,0,0,1-3.137-.892,3.694,3.694,0,0,1-.842-2.626,2.335,2.335,0,0,1,.179-1.02,2.024,2.024,0,0,1,.28-.459L402.339-.255Z" transform="translate(64.995 -148.396)" fill="#ff7f00"/>
          </g>
        </g>
      </g>
    </g>
  </svg>
  