<svg xmlns="http://www.w3.org/2000/svg" width="228" height="126.563" viewBox="0 0 228 126.563">
  <g id="Group_252" data-name="Group 252" transform="translate(-63.242 -324.439)">
    <g id="Group_5" data-name="Group 5" transform="translate(150.242 324.439)">
      <g id="Group_4" data-name="Group 4" transform="translate(0 0)">
        <path id="Path_112" data-name="Path 112" d="M196.584,164.368l-4.338-.045h-5.67c-2,0-2.722-.751-2.674-2.767a23.119,23.119,0,0,1,19.159-22.131c1.861-.315,1.861-.315,1.861-2.2v-2.348c-.731,0-1.369.013-2.006,0a2.1,2.1,0,1,1,.029-4.2q4.081-.023,8.162,0a2.089,2.089,0,0,1,2.225,2.121,2.112,2.112,0,0,1-2.268,2.083c-.609.01-1.219,0-1.922,0,0,1.347-.028,2.6.031,3.855.009.184.414.47.663.5a23.2,23.2,0,0,1,20.323,22.66,2.137,2.137,0,0,1-2.423,2.431c-1.956.006-3.913,0-5.923,0l-4.322.046m0,0H196.584" transform="translate(-180.094 -130.656)" fill="#fff"/>
        <path id="Path_113" data-name="Path 113" d="M265.633,145.139a4.9,4.9,0,0,1-.737,1.23c-.991.99-2.047,1.917-3.115,2.824a2.082,2.082,0,0,1-2.951-.141,2.051,2.051,0,0,1,.126-2.947c1.033-.988,2.106-1.936,3.189-2.869a1.94,1.94,0,0,1,2.272-.3A2.262,2.262,0,0,1,265.633,145.139Z" transform="translate(-211.751 -135.782)" fill="#fff"/>
        <path id="Path_114" data-name="Path 114" d="M182.458,149.877a7.977,7.977,0,0,1-1.437-.767c-1.015-.838-1.982-1.737-2.946-2.635a2.081,2.081,0,0,1-.239-3.061,2.058,2.058,0,0,1,3.009-.092q1.561,1.345,3.063,2.758a2.023,2.023,0,0,1,.535,2.379A2.47,2.47,0,0,1,182.458,149.877Z" transform="translate(-177.273 -135.789)" fill="#fff"/>
        <path id="Path_115" data-name="Path 115" d="M194,131.222a1.963,1.963,0,0,1,1.68,1.025c.712,1.205,1.428,2.41,2.094,3.641a2.093,2.093,0,1,1-3.625,2.092c-.728-1.2-1.441-2.4-2.1-3.64A2.091,2.091,0,0,1,194,131.222Z" transform="translate(-183.449 -130.897)" fill="#fff"/>
        <path id="Path_116" data-name="Path 116" d="M252.085,133.66a16.075,16.075,0,0,1-3.141,5.065,1.889,1.889,0,0,1-2.41-.195,1.912,1.912,0,0,1-.586-2.278c.756-1.464,1.581-2.9,2.467-4.289a1.96,1.96,0,0,1,2.347-.623A2.216,2.216,0,0,1,252.085,133.66Z" transform="translate(-206.434 -130.885)" fill="#fff"/>
        <path id="Path_117" data-name="Path 117" d="M205.986,189.357h20.906" transform="translate(-189.496 -155.645)" fill="#fff"/>
      </g>
      <rect id="Rectangle_4" data-name="Rectangle 4" width="45.944" height="3.446" transform="translate(3.863 36.953)" fill="#fff"/>
    </g>
    <text id="_en_los_mejores_restaurantes" data-name=" en los mejores restaurantes" transform="translate(177.242 422.122)" fill="#fff" font-size="16" font-family="Poppins-Regular, Poppins"><tspan x="-113.432" y="0" xml:space="preserve"> en los mejores restaurantes</tspan></text>
    <text id="RESERVA" transform="translate(177.242 399.79)" fill="#fff" font-size="25" font-family="Poppins-Regular, Poppins"><tspan x="-52.237" y="0">RESERVA</tspan></text>
    <rect id="Rectangle_3" data-name="Rectangle 3" width="46.999" height="5.595" rx="2.798" transform="translate(154.242 445.406)" fill="#fff"/>
  </g>
</svg>
