<svg xmlns="http://www.w3.org/2000/svg" width="23.866" height="22.03" viewBox="0 0 23.866 22.03">
  <g id="Icon_ionic-ios-calendar" data-name="Icon ionic-ios-calendar" transform="translate(-3.375 -4.5)">
    <path id="Path_705" data-name="Path 705" d="M24.946,6.75H22.651V8.127a.46.46,0,0,1-.459.459h-.918a.46.46,0,0,1-.459-.459V6.75H9.8V8.127a.46.46,0,0,1-.459.459H8.424a.46.46,0,0,1-.459-.459V6.75H5.67A2.3,2.3,0,0,0,3.375,9.045v15.6A2.3,2.3,0,0,0,5.67,26.944H24.946a2.3,2.3,0,0,0,2.295-2.295V9.045A2.3,2.3,0,0,0,24.946,6.75Zm.459,17.211a1.151,1.151,0,0,1-1.147,1.147H6.358a1.151,1.151,0,0,1-1.147-1.147V13.634a.46.46,0,0,1,.459-.459H24.946a.46.46,0,0,1,.459.459Z" transform="translate(0 -0.414)" fill="#e6e6e6"/>
    <path id="Path_706" data-name="Path 706" d="M10.836,4.959a.46.46,0,0,0-.459-.459H9.459A.46.46,0,0,0,9,4.959V6.336h1.836Z" transform="translate(-1.035)" fill="#e6e6e6"/>
    <path id="Path_707" data-name="Path 707" d="M26.586,4.959a.46.46,0,0,0-.459-.459h-.918a.46.46,0,0,0-.459.459V6.336h1.836Z" transform="translate(-3.934)" fill="#e6e6e6"/>
  </g>
</svg>
