<svg xmlns="http://www.w3.org/2000/svg" width="23.861" height="17.043" viewBox="0 0 23.861 17.043">
  <g id="Icon_ionic-ios-card" data-name="Icon ionic-ios-card" transform="translate(-2.25 -6.75)">
    <path id="Path_703" data-name="Path 703" d="M26.111,8.454a1.709,1.709,0,0,0-1.7-1.7H3.954a1.709,1.709,0,0,0-1.7,1.7v2.557H26.111Z" fill="#ea8928"/>
    <path id="Path_704" data-name="Path 704" d="M2.25,24.272a1.709,1.709,0,0,0,1.7,1.7H24.406a1.709,1.709,0,0,0,1.7-1.7V15.75H2.25Zm7.563-2.557h8.735a.748.748,0,0,1,.746.746h0a.748.748,0,0,1-.746.746H9.813a.748.748,0,0,1-.746-.746h0A.748.748,0,0,1,9.813,21.715Zm-3.835,0h.639a.748.748,0,0,1,.746.746h0a.748.748,0,0,1-.746.746H5.978a.748.748,0,0,1-.746-.746h0A.748.748,0,0,1,5.978,21.715Z" transform="translate(0 -2.183)" fill="#ea8928"/>
  </g>
</svg>
