<svg xmlns="http://www.w3.org/2000/svg" width="14.843" height="14.842" viewBox="0 0 14.843 14.842">
  <path id="Icon_ionic-ios-clock" data-name="Icon ionic-ios-clock" d="M16.043,5.548a7.422,7.422,0,1,0,0,10.5A7.425,7.425,0,0,0,16.043,5.548ZM4.858,11.074a.285.285,0,1,1,.225-.225A.285.285,0,0,1,4.858,11.074Zm.935,2.933a.284.284,0,1,1,.082-.3A.285.285,0,0,1,5.793,14.007Zm.082-6.119a.284.284,0,1,1-.082-.3A.285.285,0,0,1,5.875,7.888Zm2.194,8.188a.284.284,0,1,1-.082-.3A.285.285,0,0,1,8.069,16.076ZM7.987,5.819a.284.284,0,1,1,.082-.3A.285.285,0,0,1,7.987,5.819ZM9.25,8.541a.286.286,0,0,1,.489-.3l1.2,2.223a1.156,1.156,0,0,1,.139.542v4.353a.285.285,0,1,1-.571,0V11.01a.587.587,0,0,0-.068-.271Zm1.6,8.527a.285.285,0,1,1,.225-.225A.285.285,0,0,1,10.852,17.068Zm0-11.988a.285.285,0,1,1,.225-.225A.285.285,0,0,1,10.852,5.08ZM13.981,16.2a.284.284,0,1,1,.082-.3A.285.285,0,0,1,13.981,16.2Zm.082-10.507a.284.284,0,1,1-.082-.3A.285.285,0,0,1,14.063,5.694Zm2.194,8.188a.284.284,0,1,1-.082-.3A.285.285,0,0,1,16.257,13.882Zm-.082-5.869a.284.284,0,1,1,.082-.3A.285.285,0,0,1,16.175,8.013Zm.671,3.061a.285.285,0,1,1,.225-.225A.285.285,0,0,1,16.846,11.074Z" transform="translate(-3.372 -3.375)" fill="#ea8928"/>
</svg>
