<svg xmlns="http://www.w3.org/2000/svg" width="23.861" height="23.861" viewBox="0 0 23.861 23.861">
  <path id="Icon_ionic-ios-help-circle" data-name="Icon ionic-ios-help-circle" d="M15.305,3.375a11.93,11.93,0,1,0,11.93,11.93A11.929,11.929,0,0,0,15.305,3.375Zm-.247,17.437a1.183,1.183,0,1,1,1.233-1.182A1.2,1.2,0,0,1,15.059,20.812Zm2.306-5.558c-1,.579-1.336,1-1.336,1.738v.453h-1.99l-.017-.493a2.388,2.388,0,0,1,1.354-2.524c.969-.579,1.377-.946,1.377-1.658a1.392,1.392,0,0,0-1.543-1.233,1.451,1.451,0,0,0-1.537,1.411H11.635c.04-1.847,1.405-3.155,3.711-3.155,2.151,0,3.631,1.193,3.631,2.908A2.808,2.808,0,0,1,17.365,15.254Z" transform="translate(-3.375 -3.375)" fill="#ea8928"/>
</svg>
