<svg xmlns="http://www.w3.org/2000/svg" width="23.109" height="23.104" viewBox="0 0 23.109 23.104">
  <path id="Icon_awesome-instagram" data-name="Icon awesome-instagram" d="M11.552,7.866a5.924,5.924,0,1,0,5.924,5.924A5.914,5.914,0,0,0,11.552,7.866Zm0,9.775A3.851,3.851,0,1,1,15.4,13.79a3.858,3.858,0,0,1-3.851,3.851ZM19.1,7.624a1.382,1.382,0,1,1-1.382-1.382A1.378,1.378,0,0,1,19.1,7.624Zm3.923,1.4a6.837,6.837,0,0,0-1.866-4.841,6.882,6.882,0,0,0-4.841-1.866c-1.908-.108-7.625-.108-9.532,0A6.873,6.873,0,0,0,1.942,4.18,6.86,6.86,0,0,0,.076,9.021c-.108,1.908-.108,7.625,0,9.532a6.837,6.837,0,0,0,1.866,4.841,6.891,6.891,0,0,0,4.841,1.866c1.908.108,7.625.108,9.532,0a6.837,6.837,0,0,0,4.841-1.866,6.882,6.882,0,0,0,1.866-4.841c.108-1.908.108-7.62,0-9.527ZM20.558,20.6a3.9,3.9,0,0,1-2.2,2.2c-1.521.6-5.13.464-6.81.464s-5.295.134-6.81-.464a3.9,3.9,0,0,1-2.2-2.2c-.6-1.521-.464-5.13-.464-6.81s-.134-5.295.464-6.81a3.9,3.9,0,0,1,2.2-2.2c1.521-.6,5.13-.464,6.81-.464s5.295-.134,6.81.464a3.9,3.9,0,0,1,2.2,2.2c.6,1.521.464,5.13.464,6.81S21.162,19.084,20.558,20.6Z" transform="translate(0.005 -2.238)" fill="#ea8928"/>
</svg>
