<svg xmlns="http://www.w3.org/2000/svg" width="15.337" height="21.061" viewBox="0 0 15.337 21.061">
  <path id="Path_7" data-name="Path 7" d="M251.765,293.85c0-.089,0-.182,0-.274a13.393,13.393,0,0,1,.117-2.777,5.817,5.817,0,0,1,1.6-3.257A4.544,4.544,0,0,1,256,286.314a5.631,5.631,0,0,1,3.191.336,4.727,4.727,0,0,1,2.6,2.874,8.048,8.048,0,0,1,.347,2.623c.013.567,0,1.134,0,1.718.122.012.261.018.4.041a2.37,2.37,0,0,1,2.028,2.409q.012,4.262,0,8.524a2.378,2.378,0,0,1-2.473,2.446q-5.2,0-10.4,0a2.381,2.381,0,0,1-2.429-2.061,2.757,2.757,0,0,1-.024-.421q0-4.223,0-8.446a2.4,2.4,0,0,1,.818-1.888,2.371,2.371,0,0,1,1.559-.595c.042,0,.083,0,.125-.007C251.742,293.866,251.75,293.858,251.765,293.85Zm1.869.011h6.624c0-.115,0-.218,0-.321-.021-.885-.017-1.773-.075-2.656a3.061,3.061,0,0,0-.858-1.9,2.664,2.664,0,0,0-1.565-.817,3.941,3.941,0,0,0-2.167.194,2.977,2.977,0,0,0-1.652,1.933A10.576,10.576,0,0,0,253.634,293.861Zm4.508,9.963c-.009-.079-.012-.139-.022-.2-.146-.921-.289-1.842-.443-2.762a.2.2,0,0,1,.121-.24,1.746,1.746,0,0,0,.92-1.488,1.806,1.806,0,1,0-2.74,1.454.254.254,0,0,1,.141.32c-.166.912-.324,1.826-.483,2.74-.01.059-.015.119-.021.175Z" transform="translate(-249.231 -286.226)" fill="#ea8828"/>
</svg>
