<svg xmlns="http://www.w3.org/2000/svg" width="20.187" height="13.976" viewBox="0 0 20.187 13.976">
  <g id="Icon_ionic-ios-mail" data-name="Icon ionic-ios-mail" transform="translate(-3.375 -7.875)">
    <path id="Path_1200" data-name="Path 1200" d="M23.4,10.344l-5.221,5.319a.094.094,0,0,0,0,.136L21.83,19.69a.63.63,0,0,1,0,.893.633.633,0,0,1-.893,0L17.3,16.705a.1.1,0,0,0-.141,0l-.888.9a3.907,3.907,0,0,1-2.785,1.174,3.985,3.985,0,0,1-2.844-1.208l-.854-.869a.1.1,0,0,0-.141,0L6.005,20.583a.633.633,0,0,1-.893,0,.63.63,0,0,1,0-.893L8.766,15.8a.1.1,0,0,0,0-.136L3.54,10.344a.1.1,0,0,0-.165.068V21.053a1.557,1.557,0,0,0,1.553,1.553H22.009a1.557,1.557,0,0,0,1.553-1.553V10.412A.1.1,0,0,0,23.4,10.344Z" transform="translate(0 -0.756)" fill="#ea8928"/>
    <path id="Path_1201" data-name="Path 1201" d="M13.732,16.76a2.638,2.638,0,0,0,1.9-.8l7.614-7.75a1.525,1.525,0,0,0-.961-.34H5.187a1.515,1.515,0,0,0-.961.34l7.614,7.75A2.639,2.639,0,0,0,13.732,16.76Z" transform="translate(-0.264)" fill="#ea8928"/>
  </g>
</svg>
