<svg xmlns="http://www.w3.org/2000/svg" width="20.2" height="17.073" viewBox="0 0 20.2 17.073">
  <g id="one-hamburguer" transform="translate(0.1 -25.696)">
    <g id="Group_1353" data-name="Group 1353" transform="translate(0 25.796)">
      <g id="Group_1352" data-name="Group 1352" transform="translate(4.391 2.673)">
        <g id="Group_1348" data-name="Group 1348" transform="translate(0 2.291)">
          <g id="Group_1345" data-name="Group 1345">
            <path id="Path_1188" data-name="Path 1188" d="M72.9,108.6a.454.454,0,1,1,.321-.133A.46.46,0,0,1,72.9,108.6Z" transform="translate(-72.447 -107.693)" fill="#f59536" stroke="#ea8928" stroke-width="0.2"/>
          </g>
          <g id="Group_1346" data-name="Group 1346" transform="translate(5.155)">
            <path id="Path_1189" data-name="Path 1189" d="M157.952,108.6a.453.453,0,1,1,.322-.133A.46.46,0,0,1,157.952,108.6Z" transform="translate(-157.498 -107.693)" fill="#f59536" stroke="#ea8928" stroke-width="0.2"/>
          </g>
          <g id="Group_1347" data-name="Group 1347" transform="translate(10.309)">
            <path id="Path_1190" data-name="Path 1190" d="M243,108.6a.454.454,0,1,1,.321-.133A.46.46,0,0,1,243,108.6Z" transform="translate(-242.547 -107.693)" fill="#f59536" stroke="#ea8928" stroke-width="0.2"/>
          </g>
        </g>
        <g id="Group_1351" data-name="Group 1351" transform="translate(2.712)">
          <g id="Group_1349" data-name="Group 1349">
            <path id="Path_1191" data-name="Path 1191" d="M117.652,70.8a.454.454,0,1,1,.321-.133A.459.459,0,0,1,117.652,70.8Z" transform="translate(-117.197 -69.893)" fill="#f59536" stroke="#ea8928" stroke-width="0.2"/>
          </g>
          <g id="Group_1350" data-name="Group 1350" transform="translate(4.885)">
            <path id="Path_1192" data-name="Path 1192" d="M198.252,70.8a.454.454,0,1,1,.321-.133A.459.459,0,0,1,198.252,70.8Z" transform="translate(-197.797 -69.893)" fill="#f59536" stroke="#ea8928" stroke-width="0.2"/>
          </g>
        </g>
      </g>
      <path id="Path_1193" data-name="Path 1193" d="M18.891,38.993a1.737,1.737,0,0,0-.5-2.359,1.9,1.9,0,0,0,.114-2.458,2.367,2.367,0,0,0,1.5-2.2c0-1.7-1.071-3.272-3.016-4.44A13.766,13.766,0,0,0,10,25.8a13.766,13.766,0,0,0-6.984,1.742C1.071,28.705,0,30.282,0,31.978a2.367,2.367,0,0,0,1.5,2.2,1.9,1.9,0,0,0,.114,2.457,1.737,1.737,0,0,0-.5,2.359A1.389,1.389,0,0,0,0,40.49a2.072,2.072,0,0,0,1.939,2.179H18.061A2.072,2.072,0,0,0,20,40.49,1.389,1.389,0,0,0,18.891,38.993ZM2.011,35.338a1,1,0,0,1,1-1H16.993a1,1,0,0,1,.951,1.294,1.678,1.678,0,0,1-.842-.4,2.537,2.537,0,0,0-3.275,0,1.639,1.639,0,0,1-2.189,0,2.537,2.537,0,0,0-3.275,0,1.639,1.639,0,0,1-2.189,0,2.472,2.472,0,0,0-1.638-.6,2.472,2.472,0,0,0-1.638.6,1.678,1.678,0,0,1-.842.4A1,1,0,0,1,2.011,35.338Zm15.112.987a.994.994,0,0,1-.13.01H13.786a3.492,3.492,0,0,0,.584-.373,1.639,1.639,0,0,1,2.189,0A3.539,3.539,0,0,0,17.123,36.325Zm-5.444.01H8.322a3.492,3.492,0,0,0,.584-.373,1.639,1.639,0,0,1,2.189,0A3.49,3.49,0,0,0,11.679,36.335Zm-5.464,0H3.007a.989.989,0,0,1-.131-.01,3.542,3.542,0,0,0,.565-.363,1.639,1.639,0,0,1,2.189,0A3.494,3.494,0,0,0,6.215,36.335Zm-3.627.909H17.413a.832.832,0,1,1,0,1.664H2.587a.832.832,0,1,1,0-1.664ZM.909,31.978c0-1.364.915-2.664,2.575-3.66A12.852,12.852,0,0,1,10,26.705a12.852,12.852,0,0,1,6.516,1.613c1.661,1,2.575,2.3,2.575,3.66a1.456,1.456,0,0,1-1.455,1.455H2.364A1.456,1.456,0,0,1,.909,31.978ZM18.061,41.76H1.939a1.17,1.17,0,0,1-1.03-1.27c0-.407.072-.673,1.03-.673H18.061c.958,0,1.03.266,1.03.673A1.17,1.17,0,0,1,18.061,41.76Z" transform="translate(0 -25.796)" fill="#f59536" stroke="#ea8928" stroke-width="0.2"/>
    </g>
  </g>
</svg>
