<svg xmlns="http://www.w3.org/2000/svg" width="18.08" height="18.08" viewBox="0 0 18.08 18.08">
  <path id="Icon_awesome-phone-alt" data-name="Icon awesome-phone-alt" d="M17.564,12.777l-3.955-1.7a.848.848,0,0,0-.989.244l-1.752,2.14A13.089,13.089,0,0,1,4.612,7.208l2.14-1.752A.845.845,0,0,0,7,4.468L5.3.513A.853.853,0,0,0,4.329.022L.657.869A.848.848,0,0,0,0,1.7,16.384,16.384,0,0,0,16.385,18.081a.848.848,0,0,0,.826-.657l.848-3.673a.858.858,0,0,0-.495-.975Z" transform="translate(0 0)" fill="#ea8928"/>
</svg>
