<svg xmlns="http://www.w3.org/2000/svg" width="21.446" height="21.446" viewBox="0 0 21.446 21.446">
  <path id="Icon_awesome-phone-alt" data-name="Icon awesome-phone-alt" d="M20.834,15.155l-4.691-2.011a1,1,0,0,0-1.173.289l-2.078,2.538A15.526,15.526,0,0,1,5.47,8.55L8.009,6.472A1,1,0,0,0,8.3,5.3L6.287.608A1.012,1.012,0,0,0,5.135.026L.779,1.031A1,1,0,0,0,0,2.011,19.433,19.433,0,0,0,19.435,21.446a1,1,0,0,0,.98-.779l1.005-4.356a1.017,1.017,0,0,0-.587-1.156Z" transform="translate(0 0)" fill="#ea8928"/>
</svg>
