<svg xmlns="http://www.w3.org/2000/svg" width="19.01" height="18.934" viewBox="0 0 19.01 18.934">
  <g id="pizza" transform="translate(0.174 0.105)">
    <g id="Group_1332" data-name="Group 1332" transform="translate(0.001 0)">
      <g id="Group_1331" data-name="Group 1331" transform="translate(0 0)">
        <path id="Path_1181" data-name="Path 1181" d="M18.622.106a.366.366,0,0,0-.38-.084L3.048,5.439A2,2,0,0,0,.153,7.909,19.615,19.615,0,0,0,4.426,14.3a19.614,19.614,0,0,0,6.395,4.273,2,2,0,0,0,2.6-2.637L18.711.484A.366.366,0,0,0,18.622.106ZM5.348,5.4l1.61-.574a.932.932,0,1,1-1.61.574ZM12.76,17.214A1.271,1.271,0,0,1,11.1,17.9,18.856,18.856,0,0,1,.829,7.629a1.269,1.269,0,0,1,2.345-.972,16.359,16.359,0,0,0,3.564,5.334,16.36,16.36,0,0,0,5.334,3.564A1.271,1.271,0,0,1,12.76,17.214ZM16.01,6.121a.943.943,0,0,1-.1-.007.932.932,0,1,1,.674-1.674Zm.818-2.393a1.664,1.664,0,1,0-1.061,3.1L15.04,8.958,14.2,8.316a.366.366,0,0,0-.445.58l1.032.792L12.9,15.218a1.993,1.993,0,0,0-.546-.338,15.607,15.607,0,0,1-8.5-8.5A2,2,0,0,0,3.646,6l.98-.349A1.666,1.666,0,0,0,6.061,7.108a1.687,1.687,0,0,0,.221.015,1.664,1.664,0,0,0,1.4-2.559l4.547-1.621.172.416a.366.366,0,0,0,.676-.28L12.918,2.7,17.773.965Z" transform="translate(-0.001 0)" fill="#ea8928" stroke="#ea8928" stroke-width="0.2"/>
      </g>
    </g>
    <g id="Group_1334" data-name="Group 1334" transform="translate(3.277 9.643)">
      <g id="Group_1333" data-name="Group 1333">
        <path id="Path_1182" data-name="Path 1182" d="M90.221,263.78l-.005-.008a.366.366,0,1,0,.005.008Z" transform="translate(-89.546 -263.609)" fill="#ea8928" stroke="#ea8928" stroke-width="0.2"/>
      </g>
    </g>
    <g id="Group_1336" data-name="Group 1336" transform="translate(1.739 6.735)">
      <g id="Group_1335" data-name="Group 1335">
        <path id="Path_1183" data-name="Path 1183" d="M49.171,186.281a17.313,17.313,0,0,1-.952-1.944.366.366,0,0,0-.676.28,18.041,18.041,0,0,0,.993,2.027.366.366,0,1,0,.635-.362Z" transform="translate(-47.515 -184.111)" fill="#ea8928" stroke="#ea8928" stroke-width="0.2"/>
      </g>
    </g>
    <g id="Group_1338" data-name="Group 1338" transform="translate(9.567 4.667)">
      <g id="Group_1337" data-name="Group 1337">
        <path id="Path_1184" data-name="Path 1184" d="M263.384,127.607a1.664,1.664,0,1,0,1.433,1.867A1.677,1.677,0,0,0,263.384,127.607Zm.707,1.771a.932.932,0,1,1-.926-1.054.945.945,0,0,1,.123.008A.934.934,0,0,1,264.091,129.379Z" transform="translate(-261.502 -127.593)" fill="#ea8928" stroke="#ea8928" stroke-width="0.2"/>
      </g>
    </g>
    <g id="Group_1340" data-name="Group 1340" transform="translate(9.472 9.218)">
      <g id="Group_1339" data-name="Group 1339">
        <path id="Path_1185" data-name="Path 1185" d="M260.777,251.994a1.663,1.663,0,0,0-1.867,1.433,1.664,1.664,0,0,0,1.433,1.867,1.664,1.664,0,0,0,.434-3.3Zm.707,1.772a.934.934,0,0,1-.923.811.951.951,0,0,1-.123-.008.932.932,0,0,1,.12-1.857.946.946,0,0,1,.123.008A.934.934,0,0,1,261.484,253.766Z" transform="translate(-258.896 -251.98)" fill="#ea8928" stroke="#ea8928" stroke-width="0.2"/>
      </g>
    </g>
    <g id="Group_1342" data-name="Group 1342" transform="translate(7.403 7.565)">
      <g id="Group_1341" data-name="Group 1341">
        <path id="Path_1186" data-name="Path 1186" d="M203.87,206.962l-1.124-.148a.366.366,0,0,0-.1.725l1.124.148a.366.366,0,0,0,.1-.725Z" transform="translate(-202.332 -206.811)" fill="#ea8928" stroke="#ea8928" stroke-width="0.2"/>
      </g>
    </g>
    <g id="Group_1344" data-name="Group 1344" transform="translate(7.543 9.344)">
      <g id="Group_1343" data-name="Group 1343">
        <path id="Path_1187" data-name="Path 1187" d="M206.989,256.5l-.1-.754a.366.366,0,0,0-.725.1l.1.754a.366.366,0,1,0,.725-.1Z" transform="translate(-206.161 -255.423)" fill="#ea8928" stroke="#ea8928" stroke-width="0.2"/>
      </g>
    </g>
  </g>
</svg>
