<svg id="Group_2" data-name="Group 2" xmlns="http://www.w3.org/2000/svg" width="17.833" height="17.319" viewBox="0 0 17.833 17.319">
  <path id="Path_73" data-name="Path 73" d="M157.261,48.564H139.428c.01-.165.015-.328.031-.488a9.38,9.38,0,0,1,2.847-5.971,8.838,8.838,0,0,1,2.035-1.475.119.119,0,0,1,.156.016,6.091,6.091,0,0,0,7.666.027.175.175,0,0,1,.231-.025,9.244,9.244,0,0,1,4.638,6.137,8.748,8.748,0,0,1,.229,1.655C157.262,48.477,157.261,48.514,157.261,48.564Z" transform="translate(-139.428 -31.245)" fill="#e88625"/>
  <path id="Path_74" data-name="Path 74" d="M153.019,34.03a4.683,4.683,0,1,1-4.556-4.681A4.687,4.687,0,0,1,153.019,34.03Z" transform="translate(-139.415 -29.348)" fill="#e88625"/>
</svg>
