<svg id="Group_259" data-name="Group 259" xmlns="http://www.w3.org/2000/svg" width="22.685" height="22.03" viewBox="0 0 22.685 22.03">
  <path id="Path_73" data-name="Path 73" d="M162.112,50.729H139.428c.012-.21.019-.417.039-.621a11.931,11.931,0,0,1,3.621-7.6,11.242,11.242,0,0,1,2.589-1.876.152.152,0,0,1,.2.02,7.748,7.748,0,0,0,9.751.035.223.223,0,0,1,.294-.031,11.759,11.759,0,0,1,5.9,7.807,11.127,11.127,0,0,1,.292,2.1C162.114,50.618,162.112,50.665,162.112,50.729Z" transform="translate(-139.428 -28.698)" fill="#e6e6e6"/>
  <path id="Path_74" data-name="Path 74" d="M155.567,35.3a5.957,5.957,0,1,1-5.8-5.954A5.961,5.961,0,0,1,155.567,35.3Z" transform="translate(-138.263 -29.348)" fill="#e6e6e6"/>
</svg>
