<svg xmlns="http://www.w3.org/2000/svg" width="21" height="17.226" viewBox="0 0 21 17.226">
  <g id="sushi" transform="translate(0 -46.003)">
    <g id="Group_1314" data-name="Group 1314" transform="translate(2.718 56.549)">
      <g id="Group_1313" data-name="Group 1313" transform="translate(0 0)">
        <path id="Path_1172" data-name="Path 1172" d="M66.687,303.132h-.012a.41.41,0,1,0,0,.82h.012a.41.41,0,1,0,0-.82Z" transform="translate(-66.265 -303.132)" fill="#ea8928"/>
      </g>
    </g>
    <g id="Group_1316" data-name="Group 1316" transform="translate(3.597 60.978)">
      <g id="Group_1315" data-name="Group 1315" transform="translate(0 0)">
        <path id="Path_1173" data-name="Path 1173" d="M88.1,411.115h-.012a.41.41,0,0,0,0,.82H88.1a.41.41,0,0,0,0-.82Z" transform="translate(-87.681 -411.115)" fill="#ea8928"/>
      </g>
    </g>
    <g id="Group_1318" data-name="Group 1318" transform="translate(11.154 60.793)">
      <g id="Group_1317" data-name="Group 1317">
        <path id="Path_1174" data-name="Path 1174" d="M272.353,406.615h-.012a.41.41,0,0,0,0,.82h.012a.41.41,0,0,0,0-.82Z" transform="translate(-271.931 -406.615)" fill="#ea8928"/>
      </g>
    </g>
    <g id="Group_1320" data-name="Group 1320" transform="translate(7.77 60.188)">
      <g id="Group_1319" data-name="Group 1319" transform="translate(0 0)">
        <path id="Path_1175" data-name="Path 1175" d="M189.853,391.866h-.012a.41.41,0,1,0,0,.82h.012a.41.41,0,0,0,0-.82Z" transform="translate(-189.431 -391.866)" fill="#ea8928"/>
      </g>
    </g>
    <g id="Group_1322" data-name="Group 1322" transform="translate(0 46.003)">
      <g id="Group_1321" data-name="Group 1321" transform="translate(0 0)">
        <path id="Path_1176" data-name="Path 1176" d="M20.095,49.427l-.08-.089a12.876,12.876,0,0,0,.791-1.174.41.41,0,0,0-.219-.6,2.374,2.374,0,0,0-.76-.111,4.515,4.515,0,0,0-1.769.389,7.358,7.358,0,0,0-3.765-1.568.409.409,0,0,0-.092-.016A18.956,18.956,0,0,0,11.064,46h-.08c-2.693.011-5.994.563-7.274,2.085a2.059,2.059,0,0,0-.488,1.72,1.8,1.8,0,0,0,.058.235h0a1.661,1.661,0,0,0,.435.7,3.672,3.672,0,0,0-.129.945,3.509,3.509,0,0,0,1.145,2.593A7.161,7.161,0,0,0,.52,56.115a2.059,2.059,0,0,0-.488,1.72,1.8,1.8,0,0,0,.058.235h0a1.661,1.661,0,0,0,.435.7,3.674,3.674,0,0,0-.129.945,3.519,3.519,0,0,0,3.515,3.515h7.763a3.519,3.519,0,0,0,3.515-3.515,3.778,3.778,0,0,0-.028-.454,3.6,3.6,0,0,0,2.151.606h.08a.41.41,0,0,0,.4-.356,2.567,2.567,0,0,0-.889-2.055l-.08-.089a12.884,12.884,0,0,0,.791-1.173.41.41,0,0,0-.219-.6,2.374,2.374,0,0,0-.76-.111,4.514,4.514,0,0,0-1.769.389,4.117,4.117,0,0,0-.934-.667h.932a3.519,3.519,0,0,0,3.515-3.515,3.778,3.778,0,0,0-.028-.454,3.6,3.6,0,0,0,2.151.606h.08a.41.41,0,0,0,.4-.356A2.567,2.567,0,0,0,20.095,49.427Zm-6.245-2.4a4.878,4.878,0,0,1-.21,3.727c-.431-.024-.851-.055-1.244-.085-.308-.023-.593-.045-.847-.06a6.513,6.513,0,0,0-.026-2.766,8.269,8.269,0,0,1-.127-1.018A17.8,17.8,0,0,1,13.849,47.029Zm-5.584,0a18.1,18.1,0,0,1,2.309-.2,8.648,8.648,0,0,0,.138,1.149A5.522,5.522,0,0,1,10.7,50.6c-.319.012-.7.041-1.131.074-.287.022-.588.045-.9.065A5,5,0,0,1,8.265,47.029ZM4.139,49.957a1.877,1.877,0,0,1,1.111-.551.41.41,0,1,0-.084-.816,2.692,2.692,0,0,0-1.039.347,1.524,1.524,0,0,1,.21-.321,5.725,5.725,0,0,1,3.051-1.424,5.622,5.622,0,0,0,.393,3.589c-.209.007-.419.011-.627.011C5.482,50.792,4.471,50.511,4.139,49.957ZM.949,57.984a1.877,1.877,0,0,1,1.111-.551.41.41,0,1,0-.084-.816,2.691,2.691,0,0,0-1.039.347,1.521,1.521,0,0,1,.21-.321A5.725,5.725,0,0,1,4.2,55.219a5.622,5.622,0,0,0,.393,3.589c-.209.007-.419.011-.627.011C2.291,58.819,1.281,58.539.949,57.984Zm10.725,4.424H3.911a2.7,2.7,0,0,1-2.695-2.695,2.76,2.76,0,0,1,.044-.476c.078.033.159.065.244.094a7.839,7.839,0,0,0,2.46.308c.856,0,1.718-.066,2.478-.124.546-.042,1.018-.078,1.35-.078h.017c.332,0,.8.036,1.333.077.76.058,1.621.123,2.477.123a7.1,7.1,0,0,0,2.71-.4,2.987,2.987,0,0,1,.039.476A2.7,2.7,0,0,1,11.674,62.409Zm-6.6-7.352q.416-.064.856-.109h.013c.464-.047.945-.077,1.44-.089a8.649,8.649,0,0,0,.138,1.149,5.522,5.522,0,0,1-.011,2.619c-.319.012-.7.041-1.131.074-.287.022-.588.045-.9.065A5,5,0,0,1,5.074,55.056Zm3.257.816A8.269,8.269,0,0,1,8.2,54.853a17.8,17.8,0,0,1,2.454.2,4.879,4.879,0,0,1-.21,3.727c-.431-.024-.851-.055-1.244-.085-.308-.023-.593-.045-.847-.06A6.513,6.513,0,0,0,8.331,55.872Zm6.129.768a.41.41,0,0,0,.558.079,3.38,3.38,0,0,1,1.556-.419,4.747,4.747,0,0,1-.541.722.41.41,0,0,0-.106.513,2.538,2.538,0,0,0,.369.47,2.521,2.521,0,0,1,.664,1.027,2.667,2.667,0,0,1-1.846-.89.41.41,0,0,0-.3-.126h0a.41.41,0,0,0-.3.13c-.417.446-1.393.673-2.9.673l-.279,0a5.478,5.478,0,0,0,.206-3.591c.134.03.265.062.393.1A4.8,4.8,0,0,1,14.46,56.64Zm.4-2.259H11.517q-.206-.043-.416-.08a.407.407,0,0,0-.093-.016,18.958,18.958,0,0,0-3.135-.255H7.794c-.594,0-1.218.031-1.844.091a2.7,2.7,0,0,1-1.544-2.435,2.763,2.763,0,0,1,.044-.476c.078.033.159.065.244.094a7.838,7.838,0,0,0,2.46.308c.856,0,1.718-.066,2.478-.124.546-.042,1.018-.078,1.35-.078H11c.332,0,.8.036,1.333.077.76.058,1.621.123,2.477.123a7.1,7.1,0,0,0,2.71-.4,2.988,2.988,0,0,1,.039.476A2.7,2.7,0,0,1,14.865,54.381Zm3.441-4.266a.41.41,0,0,0-.3-.126h0a.41.41,0,0,0-.3.13c-.417.446-1.393.673-2.9.673l-.279,0a5.478,5.478,0,0,0,.206-3.591c.134.03.265.062.393.1a4.8,4.8,0,0,1,2.521,1.319.41.41,0,0,0,.558.079,3.381,3.381,0,0,1,1.556-.419,4.746,4.746,0,0,1-.541.722.41.41,0,0,0-.106.513,2.535,2.535,0,0,0,.369.47,2.522,2.522,0,0,1,.664,1.027A2.667,2.667,0,0,1,18.306,50.115Z" transform="translate(0 -46.003)" fill="#ea8928"/>
      </g>
    </g>
    <g id="Group_1324" data-name="Group 1324" transform="translate(5.909 48.522)">
      <g id="Group_1323" data-name="Group 1323" transform="translate(0 0)">
        <path id="Path_1177" data-name="Path 1177" d="M144.481,107.415h-.012a.41.41,0,0,0,0,.82h.012a.41.41,0,1,0,0-.82Z" transform="translate(-144.059 -107.415)" fill="#ea8928"/>
      </g>
    </g>
    <g id="Group_1326" data-name="Group 1326" transform="translate(6.787 52.95)">
      <g id="Group_1325" data-name="Group 1325" transform="translate(0 0)">
        <path id="Path_1178" data-name="Path 1178" d="M165.9,215.4h-.012a.41.41,0,0,0,0,.82h.012a.41.41,0,0,0,0-.82Z" transform="translate(-165.474 -215.398)" fill="#ea8928"/>
      </g>
    </g>
    <g id="Group_1328" data-name="Group 1328" transform="translate(14.345 52.766)">
      <g id="Group_1327" data-name="Group 1327">
        <path id="Path_1179" data-name="Path 1179" d="M350.147,210.9h-.012a.41.41,0,0,0,0,.82h.012a.41.41,0,0,0,0-.82Z" transform="translate(-349.725 -210.898)" fill="#ea8928"/>
      </g>
    </g>
    <g id="Group_1330" data-name="Group 1330" transform="translate(10.961 52.161)">
      <g id="Group_1329" data-name="Group 1329">
        <path id="Path_1180" data-name="Path 1180" d="M267.647,196.148h-.012a.41.41,0,0,0,0,.82h.012a.41.41,0,1,0,0-.82Z" transform="translate(-267.225 -196.148)" fill="#ea8928"/>
      </g>
    </g>
  </g>
</svg>
