<svg xmlns="http://www.w3.org/2000/svg" width="22.79" height="23.104" viewBox="0 0 22.79 23.104">
  <path id="Path_708" data-name="Path 708" d="M79.329,111.689A11.848,11.848,0,0,0,68,119.812h1.678a9.678,9.678,0,0,1,.624-1.343h3.23a13.609,13.609,0,0,0-.353,1.343h1.636a12.624,12.624,0,0,1,.413-1.343h3.117v1.343h1.58v-1.343H83.3a11.78,11.78,0,0,1,.462,1.343h1.636A13.212,13.212,0,0,0,85,118.469h3.353a9.673,9.673,0,0,1,.624,1.343H90.65A11.843,11.843,0,0,0,79.329,111.689Zm2.383,1.858a10.289,10.289,0,0,1,5.539,3.342h-2.93A11.08,11.08,0,0,0,81.712,113.547Zm-5.229.116a10.489,10.489,0,0,0-2.327,3.226h-2.75A10.276,10.276,0,0,1,76.483,113.663Zm3.445.508a9.1,9.1,0,0,1,2.549,2.718H79.928Zm-1.58.011v2.708h-2.38A8.362,8.362,0,0,1,78.349,114.181Zm-9.872,7.157a.675.675,0,0,0-.395.109.325.325,0,0,0-.159.271,1.043,1.043,0,0,0,.074.331l.839,2.412c.026.072.055.153.088.24a.825.825,0,0,0,.134.229.551.551,0,0,0,.222.155.935.935,0,0,0,.353.056.807.807,0,0,0,.42-.1.575.575,0,0,0,.222-.208,3.781,3.781,0,0,0,.155-.356l.751-2.115.747,2.126c.062.158.112.274.152.349a.559.559,0,0,0,.219.208.829.829,0,0,0,.423.092.817.817,0,0,0,.434-.1.568.568,0,0,0,.215-.219,3.49,3.49,0,0,0,.145-.367l.839-2.412a1.159,1.159,0,0,0,.078-.331.322.322,0,0,0-.162-.271.679.679,0,0,0-.391-.109.621.621,0,0,0-.356.085.483.483,0,0,0-.169.187,1.971,1.971,0,0,0-.1.264l-.592,2.052L72,122a3.594,3.594,0,0,0-.152-.353.605.605,0,0,0-.222-.215.844.844,0,0,0-.448-.1.889.889,0,0,0-.448.1.612.612,0,0,0-.236.222,2.558,2.558,0,0,0-.152.349l-.659,1.922-.6-2.066a1.172,1.172,0,0,0-.18-.377.521.521,0,0,0-.434-.145Zm8.12,0a.675.675,0,0,0-.395.109.325.325,0,0,0-.159.271,1.069,1.069,0,0,0,.078.331l.839,2.412c.026.072.055.153.088.24a.816.816,0,0,0,.13.229.551.551,0,0,0,.222.155.935.935,0,0,0,.353.056.82.82,0,0,0,.423-.1.563.563,0,0,0,.219-.208,3.787,3.787,0,0,0,.155-.356l.751-2.115.747,2.126c.062.158.112.274.152.349a.559.559,0,0,0,.219.208.829.829,0,0,0,.423.092.817.817,0,0,0,.434-.1.568.568,0,0,0,.215-.219,3.49,3.49,0,0,0,.145-.367l.839-2.412a1.159,1.159,0,0,0,.078-.331.322.322,0,0,0-.162-.271.679.679,0,0,0-.391-.109.621.621,0,0,0-.356.085.483.483,0,0,0-.169.187,1.973,1.973,0,0,0-.1.264l-.592,2.052L80.122,122a3.594,3.594,0,0,0-.152-.353.592.592,0,0,0-.219-.215.844.844,0,0,0-.448-.1.9.9,0,0,0-.451.1.612.612,0,0,0-.236.222,2.557,2.557,0,0,0-.152.349l-.659,1.922-.6-2.066a1.172,1.172,0,0,0-.176-.377.53.53,0,0,0-.437-.145Zm8.12,0a.675.675,0,0,0-.395.109.325.325,0,0,0-.159.271,1.069,1.069,0,0,0,.078.331l.839,2.412c.026.072.055.153.088.24a.816.816,0,0,0,.13.229.551.551,0,0,0,.222.155.935.935,0,0,0,.353.056.82.82,0,0,0,.423-.1.563.563,0,0,0,.219-.208,3.61,3.61,0,0,0,.159-.356l.747-2.115.747,2.126c.062.158.112.274.152.349a.559.559,0,0,0,.219.208.829.829,0,0,0,.423.092.817.817,0,0,0,.434-.1.568.568,0,0,0,.215-.219,3.49,3.49,0,0,0,.145-.367l.839-2.412a1.159,1.159,0,0,0,.078-.331.318.318,0,0,0-.159-.271.691.691,0,0,0-.395-.109.621.621,0,0,0-.356.085.483.483,0,0,0-.169.187,1.97,1.97,0,0,0-.1.264l-.589,2.052L88.242,122a3.594,3.594,0,0,0-.152-.353.592.592,0,0,0-.219-.215.844.844,0,0,0-.448-.1.9.9,0,0,0-.451.1.612.612,0,0,0-.236.222,2.558,2.558,0,0,0-.152.349l-.659,1.922-.592-2.066a1.172,1.172,0,0,0-.18-.377.53.53,0,0,0-.437-.145Zm-16.772,5.123a11.944,11.944,0,0,0,22.769,0H89.046a9.73,9.73,0,0,1-.571,1.315H85.09a13.436,13.436,0,0,0,.363-1.315H83.842a11.04,11.04,0,0,1-.413,1.315h-3.5v-1.315h-1.58v1.315h-3.2a13.365,13.365,0,0,1-.374-1.315H73.155c.091.445.2.885.328,1.315h-3.3a9.749,9.749,0,0,1-.575-1.315H67.944Zm3.275,2.895h2.831a10.03,10.03,0,0,0,2.331,3.438A10.253,10.253,0,0,1,71.22,129.356Zm4.59,0h2.539v2.951A7.525,7.525,0,0,1,75.81,129.356Zm4.118,0h2.715a8.65,8.65,0,0,1-2.715,2.877Zm4.531,0h2.979a10.273,10.273,0,0,1-5.8,3.6A10.633,10.633,0,0,0,84.459,129.356Z" transform="translate(-67.923 -111.689)" fill="#ea8928"/>
</svg>
