<svg xmlns="http://www.w3.org/2000/svg" width="228" height="102.507" viewBox="0 0 228 102.507">
  <g id="Group_251" data-name="Group 251" transform="translate(-73.5 -221.448)">
    <g id="Group_1" data-name="Group 1" transform="translate(158.947 12.809)">
      <path id="Path_1" data-name="Path 1" d="M28.544,271.228q-8.045,0-16.09,0c-2.9,0-3.465-.562-3.484-3.379-.01-1.377.033-2.755-.011-4.131-.046-1.461.127-2.7,1.725-3.389.438-.188.725-.984.874-1.555,1.827-7.022,6.247-11.4,13.25-13.27.7-.188,1.788-.677,1.86-1.444.145-1.552,3.626-1.552,3.783.01.083.822,1.3,1.257,2.079,1.475,6.8,1.906,11.124,6.222,12.971,13.034a4.753,4.753,0,0,0,.553,1.6c.606.811,1.888,1.461,1.961,2.263a30.619,30.619,0,0,1-.178,7.344c-.093.609-1.791,1.36-2.768,1.384C39.563,271.3,34.053,271.228,28.544,271.228ZM15.966,260.172H41.134c-.512-5.817-6.226-10.646-12.465-10.691C22.325,249.436,16.517,254.248,15.966,260.172Zm-2.537,6.546H43.762c-.032-.707-.057-1.26-.084-1.866H13.346C13.378,265.56,13.4,266.112,13.429,266.718Z" transform="translate(0 -19.35)" fill="#ea8928"/>
      <path id="Path_2" data-name="Path 2" d="M11.181,225.048l4.351,6.527c1.392,2.087,4.785.128,3.382-1.976l-4.351-6.527c-1.392-2.087-4.785-.128-3.382,1.976Z" transform="translate(-1.071 -7.649)" fill="#ea8928"/>
      <path id="Path_3" data-name="Path 3" d="M83.533,223.071,79.182,229.6c-1.4,2.1,1.989,4.066,3.382,1.976l4.351-6.527c1.4-2.1-1.989-4.066-3.382-1.976Z" transform="translate(-39.483 -7.649)" fill="#ea8928"/>
      <path id="Path_4" data-name="Path 4" d="M49,210.53v7.844c0,2.52,3.916,2.524,3.916,0V210.53c0-2.52-3.916-2.524-3.916,0Z" transform="translate(-22.622)" fill="#ea8928"/>
    </g>
    <text id="_en_los_mejores_restaurantes" data-name=" en los mejores restaurantes" transform="translate(187.5 317.955)" font-size="16" font-family="Poppins-Regular, Poppins"><tspan x="-113.432" y="0" xml:space="preserve"> en los mejores restaurantes</tspan></text>
    <text id="RESERVA" transform="translate(187.5 295.622)" font-size="25" font-family="Poppins-Regular, Poppins"><tspan x="-52.237" y="0">RESERVA</tspan></text>
  </g>
</svg>
